<?xml version="1.0" encoding="UTF-8" standalone="no"?>
<svg
   xmlns:dc="http://purl.org/dc/elements/1.1/"
   xmlns:cc="http://creativecommons.org/ns#"
   xmlns:rdf="http://www.w3.org/1999/02/22-rdf-syntax-ns#"
   xmlns:svg="http://www.w3.org/2000/svg"
   xmlns="http://www.w3.org/2000/svg"
   xmlns:sodipodi="http://sodipodi.sourceforge.net/DTD/sodipodi-0.dtd"
   xmlns:inkscape="http://www.inkscape.org/namespaces/inkscape"
   version="1.1"
   id="svg2"
   xml:space="preserve"
   width="3760"
   height="1000"
   viewBox="0 0 3760 1000"
   sodipodi:docname="Loreal_Paris.eps"><metadata
     id="metadata8"><rdf:RDF><cc:Work
         rdf:about=""><dc:format>image/svg+xml</dc:format><dc:type
           rdf:resource="http://purl.org/dc/dcmitype/StillImage" /></cc:Work></rdf:RDF></metadata><defs
     id="defs6" /><sodipodi:namedview
     pagecolor="#ffffff"
     bordercolor="#666666"
     borderopacity="1"
     objecttolerance="10"
     gridtolerance="10"
     guidetolerance="10"
     inkscape:pageopacity="0"
     inkscape:pageshadow="2"
     inkscape:window-width="640"
     inkscape:window-height="480"
     id="namedview4" /><g
     id="g10"
     inkscape:groupmode="layer"
     inkscape:label="ink_ext_XXXXXX"
     transform="matrix(1.3333333,0,0,-1.3333333,0,1000)"><g
       id="g12"
       transform="scale(0.1)"><path
         d="m 19952.9,2699.36 h -709 l 2080.1,4089.1 h 816.9 L 24221,2699.36 h -716.6 l -547.2,1075.61 h -2457.1 z m 2746.6,1582.31 -970.9,1908.44 -970.8,-1908.44 z m -5991.9,2613.78 484.9,559.33 h 1078 z M 15323.2,2691.14 h 3657 v 464.36 h -3026.3 v 1411.99 h 2246.4 v 480.28 h -2246.4 v 1281.28 h 3007 v 454.99 h -3637.7 z m -4969,4097.32 h 2694 v 0 c 718.5,0 1306.4,-533.76 1306.4,-1186.19 v 0 c 0,-568.64 -446.7,-1047.04 -1037.1,-1160.58 l 1265.1,-1742.33 h -742 L 12594.1,4416.1 h -1671 V 2699.36 h -568.9 V 4416.1 Z m 2724.3,-486.52 37.7,-5.19 36.8,-7.11 36.1,-9.04 35.5,-10.88 34.5,-12.61 33.4,-14.21 32.5,-15.87 31.6,-17.42 30.5,-18.95 29.3,-20.23 28.2,-21.6 27,-22.8 25.7,-23.91 24.2,-24.83 22.8,-25.75 21.6,-26.71 20.1,-27.46 18.5,-27.95 17.1,-28.51 15.6,-29.12 14.1,-29.63 12.6,-29.68 11,-29.96 9.7,-30.39 8.1,-30.71 6.7,-30.99 5.3,-31.33 3.7,-31.75 2.4,-32.23 0.7,-32.85 -0.7,-32.9 -2.4,-32.24 -3.7,-31.75 -5.3,-31.32 -6.7,-31.03 -8.1,-30.68 -9.6,-30.35 -11.1,-29.89 -12.6,-29.77 -14.1,-29.58 -15.6,-29.11 -17.1,-28.53 -18.5,-27.95 -20.1,-27.48 -21.6,-26.7 -22.8,-25.74 -24.2,-24.85 -25.7,-23.89 -27,-22.82 -28.2,-21.58 -29.3,-20.23 -30.5,-18.95 -31.6,-17.43 -32.5,-15.86 -33.4,-14.21 -34.5,-12.63 -35.5,-10.87 -36.1,-9.03 -36.8,-7.11 -37.7,-5.19 -38.5,-3.17 -44.2,-1.23 h -2042.6 v 1408.16 h 2041.4 l 45.4,-1.25 z m -6222.76,726.32 c -1154.76,0 -2091.2,-936.21 -2091.2,-2090.66 0,-1154.46 936.44,-2090.67 2091.2,-2090.67 1154.76,0 2091.2,936.21 2091.2,2090.67 0,1154.45 -936.44,2090.66 -2091.2,2090.66 z m 0,471.28 c -1537.38,0 -2784.15,-1147.27 -2784.15,-2561.94 0,-1414.69 1246.77,-2561.96 2784.15,-2561.96 1537.37,0 2784.14,1147.27 2784.14,2561.96 0,1414.67 -1246.77,2561.94 -2784.14,2561.94 z M 4.12109,2691.14 v 4092.9 H 526.207 V 3139.19 H 3619.33 v -448.05 z m 24518.87891,0 h 3667.9 v 465.6 h -3093.2 v 3627.3 H 24523 Z M 11355.8,32.2266 h -311.6 l 914.1,1591.1234 h 358.9 L 13231.3,32.2266 h -314.9 L 12676,450.77 h -1079.8 z m 1206.9,615.6994 -426.6,742.594 -426.6,-742.594 z m 1260.5,975.424 h 239.1 893 0.1 v 0 c 301.9,0 549,-207.7 549,-461.56 v 0 c 0,-221.27 -187.7,-407.419 -435.8,-451.595 l 531.6,-677.9684 h -311.8 l -523.9,668.0114 h -642.1 V 32.2266 h -299.2 V 700.238 Z m 1144.9,-189.31 15.8,-2.02 15.5,-2.77 15.2,-3.52 14.9,-4.23 14.5,-4.91 14,-5.53 13.7,-6.17 13.3,-6.79 12.8,-7.37 12.3,-7.86 11.9,-8.41 11.3,-8.87 10.8,-9.3 10.2,-9.66 9.6,-10.03 9,-10.38 8.5,-10.7 7.8,-10.86 7.1,-11.1 6.6,-11.33 5.9,-11.54 5.3,-11.55 4.7,-11.65 4,-11.83 3.4,-11.95 2.9,-12.06 2.2,-12.19 1.6,-12.34 0.9,-12.55 0.3,-12.78 -0.3,-12.8 -0.9,-12.55 -1.6,-12.36 -2.2,-12.17 -2.9,-12.09 -3.4,-11.93 -4,-11.81 -4.7,-11.63 -5.3,-11.58 -5.9,-11.52 -6.5,-11.32 -7.2,-11.11 -7.8,-10.87 -8.5,-10.695 -9,-10.382 -9.6,-10.028 -10.2,-9.656 -10.8,-9.305 -11.3,-8.875 -11.9,-8.402 -12.3,-7.867 -12.8,-7.383 -13.3,-6.781 -13.7,-6.16 -14,-5.536 -14.5,-4.917 -14.9,-4.227 -15.2,-3.512 -15.5,-2.773 -15.8,-2.02 -16.2,-1.222 -18.5,-0.485 h -798.3 v 547.946 h 797.8 l 19,-0.5 z m -5725.66,189.31 h 1132.16 v 0 c 302,0 549.1,-207.7 549.1,-461.56 v 0 c 0,-159.03 -97,-299.923 -243.7,-383.013 -100.7,-57.062 -200.6,-72.761 -315.6,-77.062 -58.3,-2.172 -119,-2.305 -180.6,-1.477 H 9541.7 V 32.2266 H 9242.44 V 700.238 Z m 1144.96,-189.31 15.8,-2.02 15.5,-2.77 15.2,-3.52 14.9,-4.23 14.5,-4.91 14,-5.53 13.7,-6.17 13.2,-6.79 12.9,-7.37 12.3,-7.86 11.8,-8.41 11.4,-8.87 10.8,-9.3 10.2,-9.66 9.6,-10.03 9,-10.38 8.5,-10.7 7.7,-10.86 7.2,-11.1 6.6,-11.33 5.9,-11.54 5.3,-11.55 4.6,-11.65 4.1,-11.83 3.4,-11.95 2.8,-12.06 2.2,-12.19 1.6,-12.34 1,-12.55 0.3,-12.78 -0.3,-12.8 -1,-12.55 -1.6,-12.36 -2.2,-12.17 -2.8,-12.09 -3.4,-11.93 -4,-11.81 -4.7,-11.63 -5.3,-11.58 -5.9,-11.52 -6.6,-11.32 -7.2,-11.11 -7.7,-10.87 -8.5,-10.695 -9,-10.382 -9.6,-10.028 -10.2,-9.656 -10.8,-9.305 -11.4,-8.875 -11.8,-8.402 -12.3,-7.867 -12.9,-7.383 -13.2,-6.781 -13.7,-6.16 -14,-5.536 -14.5,-4.917 -14.9,-4.227 -15.2,-3.512 -15.5,-2.773 -15.8,-2.02 -16.2,-1.222 -18.6,-0.485 h -798.25 v 547.946 h 797.75 l 19.1,-0.5 z m 6924.3,-890.567 274.8,17.406 c 12.8,-79.649 43.1,-144.844 90.8,-195.961 47.6,-51.133 121.4,-92.25 221.4,-123.727 100,-31.488 212.8,-47.05 337.9,-47.05 111.3,0 209.2,11.851 294.3,35.558 85.2,24.082 148.7,56.68 190.2,98.168 41.6,41.86 62.6,87.059 62.6,136.324 0,50.012 -20,93.348 -60.5,130.77 -40,37.406 -106.1,68.523 -197.9,93.715 -59.5,16.668 -189.7,42.613 -392.2,77.797 -202.1,35.191 -344.1,68.156 -425.1,99.277 -105.1,39.641 -183.5,89.277 -235.3,148.18 -51.3,58.89 -76.9,124.83 -76.9,198.18 0,80.02 31.2,155.21 94.3,224.86 63.1,70.01 155.4,122.99 276.3,159.29 121.6,35.94 255.9,54.08 404.1,54.08 163.6,0 307.1,-18.88 432.2,-57.04 124.6,-37.79 220.5,-93.72 287.6,-167.43 66.7,-73.72 103.1,-157.45 108.2,-250.8 l -279.4,-15.19 c -15.4,100.39 -66.1,176.71 -152.8,227.82 -86.6,51.49 -214.3,77.05 -383.5,77.05 -176.4,0 -304.6,-23.34 -385.6,-70 -80.5,-46.68 -121,-102.99 -121,-168.56 0,-57.42 28.7,-104.47 85.7,-141.14 56.3,-37.05 202.5,-74.82 439.3,-113.355 236.9,-38.898 399.5,-72.605 487.6,-101.492 128.2,-42.984 223.1,-97.058 284.1,-162.258 61,-65.566 91.3,-141.144 91.3,-226.34 0,-84.828 -33.4,-164.476 -100.5,-239.304 -67.2,-74.828 -163.6,-133 -289.2,-174.8557 -125.6,-41.4883 -267.1,-62.22655 -424,-62.22655 -199.5,0 -366.6,20.73825 -501,62.96485 -134.8,41.8714 -240.4,104.8364 -317.4,189.3084 -76.3,84.086 -116.8,179.664 -120.4,285.981 z M 16327.9,32.2539 V 1156.7 h 293.6 V 32.2539 Z m 0,1293.3661 v 297.69 h 293.6 V 1325.62 Z M 2554.23,5350.1 h 482.03 L 3759.3,6754.54 H 3145.8 L 2554.23,5350.1"
         style="fill:#231f20;fill-opacity:1;fill-rule:evenodd;stroke:none"
         id="path14" /></g></g></svg>
