<?xml version="1.0" encoding="UTF-8" standalone="no"?>
<svg
   xmlns:dc="http://purl.org/dc/elements/1.1/"
   xmlns:cc="http://creativecommons.org/ns#"
   xmlns:rdf="http://www.w3.org/1999/02/22-rdf-syntax-ns#"
   xmlns:svg="http://www.w3.org/2000/svg"
   xmlns="http://www.w3.org/2000/svg"
   xmlns:sodipodi="http://sodipodi.sourceforge.net/DTD/sodipodi-0.dtd"
   xmlns:inkscape="http://www.inkscape.org/namespaces/inkscape"
   version="1.1"
   id="svg2"
   xml:space="preserve"
   width="100"
   height="77.333336"
   viewBox="0 0 100 77.333336"
   sodipodi:docname="marico-seeklogo.com.eps"><metadata
     id="metadata8"><rdf:RDF><cc:Work
         rdf:about=""><dc:format>image/svg+xml</dc:format><dc:type
           rdf:resource="http://purl.org/dc/dcmitype/StillImage" /></cc:Work></rdf:RDF></metadata><defs
     id="defs6" /><sodipodi:namedview
     pagecolor="#ffffff"
     bordercolor="#666666"
     borderopacity="1"
     objecttolerance="10"
     gridtolerance="10"
     guidetolerance="10"
     inkscape:pageopacity="0"
     inkscape:pageshadow="2"
     inkscape:window-width="640"
     inkscape:window-height="480"
     id="namedview4" /><g
     id="g10"
     inkscape:groupmode="layer"
     inkscape:label="ink_ext_XXXXXX"
     transform="matrix(1.3333333,0,0,-1.3333333,0,77.333333)"><g
       id="g12"
       transform="scale(0.1)"><path
         d="m 234.465,446.082 c 4.746,-1.656 31.34,-26.195 38.348,-32.125 4.464,-3.781 33.964,-32.484 35.015,-35.668 2.317,-1.539 15.762,-16.172 18.281,-19.301 l 11.446,-13.609 c 7.793,-9.926 11.398,-15.094 18.597,-25.246 0.848,-1.188 2.032,-2.785 2.02,-3.899 -0.02,-1.277 -2.07,-8.398 -2.477,-9.964 -1.617,-6.207 -3.132,-14.243 -4.043,-21.016 -0.484,-3.652 -1.336,-6.629 -1.902,-10.617 -1.043,-7.293 -3.441,-27.645 -3.441,-34.586 1.046,1.211 1.238,2.668 2.039,4.672 5.086,12.679 14.402,29.836 21.476,41.601 7.524,12.512 11.465,18.227 19.254,29.957 5.567,8.383 11.746,16.25 17.754,24.301 1.117,1.496 1.941,2.633 3.106,4.051 l 19.023,23.031 c 1.586,1.668 5.418,6.551 6.82,7.496 0.809,2.203 2.555,3.25 3.961,4.977 1.371,1.676 2.801,3.074 4.199,4.761 4.789,5.766 26.922,28.082 31.184,31.883 5.348,4.766 30.441,27.844 34.027,29.477 1.067,0.765 1.625,1.453 2.68,2.273 l 8.402,6.809 c 10.071,8.867 29.043,21.59 40.243,30 2.097,1.574 3.968,2.648 6.066,4.223 1.969,1.476 3.773,2.574 5.871,3.972 l 30.363,19.297 c 0.911,0.621 0.266,0.125 0.774,0.566 -2.688,0 -3.801,0.665 -6.184,0.399 -10.906,-1.211 -19.012,-0.508 -31.586,-2.895 -4.074,-0.773 -7.758,-1.273 -11.781,-2.089 -5.176,-1.043 -11.207,-2.067 -16.375,-3.75 -1.914,-0.622 -3.836,-0.993 -5.656,-1.504 -7.137,-2.012 -14.024,-4.309 -20.84,-6.903 -18.328,-6.968 -38.363,-17.222 -54.133,-28.629 -1.453,-1.054 -2.398,-1.867 -3.855,-2.855 -3.942,-2.684 -8.059,-6.422 -11.735,-9.293 -4.961,-3.879 -12.812,-11.68 -17.593,-16.406 l -9.887,-11.137 c -11.852,-14.684 -18.453,-23.266 -27.949,-40.949 -1.727,-3.223 -3.289,-5.699 -4.782,-9.09 -1.394,-3.168 -3.156,-5.961 -4.527,-9.34 -6.98,-17.176 -9.48,-21.394 -14.992,-40.48 l -3.145,-10.278 c -0.031,-0.07 -0.086,-0.211 -0.144,-0.304 -0.094,4.261 -2.258,12.57 -3.168,16.964 -1.067,5.133 -2.617,11.364 -4.266,16.313 -7.805,23.469 -15.133,41.824 -29.695,62.465 -3.426,4.855 -7.141,9.957 -11.082,14.422 l -7.375,7.832 c -5.035,5.031 -10.801,10.062 -16.508,14.363 -16.105,12.152 -36.492,21.293 -56.566,25.305 -9.747,1.949 -17.266,3.453 -27.481,3.386 -3.766,-0.019 -5.887,0.453 -9.836,0.453 0.488,-1.839 8.817,-7.386 10.281,-8.503 3.567,-2.731 7.129,-5.27 10.684,-8.11 l 21.09,-16.703"
         style="fill:#99d420;fill-opacity:1;fill-rule:evenodd;stroke:none"
         id="path14" /><path
         d="m 307.828,378.289 c -1.051,3.184 -30.551,31.887 -35.015,35.668 -7.008,5.93 -33.602,30.469 -38.348,32.125 V 244.969 c -0.02,-4.531 -1.262,-5.899 3.09,-5.852 23.383,0.254 46.883,0.039 70.277,0.039 l -0.004,139.133"
         style="fill:#2056ae;fill-opacity:1;fill-rule:evenodd;stroke:none"
         id="path16" /><path
         d="M 435.781,375.16 V 244.523 c -0.011,-2.273 -0.574,-4.73 0.973,-5.293 l 72.398,-0.074 v 207.102 c -3.586,-1.633 -28.679,-24.711 -34.027,-29.477 -4.262,-3.801 -26.395,-26.117 -31.184,-31.883 -1.398,-1.687 -2.828,-3.085 -4.199,-4.761 -1.406,-1.727 -3.152,-2.774 -3.961,-4.977"
         style="fill:#2056ae;fill-opacity:1;fill-rule:evenodd;stroke:none"
         id="path18" /><path
         d="m 122.617,136.707 v 17.445 h -8.051 V 67.3633 h 8.051 v 40.2617 c 0,11.754 0.59,21.984 6.574,30.113 l 3.372,4.235 c 0.691,0.695 1.207,0.949 1.992,1.586 8.984,7.281 23.277,7.632 29.547,0.183 4.375,-5.203 5.937,-14.601 5.937,-24.035 V 67.3633 h 8.055 v 47.4217 c 0,10.074 2.32,16.555 6.636,22.438 4.067,5.543 9.407,10.648 17.961,11.57 22.579,2.434 22.375,-19.074 22.375,-35.352 V 67.3633 h 8.055 v 50.9997 c 0,19.766 -3.961,38.477 -26.844,38.477 -9.711,0 -16.687,-4.594 -22.504,-11.492 -1.89,-2.243 -5.496,-6.828 -6.128,-9.535 h -0.895 c -0.156,1.898 -1.996,6.808 -2.824,8.359 -1.383,2.594 -3.133,4.531 -5.106,6.523 -8.406,8.477 -27.047,7.981 -35.808,-0.222 -7.485,-7.008 -8.375,-11.442 -10.395,-13.766"
         style="fill:#2056ae;fill-opacity:1;fill-rule:evenodd;stroke:none"
         id="path20" /><path
         d="m 289.488,72.2852 c -13.527,0 -20.578,6.9336 -20.578,19.6836 0,12.8752 8.645,17.4612 19.223,20.1482 3.336,0.848 8.703,1.106 12.648,2.117 1.574,0.407 2.129,0.778 3.629,1.286 2.676,0.906 5.106,1.218 7.801,2.043 2.418,0.746 5.086,2.535 7.254,3.039 0,-8.454 1.148,-25.6997 -1.934,-32.0668 -0.64,-1.3164 -0.828,-2.1954 -1.539,-3.3829 -1.746,-2.9179 -7.285,-7.5585 -10.293,-9.3906 -3.105,-1.8867 -11.183,-3.4765 -16.211,-3.4765 z m -25.945,63.0778 c 1.871,-0.5 4.145,-2.906 5.816,-4.023 1.004,3.769 6.95,10.129 10.368,12.445 9.046,6.129 22.367,7.211 31.695,2.328 3.664,-1.922 6.594,-5.191 7.707,-9.742 1.773,-7.223 0.652,-7.523 -5.981,-9.902 -7.273,-2.614 -4.847,-2.242 -13.335,-4.11 -4.567,-1.007 -9.305,-2.39 -13.805,-3.648 -8.828,-2.461 -4.914,-0.848 -12.617,-4.824 -3.082,-1.594 -2.696,-0.903 -4.864,-3.637 -3.222,-4.066 -4.589,-4.508 -6.332,-11.1172 -1.906,-7.2383 -1.691,-11.4258 0.774,-18.4765 3.445,-9.8555 13.738,-15.9766 23.39,-15.9766 14.516,0 17.204,2.1797 27.473,9.207 2.32,1.586 3.527,3.6992 5.633,5.1094 0.609,-7.3398 4.043,-14.3164 12.078,-14.3164 7.137,0 6.262,-0.4336 6.262,6.2617 0,3.4727 -7.512,-1.4805 -9.09,6.5664 -2.473,12.6289 1.238,49.9962 -2.035,60.5972 -0.586,1.911 -1.192,3.77 -2.071,5.54 -8.414,16.921 -37.769,15.82 -48.933,6.875 -4.332,-3.473 -10.852,-10.344 -12.133,-15.157"
         style="fill:#2056ae;fill-opacity:1;fill-rule:evenodd;stroke:none"
         id="path22" /><path
         d="m 567.313,107.625 c 0,12.355 0.835,20.188 7.683,30.344 9.711,14.406 31.836,14.121 40.828,3.406 10.239,-12.203 10.094,-19.949 10.094,-35.535 0,-8.0861 -3.816,-19.1252 -7.715,-23.1564 -2.105,-2.1797 -4.14,-5.3164 -7.859,-7.3516 -7.375,-4.0273 -18.676,-3.7968 -26.043,-0.375 -6.129,2.8477 -12.258,11.5469 -14.594,18.5118 -1.176,3.496 -2.394,9.7422 -2.394,14.1562 z m -8.5,5.816 c 0,-8.277 0.117,-14.4879 2.621,-21.984 2.886,-8.6445 9.308,-18.3867 17.355,-22.4609 8.863,-4.4922 12.254,-4.3164 22.074,-4.3164 4.571,0 11.575,2.6875 14.914,4.7734 1.008,0.625 1.969,1.3242 2.848,2.0742 1.039,0.8868 1.684,1.3672 2.695,2.2227 4.457,3.7695 9.621,13.9922 11.125,19.2969 4.887,17.2301 2.766,34.7851 -7.054,49.3941 -0.911,1.36 -1.289,1.551 -2.219,2.704 -2.336,2.89 -5.09,5.265 -8.344,7.316 -12.582,7.91 -34.328,5.629 -45.668,-8.652 -5.734,-7.219 -10.347,-17.536 -10.347,-30.368"
         style="fill:#2056ae;fill-opacity:1;fill-rule:evenodd;stroke:none"
         id="path24" /><path
         d="m 465.758,111.207 c 0,-10.504 2.633,-22.5625 6.906,-28.8867 4.098,-6.0547 6.641,-9.8789 13.313,-13.5273 3.929,-2.1524 9.535,-4.043 14.226,-4.1172 11.305,-0.1836 16.539,-0.125 26.777,8.1211 5.395,4.3437 4.247,4.789 8,9.8945 0.958,1.3008 2.649,4.7266 2.805,6.5899 -4.43,1.0312 -4.738,2.625 -7.605,2.6875 -1.387,-5.9532 -9.782,-16.0352 -16.383,-18.0665 -7.442,-2.289 -16.844,-2.2148 -23.516,1.4297 -2.019,1.1094 -5.121,3.9375 -6.629,5.8985 -3.398,4.4062 -5.492,6.7851 -7.343,14.1289 -3.403,13.4926 -2.688,32.5546 6.754,44.1716 2.222,2.735 3.351,4.071 6.863,6.114 8.121,4.71 19.273,4.582 27.269,-0.004 1.649,-0.946 2.137,-1.621 3.528,-2.731 5.175,-4.137 7.105,-8.969 9.906,-14.258 l 7.152,3.586 c -1.59,6.844 -9.297,15.973 -15.73,20.051 -9.469,6.004 -26.36,6.047 -35.914,0.277 -2.492,-1.503 -3.789,-2.574 -5.934,-4.359 l -4.793,-5.496 c -6.367,-9.164 -9.652,-19.961 -9.652,-31.504"
         style="fill:#2056ae;fill-opacity:1;fill-rule:evenodd;stroke:none"
         id="path26" /><path
         d="m 371.809,132.234 v 21.918 h -8.055 V 67.3633 h 8.055 v 31.3164 c 0,15.3203 2.379,32.0973 13.3,43.0663 7.223,7.254 13.696,6.195 21.594,4.356 v 9.394 c -7.648,3.668 -18.719,0.313 -24.805,-7.855 -1.902,-2.555 -3.472,-4.614 -5.023,-7.5 l -3.047,-6.352 c -0.687,-1.512 -0.137,-1.398 -2.019,-1.555"
         style="fill:#2056ae;fill-opacity:1;fill-rule:evenodd;stroke:none"
         id="path28" /><path
         d="m 428.625,67.3633 h 8.5 v 86.7887 h -8.5 V 67.3633"
         style="fill:#2056ae;fill-opacity:1;fill-rule:evenodd;stroke:none"
         id="path30" /></g></g></svg>
