<?xml version="1.0" encoding="utf-8"?>
<!-- Generator: Adobe Illustrator 21.0.2, SVG Export Plug-In . SVG Version: 6.00 Build 0)  -->
<svg version="1.1" id="Livello_1" xmlns="http://www.w3.org/2000/svg" xmlns:xlink="http://www.w3.org/1999/xlink" x="0px" y="0px"
	 viewBox="0 0 1190.6 841.9" style="enable-background:new 0 0 1190.6 841.9;" xml:space="preserve">
<style type="text/css">
	.st0{fill:none;}
	.st1{clip-path:url(#SVGID_2_);}
	.st2{clip-path:url(#SVGID_4_);fill:black;}
	.st3{fill:black;}
</style>
<rect x="94.8" y="174.6" class="st0" width="1206.6" height="55.7"/>
<g>
	<defs>
		<polyline id="SVGID_1_" points="96.1,206.6 96.1,61.1 643.9,61.1 643.9,206.6 		"/>
	</defs>
	<clipPath id="SVGID_2_">
		<use xlink:href="#SVGID_1_"  style="overflow:visible;"/>
	</clipPath>
	<g class="st1">
		<defs>
			<polyline id="SVGID_3_" points="643.9,206.6 643.9,61.1 96.1,61.1 96.1,206.6 			"/>
		</defs>
		<clipPath id="SVGID_4_">
			<use xlink:href="#SVGID_3_"  style="overflow:visible;"/>
		</clipPath>
		<path class="st2" d="M182.4,89.6c0-16.1-11.9-25.8-31.9-25.8H96.1v82.5h19.5V116h27.5l20.8,30.3h22.7l-22.6-32.9
			C181,108.2,182.4,94,182.4,89.6 M146.9,101.4h-31.3V78.8H147c13,0,14.9,6.9,14.9,11C161.9,94.2,160,101.4,146.9,101.4"/>
		<polygon class="st2" points="289.4,111.7 348.4,111.7 348.4,96.9 289.4,96.9 289.4,79.2 350.3,79.2 350.3,63.9 269.9,63.9 
			269.9,146.3 351.1,146.3 351.1,131 289.4,131 		"/>
		<path class="st2" d="M536.7,100.4h-52v14.4h33.8c-1,11.2-13.8,19-31.7,19c-20.1,0-33-11.1-33-28.4c0-17.7,12.6-28.7,32.9-28.7
			c15.1,0,26.1,5.8,29.4,15.5l0.4,1.2l20.6-3.6l-0.5-1.6c-5.3-17-23.7-27.1-49.3-27.1c-32.1,0-53.7,17.9-53.7,44.5
			c0,26.1,20,43.6,49.7,43.6c16.3,0,29.3-5.1,37.1-14.4l0.7,11.6h15.5V100.4z"/>
		<rect x="624.3" y="63.9" class="st2" width="19.5" height="82.5"/>
	</g>
</g>
<polygon class="st3" points="103.5,189.3 99.1,189.3 99.1,209.9 118.4,209.9 118.4,206.4 103.5,206.4 "/>
<path class="st3" d="M154.7,189.3l-11,20.6h4.7l2.2-4.4h13.3l2.2,4.4h4.7l-11-20.6H154.7z M152.2,202.5l2.7-5.3
	c1.2-2.3,1.9-3.5,2.4-5.1h0.1c0.5,1.6,1.1,2.8,2.4,5.1l2.7,5.3H152.2z"/>
<path class="st3" d="M215.6,199.1c2.6-0.5,3.9-2.4,3.9-4.6c0-2.8-2-5.3-7.1-5.3h-14.9v20.6h15c5.4,0,7.5-2.6,7.5-5.8
	C220,201.5,218.7,199.6,215.6,199.1 M201.8,192.4h9.7c2.9,0,3.6,1.4,3.6,2.6c0,1.4-0.6,2.9-3.6,2.9h-9.7V192.4z M211.7,206.8h-9.9
	v-5.9h9.9c2.8,0,3.9,1.2,3.9,3C215.6,205.6,214.4,206.8,211.7,206.8"/>
<path class="st3" d="M259.2,188.5c-8.2,0-13.6,4.4-13.6,11c0,6.6,5.4,11,13.6,11c8.2,0,13.7-4.4,13.7-11
	C272.9,193,267.4,188.5,259.2,188.5 M259.2,207.2c-5.4,0-9.1-3.1-9.1-7.7c0-4.6,3.7-7.7,9.1-7.7c5.4,0,9.1,3.1,9.1,7.7
	C268.4,204.2,264.7,207.2,259.2,207.2"/>
<path class="st3" d="M321.5,195.6c0-3-1.8-6.3-7.9-6.3h-13.7v20.6h4.3V202h7.7l5.4,7.8h5l-5.7-8.4
	C320.3,200.6,321.5,197.9,321.5,195.6 M312.7,199h-8.5v-6.6h8.5c3.3,0,4.2,1.7,4.2,3.2C317,197.3,316,199,312.7,199"/>
<path class="st3" d="M358.3,189.3l-11,20.6h4.7l2.2-4.4h13.3l2.2,4.4h4.7l-11-20.6H358.3z M355.7,202.5l2.7-5.3
	c1.2-2.3,1.9-3.5,2.4-5.1h0.1c0.5,1.6,1.1,2.8,2.4,5.1l2.7,5.3H355.7z"/>
<polygon class="st3" points="394.2,192.7 403.4,192.7 403.4,209.9 407.7,209.9 407.7,192.7 416.9,192.7 416.9,189.3 394.2,189.3 "/>
<path class="st3" d="M453.7,188.5c-8.2,0-13.6,4.4-13.6,11c0,6.6,5.4,11,13.6,11c8.2,0,13.7-4.4,13.7-11
	C467.4,193,461.9,188.5,453.7,188.5 M453.7,207.2c-5.4,0-9.1-3.1-9.1-7.7c0-4.6,3.7-7.7,9.1-7.7c5.4,0,9.1,3.1,9.1,7.7
	C462.9,204.2,459.2,207.2,453.7,207.2"/>
<path class="st3" d="M516,195.6c0-3-1.8-6.3-7.9-6.3h-13.7v20.6h4.3V202h7.7l5.4,7.8h5l-5.7-8.4C514.8,200.6,516,197.9,516,195.6
	 M507.2,199h-8.5v-6.6h8.5c3.3,0,4.2,1.7,4.2,3.2C511.5,197.3,510.5,199,507.2,199"/>
<rect x="544.2" y="189.3" class="st3" width="4.3" height="20.6"/>
<polygon class="st3" points="582.1,200.9 597.4,200.9 597.4,197.8 582.1,197.8 582.1,192.5 597.9,192.5 597.9,189.3 577.8,189.3 
	577.8,209.9 598.1,209.9 598.1,206.7 582.1,206.7 "/>
<path class="st3" d="M639.8,197.9l-6.1-0.6c-3.3-0.3-4.3-1-4.3-2.7c0-1.9,2.1-2.9,6-2.9c4.5,0,7.2,1.4,8.6,4l3.3-1.9
	c-2.1-3.6-5.9-5.3-11.8-5.3c-6.8,0-10.6,2.3-10.6,6.3c0,3.6,2.3,5.4,7.2,5.9l6.5,0.6c3.2,0.3,4.4,1.1,4.4,2.8c0,2.1-2,3.1-6.4,3.1
	c-4.9,0-8-1.7-9.4-4.7l-3.6,1.7c1.8,4.1,6.2,6.3,12.8,6.3c7.2,0,11-2.4,11-6.8C647.5,200.2,645.2,198.5,639.8,197.9"/>
<line class="st0" x1="-59" y1="210.6" x2="799" y2="210.6"/>
<line class="st0" x1="799" y1="210.6" x2="-59" y2="210.6"/>
</svg>
