<?xml version="1.0" encoding="UTF-8" standalone="no"?>
<svg
   xmlns:dc="http://purl.org/dc/elements/1.1/"
   xmlns:cc="http://creativecommons.org/ns#"
   xmlns:rdf="http://www.w3.org/1999/02/22-rdf-syntax-ns#"
   xmlns:svg="http://www.w3.org/2000/svg"
   xmlns="http://www.w3.org/2000/svg"
   xmlns:sodipodi="http://sodipodi.sourceforge.net/DTD/sodipodi-0.dtd"
   xmlns:inkscape="http://www.inkscape.org/namespaces/inkscape"
   version="1.1"
   id="svg2"
   xml:space="preserve"
   width="1029.6267"
   height="366.38666"
   viewBox="0 0 1029.6267 366.38666"
   sodipodi:docname="amway-seeklogo.com.eps"><metadata
     id="metadata8"><rdf:RDF><cc:Work
         rdf:about=""><dc:format>image/svg+xml</dc:format><dc:type
           rdf:resource="http://purl.org/dc/dcmitype/StillImage" /></cc:Work></rdf:RDF></metadata><defs
     id="defs6" /><sodipodi:namedview
     pagecolor="#ffffff"
     bordercolor="#666666"
     borderopacity="1"
     objecttolerance="10"
     gridtolerance="10"
     guidetolerance="10"
     inkscape:pageopacity="0"
     inkscape:pageshadow="2"
     inkscape:window-width="640"
     inkscape:window-height="480"
     id="namedview4" /><g
     id="g10"
     inkscape:groupmode="layer"
     inkscape:label="ink_ext_XXXXXX"
     transform="matrix(1.3333333,0,0,-1.3333333,0,366.38667)"><g
       id="g12"
       transform="scale(0.1)"><path
         d="m 125.797,107.23 c 0,0 4275.733,1050.4 7443.683,310.399 l 9.81,34.203 c 0,0 -2764.27,816.298 -7400.384,-177.992"
         style="fill:#ed1a54;fill-opacity:1;fill-rule:nonzero;stroke:none"
         id="path14" /><path
         d="m 2172.54,2168.51 v -174.12 c 15.77,34.86 35.79,82.11 89.52,126.84 58.21,49.71 143.25,77.15 226.14,77.15 42.41,0 84.94,-7.56 127.36,-22.47 132.07,-49.7 170.13,-154.11 185.79,-198.82 103,191.39 266.27,218.66 353.51,218.66 107.34,0 201.39,-39.84 264.05,-101.96 111.85,-109.36 116.29,-228.55 116.29,-527.03 V 880.621 h -328.78 v 609.139 c 0,206.43 -4.48,248.7 -38.09,303.26 -35.79,59.69 -87.32,72.25 -136.59,72.25 -89.43,0 -134.14,-64.66 -140.88,-74.67 -35.88,-62.13 -35.88,-169.07 -35.88,-273.46 V 880.66 h -328.81 v 648.85 c 0,139.24 0,201.41 -33.62,258.63 -24.59,42.17 -73.85,77.13 -134.21,77.13 -29.03,0 -58.2,-7.51 -85.08,-22.52 -96.23,-54.61 -98.42,-149.14 -98.42,-392.83 V 880.621 H 1845.82 V 2168.51"
         style="fill:#22518f;fill-opacity:1;fill-rule:nonzero;stroke:none"
         id="path16" /><path
         d="m 4843.36,2168.51 h 335.5 L 4843.36,880.66 h -306.73 l -194.69,870.08 -192.32,-870.08 h -310.98 l -335.67,1287.85 h 335.67 l 176.77,-805.57 181.2,805.57 h 290.85 l 179.12,-805.57"
         style="fill:#22518f;fill-opacity:1;fill-rule:nonzero;stroke:none"
         id="path18" /><path
         d="m 5869.72,1539.51 c 0,-116.97 -15.68,-228.8 -85.04,-313.36 -58.22,-67.06 -123.09,-72.09 -143.24,-72.09 -64.86,0 -138.71,39.82 -183.52,151.73 -26.76,64.59 -35.77,141.71 -35.77,221.27 0,99.45 13.56,201.41 69.36,283.39 40.23,57.27 102.89,94.43 163.41,94.43 49.17,0 98.44,-24.7 132.02,-64.55 42.45,-47.31 82.78,-134.29 82.78,-300.82 z m 16.91,-658.85 h 322.29 v 1290.28 h -315.58 v -166.53 c -58.09,124.27 -158.79,196.39 -286.37,196.39 -219.22,0 -505.68,-188.99 -505.68,-696.15 0,-402.77 205.78,-651.439 481.05,-651.439 187.95,0 264,109.398 304.24,169.129"
         style="fill:#22518f;fill-opacity:1;fill-rule:nonzero;stroke:none"
         id="path20" /><path
         d="m 6968.51,2168.51 h 334.31 L 6934.91,890.578 c -26.87,-89.5 -69.28,-236.258 -134.24,-308.348 -60.47,-64.648 -132.06,-94.558 -398.32,-94.558 -38.05,0 -53.64,2.609 -87.25,5.027 v 285.949 h 87.25 c 31.37,0 105.17,0 138.7,32.282 26.88,22.468 49.28,77.121 49.28,129.359 0,27.313 -13.49,77.161 -24.64,109.401 l -358,1118.82 h 358 l 210.34,-867.65"
         style="fill:#22518f;fill-opacity:1;fill-rule:nonzero;stroke:none"
         id="path22" /><path
         d="m 1111.2,2253.57 176.55,-677.75 H 944.008 Z M 902.629,2639.92 350.172,880.66 H 755.98 l 103.086,373.75 h 518.114 l 105.49,-373.75 h 408.09 l -575.51,1759.26"
         style="fill:#22518f;fill-opacity:1;fill-rule:nonzero;stroke:none"
         id="path24" /></g></g></svg>
