<?xml version="1.0" encoding="utf-8"?>
<!-- Generator: Adobe Illustrator 25.1.0, SVG Export Plug-In . SVG Version: 6.00 Build 0)  -->
<svg version="1.1"
	 id="svg31" sodipodi:docname="colorbar-seeklogo.com.cdr" xmlns:cc="http://creativecommons.org/ns#" xmlns:dc="http://purl.org/dc/elements/1.1/" xmlns:inkscape="http://www.inkscape.org/namespaces/inkscape" xmlns:rdf="http://www.w3.org/1999/02/22-rdf-syntax-ns#" xmlns:sodipodi="http://sodipodi.sourceforge.net/DTD/sodipodi-0.dtd" xmlns:svg="http://www.w3.org/2000/svg"
	 xmlns="http://www.w3.org/2000/svg" xmlns:xlink="http://www.w3.org/1999/xlink" x="0px" y="0px" viewBox="0 0 432 72"
	 style="enable-background:new 0 0 432 72;" xml:space="preserve">
<style type="text/css">
	.st0{fill-rule:evenodd;clip-rule:evenodd;fill:#1B1918;stroke:#1B1918;stroke-width:0.216;}
	.st1{fill-rule:evenodd;clip-rule:evenodd;fill:#FFFFFF;stroke:#1B1918;stroke-width:0.216;}
</style>
<sodipodi:namedview  bordercolor="#666666" borderopacity="1" gridtolerance="10" guidetolerance="10" id="namedview33" inkscape:pageopacity="0" inkscape:pageshadow="2" inkscape:window-height="480" inkscape:window-width="640" objecttolerance="10" pagecolor="#ffffff">
	</sodipodi:namedview>
<g id="Layer1000">
	<g id="Layer1001">
		<g id="Layer1002">
			<path id="path2" class="st0" d="M80.1,34.4v3.1c0,11,5.5,16.4,16.4,16.4h13.3c11,0,16.4-5.5,16.4-16.4v-3.1
				c0-11-5.5-16.4-16.4-16.4H96.5C85.5,18,80.1,23.5,80.1,34.4z"/>
			<path id="path4" class="st1" d="M87.5,35.1v1.9c0,6.6,3.3,9.9,9.9,9.9h11.5c6.6,0,9.9-3.3,9.9-9.9v-1.9c0-6.6-3.3-9.9-9.9-9.9
				H97.4C90.8,25.1,87.5,28.4,87.5,35.1z"/>
		</g>
		<path id="path7" class="st0" d="M130.9,18h7.9v22.8c0,2.6,2.1,4.7,4.7,4.7h24.8v7.2h-28c-5.2,0-9.4-4.2-9.4-9.4V18z"/>
		<path id="path9" class="st0" d="M222.4,52.7h7.9V29.9c0-2.6,2.1-4.7,4.7-4.7h24.8V18h-28c-5.2,0-9.4,4.2-9.4,9.4L222.4,52.7z"/>
		<path id="path11" class="st0" d="M363.2,52.7h7.9V29.9c0-2.6,2.1-4.7,4.7-4.7h24.8V18h-28c-5.2,0-9.4,4.2-9.4,9.4V52.7z"/>
		<path id="path13" class="st0" d="M74.4,18H43.1c-6.5,0-11.7,5.3-11.7,11.7v10.8c0,6.5,5.3,11.7,11.7,11.7h31.3v-7.3H46.1
			c-3.7,0-6.7-3-6.7-6.7V32c0-3.7,3-6.7,6.7-6.7h28.3V18z"/>
		<g id="Layer1003">
			<path id="path15" class="st0" d="M171.6,34.4v3.1c0,11,5.5,16.4,16.4,16.4h13.3c11,0,16.4-5.5,16.4-16.4v-3.1
				c0-11-5.5-16.4-16.4-16.4H188C177.1,18,171.6,23.5,171.6,34.4z"/>
			<path id="path17" class="st1" d="M179,35.1v1.9c0,6.6,3.3,9.9,9.9,9.9h11.5c6.6,0,9.9-3.3,9.9-9.9v-1.9c0-6.6-3.3-9.9-9.9-9.9
				h-11.5C182.3,25.1,179,28.4,179,35.1z"/>
		</g>
		<path id="path20" class="st0" d="M265.5,18h34.3c4.5,0,8.2,3.7,8.2,8.2v3.2c0,3.2-2.6,5.9-5.9,5.9c3.2,0,5.9,2.6,5.9,5.9v3.2
			c0,4.5-3.7,8.2-8.2,8.2h-34.3V35.3V18z M273,38.6h25c1.3,0,2.3,1.1,2.3,2.3v1.7c0,1.3-1.1,2.3-2.3,2.3h-25V38.6z M273,25.2h25
			c1.3,0,2.3,1.1,2.3,2.3v1.7c0,1.3-1.1,2.3-2.3,2.3h-25V25.2z"/>
		<g id="Layer1004">
			<path id="path22" class="st0" d="M314.7,18l30.4,0c6.5,0,11.7,5.3,11.7,11.7v22.9h-34.2c-5.2,0-9.4-4.2-9.4-9.4v-5.9
				c0-2.2,2.2-6.8,5.4-6.8h30.5c0-3.2-1.7-5.2-5.9-5.2l-28.5,0V18z"/>
			<path id="path24" class="st1" d="M349.6,37.2v8.5h-35.1c3.1,0,4.7-1.6,4.7-4.7v0.9c0-3.1-1.6-4.7-4.7-4.7H349.6z"/>
		</g>
	</g>
</g>
</svg>
