<?xml version="1.0" encoding="UTF-8" standalone="no"?>
<svg
   xmlns:dc="http://purl.org/dc/elements/1.1/"
   xmlns:cc="http://creativecommons.org/ns#"
   xmlns:rdf="http://www.w3.org/1999/02/22-rdf-syntax-ns#"
   xmlns:svg="http://www.w3.org/2000/svg"
   xmlns="http://www.w3.org/2000/svg"
   xmlns:sodipodi="http://sodipodi.sourceforge.net/DTD/sodipodi-0.dtd"
   xmlns:inkscape="http://www.inkscape.org/namespaces/inkscape"
   version="1.1"
   id="svg2"
   xml:space="preserve"
   width="101.33333"
   height="78.666664"
   viewBox="0 0 101.33333 78.666664"
   sodipodi:docname="hindustan-uniliver-limited-seeklogo.com.eps"><metadata
     id="metadata8"><rdf:RDF><cc:Work
         rdf:about=""><dc:format>image/svg+xml</dc:format><dc:type
           rdf:resource="http://purl.org/dc/dcmitype/StillImage" /></cc:Work></rdf:RDF></metadata><defs
     id="defs6" /><sodipodi:namedview
     pagecolor="#ffffff"
     bordercolor="#666666"
     borderopacity="1"
     objecttolerance="10"
     gridtolerance="10"
     guidetolerance="10"
     inkscape:pageopacity="0"
     inkscape:pageshadow="2"
     inkscape:window-width="640"
     inkscape:window-height="480"
     id="namedview4" /><g
     id="g10"
     inkscape:groupmode="layer"
     inkscape:label="ink_ext_XXXXXX"
     transform="matrix(1.3333333,0,0,-1.3333333,0,78.666667)"><g
       id="g12"
       transform="scale(0.1)"><path
         d="m 266.625,199.461 c 4.371,1.34 3.547,-9.106 -0.992,-10.43 -4.86,-1.418 -2.719,9.274 0.992,10.43 z m -85.066,1.336 c 4.777,2.363 4.285,-9.742 -0.946,-11.774 -5.605,-2.168 -2.539,10.059 0.946,11.774 z m -81.161,-2.02 c 1.848,0.981 3.668,1.332 5.934,1.735 1.133,0.191 6.199,1.183 6.906,0.351 0.84,-0.988 -0.308,-12.461 4.817,-15.383 2.23,-1.253 6.039,-1.199 8.144,0.161 1.067,0.691 1.746,1.507 2.61,2.406 0.691,0.687 1.757,2.391 2.504,2.676 1.136,-0.563 1.796,-4.289 4.175,-5.508 3.223,-1.664 5.211,1.32 6.887,2.238 -0.52,-5.367 3.738,-1.445 5.488,0.086 2.231,1.953 8.297,8.516 10.637,8.133 2.246,-0.371 4.332,-7.215 5.754,-9.246 2.883,-4.141 6.598,0.398 8.609,2.961 0.403,-2.242 0.426,-2.91 1.883,-4.004 2.559,-1.926 6.699,-0.125 8.688,1.836 0.714,0.715 2.355,2.984 2.832,3.191 0.972,-0.59 1.953,-4.82 5.402,-5.48 3.309,-0.649 6.145,3.035 7.625,3.179 1.199,-1.132 1.176,-2.929 3.664,-3.156 2.262,-0.219 3.746,0.906 4.762,2.016 0.554,0.621 1.129,1.031 1.656,1.695 1.039,1.281 3.762,4.867 5.289,4.867 1.703,-1.953 0.309,-10.5 5.895,-8.211 1.382,0.567 2.074,1.36 2.925,2.094 1.75,1.516 3.118,3.176 4.649,5.207 l 3.887,5.942 c 2.824,0.394 4.449,-5.922 2.539,-8.208 -2.188,-2.613 -5.34,1.793 -6.383,-1.621 -1.172,-3.914 6.812,-6.609 13.804,-0.769 0.696,0.59 2.661,2.812 3.411,2.898 1.007,-0.961 1.457,-4.609 5.261,-5.91 1.516,-0.527 3.364,-0.234 4.649,0.367 1.644,0.758 1.859,1.657 2.953,2.731 0.32,-0.41 0.633,-1.102 0.957,-1.551 2.266,-3.152 6.766,-1.43 9.098,0.688 0.722,0.66 1.89,2.48 2.468,2.855 0.836,-0.395 1.582,-3.426 3.5,-4.688 2.141,-1.425 4.219,0.063 6.036,1.125 0.632,-0.882 0.5,-3.667 4.746,0.161 2.882,2.597 5.527,5.347 8.64,7.73 2.18,1.66 3.477,1.957 5.028,-0.426 2.23,-3.437 4.589,-15.441 11.328,-5.238 0.84,1.266 2.789,4.731 0.644,5.824 -1.09,0.125 -3.551,-6.746 -6.765,-1.883 -1.418,2.172 -2.25,5.954 -3.188,8.653 -2.461,7.035 -5.074,2.324 -8.492,-2.153 -0.617,-0.828 -1.875,-2.859 -2.938,-3.062 -1.675,0.887 -1.308,5.019 -2.449,6.387 -0.785,0.586 -2.23,-0.34 -2.867,-2.418 -0.449,-1.418 -0.77,-2.887 -1.152,-4.36 -0.25,-1.066 -0.809,-3.574 -1.196,-4.328 -0.437,-0.847 -2.082,-2.238 -3.609,-1.898 -3.328,0.734 -3.496,9.703 -3.766,12.945 -0.089,0.965 -0.429,1.356 -1.132,1.699 -3.036,1.508 -2.758,-1.121 -3.036,-2.027 -1.543,-0.039 -1.937,2.73 -4.964,1.992 -3.215,-0.805 -5.227,-4.957 -6.219,-7.851 -0.672,-1.922 -1.031,-3.692 -2.11,-5.075 -3.214,-4.039 -5.898,0.352 -6.293,4.528 -0.32,3.425 0.586,9.383 1.426,12.535 2.145,0.203 7.703,-0.731 8.188,1.562 0.644,3.129 -5.246,2.176 -7.371,2.352 0.011,2.027 0.933,4.785 0.457,6.809 -0.59,0.414 -1.532,0.945 -2.625,0.812 -1.871,-0.234 -2.328,-6.816 -3.231,-7.473 -1.586,-0.664 -6,0.707 -6.472,-1.718 -0.457,-2.305 4.062,-2.297 5.992,-2.356 0.093,-0.48 -1.199,-8.703 -1.403,-10.094 -0.265,-1.929 -0.359,-2.836 -1.39,-4.246 -0.406,-0.558 -2.215,-2.519 -3.528,-1.968 -0.273,0.644 -0.316,2.613 -0.503,3.496 -0.215,1.175 -0.532,2.218 -1.008,3.199 -1.391,2.859 -6.696,8.781 -9.387,6.027 -0.895,-0.918 0.215,-2.187 -0.211,-3.64 -0.684,-2.27 -3.34,-6.219 -4.769,-7.743 -0.739,-0.769 -3.7,-3.839 -5.399,-1.718 -2.242,2.8 1.207,13.804 -3.336,13.422 -0.867,-0.899 -1.473,-2.473 -2.25,-3.899 -1.367,-2.519 -3.047,-5.359 -5.285,-7.078 -1.043,-0.816 -2.422,-2.285 -4.465,-1.859 -1.765,0.918 1.266,9.199 0.637,11.597 -0.25,0.93 -1.895,1.641 -3.125,1.211 -0.809,-0.562 -1.805,-9.265 -3.211,-12.48 -2.602,-5.969 -5.727,-3.356 -7.231,1.711 -1.96,6.613 -1.453,14.804 -1.164,21.793 0.071,1.66 0.438,2.535 -0.746,3.195 -0.761,0.441 -2.144,0.926 -3.191,0.488 -1.199,-1.34 -1.254,-12.883 -1.731,-15.644 -0.953,-0.192 -1.843,1.082 -3.257,1.07 -3.227,-0.008 -5.618,-3.832 -6.86,-6.648 -1,-2.282 -1.113,-4.793 -2.687,-6.325 -7.43,-7.285 -7.215,12.02 -11.239,12.805 -2.976,0.598 -6.96,-8.633 -9.128,-8.781 -1.575,1.398 -1.34,4.566 -2.364,6.449 -3.859,0.344 -3.402,-7.91 -5.32,-10.652 -2.742,-3.953 -7.941,-4.043 -7.785,2.832 0.051,2.371 1.375,3.703 0.34,7.101 -1.239,4.09 -5.434,2.434 -6.008,-5.89 -0.156,-2.227 -1.578,-3.946 -2.735,-5.211 -1.222,-1.344 -3.5,-2.578 -5.507,-0.817 -3.157,2.742 -2.383,17.446 -1.832,21.153 l 1.511,6.558 c 0.094,2.457 -3.203,2.809 -5.132,1.754 -2.84,-1.562 -2.157,-8.824 -2.989,-13.047 -1.742,-0.722 -11.144,-1.969 -12.957,-1.453 -0.4334,0.938 -0.6912,7.836 -0.8553,9.539 -0.3242,3.285 -0.0508,6.82 -4.5273,5.555 -3.6016,-1.016 -1.711,-3.871 -1.1602,-7.223 0.5078,-3.117 0.7031,-6.41 0.6602,-9.66 -0.0781,-4.914 -0.5117,-9.641 -0.9141,-14.523 -0.168,-1.879 -0.582,-3.168 0.9063,-3.903 1.3086,-0.644 3.2851,-0.394 4.2851,0.324 1.0352,0.75 1.043,2.598 1.1992,4.04 0.3751,3.296 0.2851,6.515 0.5621,9.757 z m 555.586,-3.543 c -1.039,-7.73 -8.898,-9.691 -6.918,-1.265 0.547,2.336 1.973,5.246 3.356,6.301 1.191,0.918 2.82,0.351 3.285,-0.602 0.512,-1.035 0.449,-3.215 0.277,-4.434 z m -24.418,-3.343 c -2.875,2.933 -0.625,9.566 2.289,8.144 1.477,-0.719 1.594,-3.215 1.098,-4.828 -0.473,-1.605 -1.707,-2.988 -3.387,-3.316 z m -86.023,-1.508 c 1.383,-0.949 1.578,-4.192 4.234,-5.453 3.121,-1.492 5.121,1.304 6.797,2.336 -0.824,-8.032 8.629,3.773 11.957,6.703 4.606,4.031 4.434,-0.106 4.227,-4.75 -0.078,-1.59 -0.856,-4.563 1.035,-4.688 1.27,-0.097 2.84,2.035 3.437,2.746 1.356,1.676 4.239,5.645 5.407,6.789 4.156,4.059 4.383,-0.152 4.843,-4.32 0.477,-4.336 1.149,-6.836 5.903,-4.426 3.887,1.957 6.359,4.84 7.121,5.164 1.742,-1.031 1.785,-6.386 6.676,-5.937 4.312,0.383 5.586,5.047 7.179,5.312 1.192,-1.972 2.055,-4.285 5.301,-5.195 3.235,-0.887 6.219,0.941 8.07,2.211 0.731,-0.297 1.54,-1.617 3.637,-2.031 2.969,-0.602 6.641,0.547 9.024,2.238 1.41,1 2.414,2.481 3.343,2.438 0.809,-1.79 0.477,-2.793 1.973,-4.192 1.191,-1.094 3.176,-1.273 5.063,-0.769 4.457,1.168 5.613,5.214 6.863,5.539 0.758,-0.719 2.465,-6.571 7.484,-5.368 1.66,0.395 3.231,1.368 4.199,2.317 1.329,1.273 2.383,2.211 1.227,4.555 -1.344,-0.11 -1.375,-1.586 -3.578,-2.196 -8.137,-2.258 -5.547,26.028 -5.746,28.219 -0.125,1.301 -2.489,2.359 -3.949,1.699 -1.368,-1.097 -1.094,-13.195 -1.829,-15.719 -1.093,0.024 -3.351,3 -7.097,-0.757 -3.614,-3.629 -3.727,-9.024 -7.914,-12.457 -1.653,-1.344 -5.496,-2.68 -7.34,-0.496 l 3.508,2.644 c 0.843,0.676 2.148,2.242 2.675,3.676 2.106,5.746 -4.96,14.457 -11.003,3.648 -2.141,-3.824 -2.008,-6.746 -1.532,-10.492 -4.687,-2.094 -6.976,0.852 -7.582,5.453 -0.293,2.192 0.43,11.727 1.434,13.063 1.344,0.836 7.5,-1.004 8.101,1.586 0.731,3.136 -5.128,2.382 -7.367,2.41 0.18,2.965 1.387,6.469 -0.101,7.234 -0.707,0.356 -1.629,0.5 -2.512,0.285 -1.164,-1.125 -2.004,-5.574 -2.691,-7.445 -2.079,-0.082 -6.286,0.5 -6.59,-1.758 -0.285,-2.133 4.164,-2.176 6.023,-2.222 0.098,-0.36 -1.465,-10.821 -1.695,-11.934 -1.684,-8.098 -8.477,-9.809 -9,-2.059 -0.129,1.914 0.941,3.457 0.613,6.266 -0.219,1.813 -1.086,4.234 -3.262,3.23 -3.136,-1.437 -2.625,-8.05 -3.578,-10.273 -0.64,-1.434 -2.133,-2.769 -3.629,-3.387 -2.683,-1.136 -2.793,1.344 -3.058,3.43 -0.344,2.75 -1.098,9.027 -2.852,11.027 -1.453,1.645 -3.574,-0.578 -4.351,-1.375 -1.7,-1.718 -5.364,-6.816 -7.004,-6.925 -1.688,1.878 -1.614,11.113 -5.629,8.035 -2.742,-2.121 -5.117,-7.625 -6.918,-8.184 -1.828,1.367 -1.25,6.266 -2.547,6.524 -3.121,0.605 -3.516,-8.438 -4.902,-10.516 -0.719,-1.086 -1.899,-2.242 -3.34,-2.676 -2.145,-0.633 -3.488,0.418 -4.059,1.945 -1.484,3.934 1.231,6.825 -0.265,10.766 -1.262,3.34 -4.383,2.117 -5.465,-2.945 -0.856,-4.004 0.429,-5.781 -4.227,-8.117 -2.254,-1.133 -7.555,-2.383 -10.379,-1.524 -1.734,0.535 -1.875,2.067 -2.136,4.051 -0.86,6.23 -0.223,16.164 1.652,22.055 0.617,1.945 0.949,3.422 -1.168,4.129 -1.649,0.554 -3.602,-0.106 -4.465,-1.024 -1.012,-1.047 -1.125,-2.976 -1.437,-4.777 -1.114,-6.539 -2.122,-15.946 -0.954,-22.43 0.305,-1.668 0.739,-3.238 1.567,-4.601 0.89,-1.45 1.672,-1.997 3.957,-2.211 4.703,-0.43 11.109,0.988 15.094,3.273 0.691,0.395 1.324,0.797 1.789,1.211 0.578,0.5 1.097,1.191 1.738,1.422 z m -122.098,1.508 c -2.882,3.55 -0.343,9.398 2.399,8.093 2.535,-1.207 1.285,-7.843 -2.399,-8.093 z m -13.746,23.488 c 1.586,0.883 2.364,-1.371 2.555,-2.77 0.539,-3.98 -0.762,-11.261 -2.52,-14.183 -2.23,-3.68 -2.32,6.597 -2.312,7.828 0.027,2.07 0.137,7.93 2.277,9.125 z m -45.027,-12.793 c -2.586,0.242 -2.914,-2.406 -3.465,-4.566 -0.574,-2.207 -1.102,-4.387 -1.723,-6.461 -0.375,-1.293 -1.937,-5.5 -0.777,-6.454 1.438,-1.207 4.652,2 5.195,2.524 1.743,1.668 6.875,6.449 8.657,7.555 2.449,1.515 3.648,-0.598 4.55,-2.36 0.946,-1.855 1.649,-3.804 2.645,-5.558 4.93,-8.633 7.801,7.191 10.5,3 1.574,-2.438 2.633,-5.672 6.637,-5.575 2.504,0.063 4.437,0.864 6.086,1.95 2.941,1.941 2.921,2.773 5.105,0.742 1.332,-1.238 2.809,-2.727 5.684,-2.563 2.906,0.16 4.05,1.25 6,2.2 1.449,-1.137 2.379,-2.442 5.363,-2.329 2.297,0.094 4.316,0.692 6.035,1.649 4.328,2.394 6.902,7.473 8.156,7.207 1.387,-0.805 1.684,-6.024 4.059,-7.942 3.008,-2.425 6.965,0.864 8.269,2.477 1.813,2.258 3.086,4.606 4.153,7.852 0.66,2.031 2.429,8.824 0.246,10.015 -2.391,1.321 -5.199,-2.117 -4.801,-6.875 0.152,-2.054 0.891,-2.847 0.524,-5.285 -0.247,-1.598 -0.961,-3.48 -1.868,-4.297 -2.687,-2.429 -4.472,4.188 -5.066,6.227 -0.805,2.82 -1.449,7.07 -3.145,9.023 -2.316,0.043 -2.75,-2.762 -3.519,-4.859 -1.336,-3.637 -3.504,-8.344 -6.785,-10.262 -1.793,-1.027 -5.055,-1.406 -6.364,0.274 0.942,0.96 5.024,2.878 6.235,6.351 1.191,3.449 -1.055,8 -3.699,8.625 -4.496,1.078 -8.223,-5.476 -9.016,-9.891 -0.609,-3.503 0.078,-4.14 0.086,-5.949 -3.543,-1.73 -6.531,0.512 -7.914,2.813 -0.742,1.254 0.094,1.965 1.234,4.199 0.672,1.332 1.301,2.719 1.836,4.145 1.965,5.164 3.32,16.3 -0.422,20.031 -3.058,3.07 -6.136,0.445 -7.539,-2.028 -3.383,-5.953 -3.758,-13.562 -2.457,-20.324 0.363,-1.933 1.254,-4.426 1.305,-4.722 0.18,-1.02 -1.777,-2.637 -2.805,-3.219 -3.23,-1.844 -6.832,-0.512 -7.961,2.316 -1.406,3.528 1.403,6.227 -0.41,10.301 -1.105,2.488 -4.238,2.145 -5.402,-3.836 -0.414,-2.129 -0.09,-3.102 -1.051,-4.98 -0.598,-1.164 -1.578,-2.965 -3.336,-2.684 -3.094,0.496 -4.348,8.82 -5.937,12.117 -2.36,4.899 -5.778,-1.672 -8.954,-5.57 -3.203,-3.945 -2.546,1.449 -4.144,4.996 z m -12.086,15.43 c -1.262,-0.434 -2.258,-1.618 -2.66,-3.192 -1.176,-4.625 2.812,-6.406 1.656,-15.562 -0.414,-3.223 -1.246,-6.684 -2.898,-8.926 -3.602,-4.875 -15.887,-6.504 -13.168,16.285 0.238,1.973 1.828,9.223 1.097,10.504 -0.804,1.43 -3.636,-0.078 -4.324,-0.723 -1.008,-0.968 -1.437,-2.476 -1.91,-4.109 -1.738,-6.078 -2.668,-14.613 -0.18,-20.609 1.164,-2.805 3.09,-4.973 5.719,-6.153 2.902,-1.312 7.043,-1.66 10.316,-0.629 9.77,3.055 10.938,16.262 10.399,25.36 -0.164,2.699 -0.559,9.004 -4.047,7.754 z m 110.758,-25.192 c -0.336,1.914 -0.52,3.899 0.25,5.688 1.89,4.441 7.367,0.652 4.086,-3.407 -0.793,-0.996 -2.453,-2.007 -4.336,-2.281 z m 21.586,-0.219 c -2.836,0.219 -1.688,10.083 -3.352,11.141 -2.488,0.531 -2.945,-3.113 -3.562,-4.941 -0.743,-2.227 -1.719,-4.082 -2.879,-5.805 -4.321,-6.324 -10.547,-5.082 -10.606,-2.582 0.942,0.652 2.469,1.121 3.688,1.625 4.765,2.039 6.687,6.293 3.73,10.105 -3.765,4.844 -10.379,1.614 -12.492,-4.683 -2.234,-6.656 0.141,-13.164 7.43,-12.758 6.047,0.336 9.961,5.227 11.996,9.703 0.953,-1.117 1.351,-6.847 2.762,-8.777 3.191,-4.375 5.742,6.847 9.121,12.277 1.011,1.649 4.402,6.445 6.285,3.281 0.844,-1.398 2.25,-1.996 3.933,-1.476 1.418,0.445 2.321,1.98 1.891,3.781 -0.93,3.93 -9.324,5.621 -14.148,-3.058 -1.102,-1.989 -3.168,-7.247 -3.797,-7.833 z m 63.218,26.782 c -4.23,-1.168 -3.464,-8.508 0.961,-7.309 1.477,0.402 2.797,2.102 2.84,4.195 0.028,2.075 -1.636,3.704 -3.801,3.114 z m 55.118,-0.012 c -4.157,-1.098 -3.524,-8.551 1.05,-7.258 1.477,0.403 2.715,2.125 2.766,4.156 0.035,2.114 -1.723,3.657 -3.816,3.102 z m -211.09,0.648 c -4.192,-1.332 -3.215,-8.695 1.312,-7.179 1.399,0.461 2.633,2.277 2.606,4.269 -0.016,1.985 -1.754,3.59 -3.918,2.91 z m -258.262,-0.472 c -4.109,-1.324 -3.187,-8.66 1.324,-7.188 1.332,0.442 2.649,2.235 2.649,4.25 -0.004,2.024 -1.828,3.629 -3.973,2.938"
         style="fill:#1c63b7;fill-opacity:1;fill-rule:evenodd;stroke:none"
         id="path14" /><path
         d="m 308.602,399.039 c 0.5,-0.578 0.757,-0.754 1.617,-1.039 l 4.195,-1.129 c 0.777,-0.25 1.457,-0.355 1.859,-0.965 -0.218,-0.828 -1.097,-1.258 -1.75,-1.691 -0.75,-0.488 -1.441,-0.926 -2.218,-1.395 -9.051,-5.343 0.433,-4.316 1.574,-4.468 2.215,-0.305 3.851,0.214 5.68,-0.747 -0.133,-1.57 -2.524,-3.609 -3.532,-4.917 -1.48,-1.911 -6.172,-6.114 -6.172,-8.547 0,-1.305 2.305,-0.645 2.915,-0.407 2.16,0.871 2.902,1.438 4.695,2.356 1.793,0.887 4.758,2.871 6.476,2.914 0.532,-0.797 0.469,-0.59 0.469,-1.727 0,-2.515 -1.617,-7.675 1.102,-7.675 0.867,0 2.16,1.027 2.769,1.605 3.426,3.168 3.137,3.027 4.028,-3.418 0.152,-1.152 0.23,-1.914 0.488,-2.945 0.144,-0.547 0.191,-0.879 0.449,-1.293 0.707,-1.16 1.567,-1.117 2.266,-0.035 0.328,0.519 0.437,0.828 0.633,1.406 0.832,2.555 1.609,6.223 2.222,7.949 0.235,0.676 0.418,0.762 0.766,1.27 2.133,-0.496 2.332,-3.286 4.222,-3.286 1.629,0 0.817,5.637 2.665,5.637 1.265,0 5.625,-4.086 7.32,-5.375 0.863,-0.656 3.949,-2.601 3.949,-0.262 0,4.391 -4.066,9.032 -4.066,12.532 0,1.449 5.293,-0.766 6.16,-1.043 1.32,-0.446 8.351,-3.125 8.015,0.019 -0.39,3.575 -9.328,9.571 -9.328,12.133 0,1.988 8.461,3.301 8.461,5.012 0,1.93 -10.047,-0.02 -12.773,-1.156 -4.031,-1.688 -2.461,-2.797 0.984,-6.239 1.199,-1.195 3.488,-3.187 3.488,-4.82 0,-1.777 -5.527,0.68 -6.015,0.875 -2.309,0.883 -4.317,1.555 -4.317,-1.027 0,-1.731 1.684,-5.235 2.454,-6.946 0.386,-0.871 0.683,-1.386 0.683,-2.609 -1.254,0.098 -4.285,3.477 -5.484,4.391 -0.43,0.328 -1.543,1.246 -2.196,1.246 -1.792,0 0.247,-6.11 -1.558,-6.11 -1.281,0 -1.922,4.075 -3.453,4.075 -1.739,0 -1.469,-6.872 -3.289,-7.356 -0.797,0.59 -0.785,2.652 -0.778,4.066 0.043,8.563 -3.433,1.399 -5.097,-0.699 -0.641,-0.816 -1.321,-0.687 -1.321,-0.086 0,2.715 1.891,7.524 0.153,7.524 -1.231,0 -2.617,-0.852 -3.539,-1.305 -1.149,-0.578 -2.68,-1.523 -3.821,-1.523 -2.347,0 5.801,5.929 5.801,7.832 0,2.074 -8.773,0.672 -8.551,2.933 0.161,1.758 6.039,3.547 6.039,5.528 0,2.058 -10.773,2.839 -13.972,2.074 -0.906,-0.215 -1,-0.461 -1.367,-1.137"
         style="fill:#1c63b7;fill-opacity:1;fill-rule:evenodd;stroke:none"
         id="path16" /><path
         d="m 390.332,261.875 c 0,3.363 4.383,3.363 4.383,0 0,-2.508 -4.383,-2.508 -4.383,0 z m -21.293,0.477 c -0.273,-1.18 -0.473,-2.274 -1.465,-3.079 -2.402,-1.949 -6.801,-0.976 -7.332,-0.242 l -1.324,3.532 c -0.281,0.539 -0.551,0.968 -0.898,1.441 -0.942,1.234 -2.614,2.984 -4.172,3.355 0.996,-4.257 -1.762,-8.148 -6.891,-8.148 l -3.602,0.16 c 0.18,-0.68 1.915,-2.094 2.575,-2.59 1.004,-0.769 2.054,-1.375 3.359,-1.812 1.27,-0.43 2.805,-0.637 4.402,-0.742 4.305,-0.336 3.84,-1.407 7.118,-3.403 5.613,-3.406 8.359,-3.668 15.121,-3.668 4.746,0 9.582,3.157 10.172,3.289 0.382,-1.656 2.687,-3.121 4.707,-3.121 2.527,0 8.296,0.446 8.296,2.969 0,1.078 -1.48,0.664 -2.195,0.625 -1.265,-0.063 -1.75,-0.195 -2.863,-0.051 -0.524,0.082 -0.953,0.028 -1.465,0.11 -0.434,0.07 -0.797,0.179 -1.281,0.293 -0.598,0.136 -1.703,0.539 -2.278,0.851 -1.531,0.817 -2.363,1.543 -3.425,2.828 -0.5,0.606 -0.868,1.215 -1.219,1.922 -0.559,1.129 -1.18,2.547 -3.09,0.742 -0.465,-0.445 -0.84,-0.742 -1.355,-1.148 -6.821,-5.332 -16.704,-3.914 -17.313,-1.629 3.613,-0.84 8.863,0.059 12.25,1.516 5.418,2.339 6.473,5.836 8.57,5.836 1.555,0 1.829,-0.989 2.5,-2.344 0.528,-1.035 0.997,-1.961 1.766,-2.774 2.875,-3.097 7.547,-5.324 10.156,-0.05 0.797,1.644 1.09,3.878 1.86,5.48 0.343,-0.027 0.996,-0.395 1.816,0.223 0.445,0.332 0.535,0.742 0.535,1.187 0,1.25 -1.371,1.403 -1.769,2.309 -0.789,1.789 0.172,2.711 -2.141,2.711 -0.672,0 -0.965,-0.989 -1.098,-1.571 -3.921,0.907 -5.351,1.602 -9.55,0.625 -0.832,0.563 -3.063,3.364 -6.11,4.071 -0.109,-1.383 -0.953,-3 -1.566,-3.91 -0.824,-1.266 -1.469,-1.903 -2.637,-2.844 -1.051,-0.84 -2.14,-1.414 -3.543,-1.949 -1.121,-0.434 -3.18,-1 -4.621,-1"
         style="fill:#1c63b7;fill-opacity:1;fill-rule:evenodd;stroke:none"
         id="path18" /><path
         d="m 427.754,351.438 v 0.472 c 1.219,0 1.375,-0.336 2.746,-2.105 0.367,-0.465 0.582,-0.805 1.066,-1.129 0.618,-0.41 0.934,-0.332 1.512,-0.055 0.703,0.719 -0.555,4.234 0.793,3.488 0.41,-0.226 1.035,-1.918 1.469,-2.644 0.461,-0.789 1.043,-1.77 1.926,-2.145 0.285,-0.132 0.66,-0.265 0.976,-0.105 0.469,0.164 0.16,-0.231 0.477,0.469 0.125,0.285 0.125,0.543 0.144,0.937 0.051,0.637 0.008,1.57 0.633,1.57 0.734,0 0.703,-0.976 0.824,-1.683 0.539,-3.211 3.203,-2.817 3.246,-4.582 -2.054,-0.473 -3.066,1.273 -5.523,-1.215 -0.402,-0.418 -2.148,-2.254 -2.148,-0.664 0,1.305 1.578,1.848 1.875,3.129 -1.625,2.418 -5.672,-2.418 -7.989,-1.891 0,1.684 2.172,1.942 2.043,2.985 -0.23,2.046 -5.379,-0.633 -6.73,0.785 0.215,0.808 0.894,0.797 1.75,0.906 1.039,0.141 1.449,0.215 2.008,0.812 -0.094,1.125 -1.098,1.836 -1.098,2.665 z m -7.356,4.542 c 0,-6.101 3.047,-13.164 8.082,-15.714 8.493,-4.286 16.458,0.836 17.75,0.836 4.641,0 10.106,-6.407 4.993,-13.286 -0.27,-0.351 -1.078,-1.277 -1.395,-1.277 -1.215,0 -2.035,1.625 -2.035,3.129 0,1.887 1.754,8.305 0.477,8.305 -1.028,0 -3.481,-1.891 -4.04,-2.551 -2.597,-3.129 -3.113,-5.871 0.473,-8.524 1.402,-1.039 2.645,-1.578 4.184,-2.39 -0.063,-0.235 -2.559,-4.508 -3.328,-6.528 l -0.422,-0.992 c -0.039,1.746 -4.258,12.543 -5.469,14.571 -1.125,1.875 -2.332,3.015 -4.5,3.656 -0.949,0.277 -2.367,0.57 -3.496,0.57 0.105,-0.23 0.16,-0.41 0.281,-0.652 l 1.277,-1.86 c 3.403,-4.453 10.813,-10.921 10.532,-17.785 -0.012,-0.32 -0.043,-0.64 -0.043,-0.996 -0.957,1.375 -1.321,6.164 -8.739,12.067 l -2.718,2.457 c -2.586,2.964 -2.004,8.011 -6.699,9.113 1.636,-3.098 -2.821,-8.145 0.957,-10.941 1.101,-0.821 2.027,-1.051 3.527,-1.481 4.156,-1.207 6.441,-1.828 9.133,-5.894 1.527,-2.297 2.324,-4.098 3.336,-6.68 0.32,-0.817 1.132,-3.137 1.203,-3.973 h 0.312 c 0.106,0.461 1.489,2.871 1.821,3.356 1.011,1.488 1.656,2.129 3.511,2.129 2.137,0 2.192,-3.102 2.192,-4.54 1.519,0.411 4.226,5.344 4.226,8.141 0,1.18 0.035,2.875 -1.652,3.219 -1.504,0.297 -2.688,-1.223 -3.715,-2.238 -0.961,-0.961 -1.598,-2.286 -3.398,-2.704 1.433,6.157 8.453,10.735 8.453,16.594 0,5.02 -2.906,8.024 -6.336,10.117 -3.75,2.305 -1.996,1.114 -4.903,4.969 l -3.82,4.309 c -3.906,3.164 -6.246,3.187 -11.547,2.679 -2.343,-0.238 -5.109,-0.711 -7.543,0.789 -0.984,0.602 -0.922,0.571 -0.922,0"
         style="fill:#1c63b7;fill-opacity:1;fill-rule:evenodd;stroke:none"
         id="path20" /><path
         d="m 408.016,388.395 2.504,-0.957 c 0.55,-0.208 0.48,-0.047 0.64,-0.61 -1,-0.234 -2.148,-0.39 -3.144,-0.629 0.035,-1.191 0.996,-1.605 1.101,-2.812 -0.828,0.07 -2.133,0.773 -2.652,0.773 -1.07,0 -1.356,-2.035 -2.512,-2.351 l -0.191,3.136 c -0.922,0.223 -1.922,0.157 -3.098,0.157 0.289,1.261 1.156,0.953 2.188,2.503 -0.313,1.344 -1.836,1.372 -2.188,2.661 1.238,0 1.781,-0.149 2.977,-0.149 0.808,1.207 0.629,2.145 1.093,3.125 0.418,-0.148 0.258,0.043 0.528,-0.566 0.261,-0.578 0.82,-2.41 1.355,-2.41 1.063,0 1.574,0.789 2.813,0.789 -0.262,-1.145 -1.313,-1.504 -1.414,-2.66 z m 1.101,5.476 c -1.898,0 -1.199,3.609 4.703,3.609 2.84,0 5.403,-1.25 6.641,-2.91 3.004,-4.019 3.109,-10.82 0.109,-14.5 -2.562,-3.168 -7.265,-3.906 -10.824,-2.332 -0.734,0.332 -2.348,1.246 -2.348,2.192 0,0.359 0.051,0.187 0.157,0.636 1.191,0.313 1.769,-0.179 3.289,-0.953 6.32,-3.172 -0.84,4.075 2.765,3.578 1.774,-0.238 4.911,-1.187 4.911,-0.121 0,1.848 -3.567,3.043 -3.606,4.7 l 3.801,1.675 c 0.473,0.293 0.691,0.453 0.742,1.137 -1.297,0.617 -3.617,0.328 -6.269,0.941 0.031,1.497 2.238,3.45 0.632,3.45 -0.965,0 -3.308,-1.102 -4.703,-1.102 z m -7.508,2.516 c -2.488,0.578 -4.671,2.804 -6.734,2.804 0,-2.363 3.441,-5.16 3.441,-6.566 0,-1.219 -3.441,-1.934 -3.441,-2.824 0,-1.344 4.434,-1.496 3.555,-3.551 -0.703,-1.637 -3.68,-1.914 -3.715,-3.805 0.441,-0.101 0.461,-0.191 0.828,-0.265 0.285,-0.067 0.965,-0.137 1.102,-0.168 0.453,-0.051 1.843,-0.016 1.859,-0.754 l 0.027,-0.293 c -0.203,-1.328 -3.789,-6.352 -2.558,-6.352 0.894,0 2.09,1.321 2.722,1.813 2.114,1.652 2.926,3.242 3.496,-0.137 0.161,-0.961 0.133,-1.59 0.512,-2.305 1.25,0.106 2.004,2.664 2.66,2.664 1.075,0 4.367,-2.968 8.141,-2.968 2.648,0 4.379,0.078 6.738,1.242 11.363,5.609 9.528,22.508 -2.656,24.914 -7.078,1.406 -8.887,-1.422 -12.07,-1.422 -0.758,0 -1.68,2.035 -2.664,2.035 -1.192,0 -0.164,-2.465 -1.243,-4.062"
         style="fill:#1c63b7;fill-opacity:1;fill-rule:evenodd;stroke:none"
         id="path22" /><path
         d="m 318.934,322.309 -0.18,0.152 c -1.426,1.375 0.805,5.684 0.805,10.504 0,1.226 -2.176,3.598 -3.743,-4.238 -0.347,-1.75 -0.496,-5.188 -1.89,-6.418 -0.949,0.496 -1.098,0.902 -1.098,2.668 0,2.75 0.781,5.796 -0.629,5.796 -1.269,0 -2.156,-3.687 -2.433,-5.085 -0.891,-4.391 -0.957,-10.227 -0.09,-14.668 1.926,-9.739 6.906,-0.219 6.906,1.585 0,1.024 -2.394,3.188 -1,5.704 1.324,2.39 3.145,-0.711 3.621,-1.2 2.348,-2.437 2.981,-2.777 -0.34,-7.57 -3.074,-4.445 -6.355,-8.691 -6.355,-14.781 0,-7.192 3.09,-10.61 8.023,-13.895 0.75,-0.504 1.375,-1.168 1.852,-1.293 0.351,1.524 2.59,4.168 -0.43,7.879 -2.375,2.922 -6.308,4.754 -6.308,9.031 0,1.34 0.691,4.016 1.406,4.54 0.156,-0.657 0.449,-1.004 0.844,-1.508 1.062,-1.34 3.558,-1.782 5.421,-1.782 -0.269,1.016 -2.351,1.598 -2.351,5.016 0,3.586 4.105,10.559 5.539,13.414 1.363,2.711 4.793,10.539 4.793,14.145 0,1.621 -1.621,3.718 -3.184,-1.047 -0.406,-1.231 -0.828,-2.453 -1.343,-3.504 -0.668,-1.348 -1.629,-3.426 -2.629,-4.582 -0.821,-0.945 -1.297,-1.004 -1.297,0.207 0,1.379 1.336,4.851 1.781,6.199 0.48,1.445 1.664,4.699 1.664,6.324 0,0.852 -1.184,3.578 -3.172,-1.05 -1.234,-2.86 -1.664,-5.039 -2.48,-7.227 -0.422,-1.109 -0.77,-2.672 -1.703,-3.316"
         style="fill:#1c63b7;fill-opacity:1;fill-rule:evenodd;stroke:none"
         id="path24" /><path
         d="m 381.723,288.965 c 0,-3.238 0.043,-5.309 1.566,-8.301 1.649,-3.281 4.074,-6.301 7.578,-7.762 6.258,-2.609 13.309,-1.933 18.145,2.887 2.078,2.051 4.34,6.106 4.34,10.199 -0.688,-0.179 -0.477,-0.484 -1.977,-1.004 -5.184,-1.793 -11.883,-1.828 -16.57,1.411 -0.992,0.687 -1.356,1.261 -2.278,1.472 -0.629,-0.535 -0.937,-0.867 -0.941,-2.027 -0.008,-1.969 -0.223,-1.094 -1.723,-1.094 -1.117,0 -0.687,-5.019 6.11,-5.019 4.347,0 7.043,3.019 7.043,0.777 0,-0.824 -0.868,-1.363 -0.516,-1.902 0.48,-0.727 1.77,0.128 1.77,-1.075 0,-2.5 -8.157,-3.789 -13.372,-0.214 -2.511,1.703 -4.168,4.246 -4.168,7.574 0,8.039 10.504,5.273 9.024,9.176 -0.277,0.742 -0.797,1.085 -1.664,1.164 1.883,2.824 6.422,0.289 7.957,1.906 1.531,1.594 -0.781,3.062 -2.789,3.113 0.508,1.914 3.91,0.469 3.91,2.5 0,0.934 -2.184,1.606 -3.148,1.703 -4.485,0.449 -9.579,-1.144 -12.54,-4.004 -1.332,-1.277 -2.41,-2.379 -3.378,-3.988 -1.043,-1.723 -2.379,-4.812 -2.379,-7.492"
         style="fill:#1c63b7;fill-opacity:1;fill-rule:evenodd;stroke:none"
         id="path26" /><path
         d="m 439.328,379.93 c 0.617,0.429 2.067,0.48 3.617,1.258 1.141,0.566 2.125,1.121 3.078,1.925 1.907,1.61 3.028,4.16 3.028,6.844 1.254,-0.602 2.347,-1.394 2.347,-3.441 0,-2.727 -2.015,-4.422 -3.96,-5.282 -2.286,-1.031 -4.856,-1.304 -8.11,-1.304 z m 9.402,16.914 c 0,0.691 0.645,1.414 1.25,1.414 1.36,0 1.915,-1.399 1.204,-2.289 -0.77,-0.942 -2.454,-0.406 -2.454,0.875 z m -2.656,-0.149 c 0,-1.367 1.242,-7.832 -1.578,-7.832 -4.785,0 -1.25,5.571 -1.25,7.668 0,4.207 -8.469,3.52 -11.598,2.996 l -3.3,-0.765 c -0.602,-0.215 -0.602,-0.114 -0.754,-0.66 0.785,-1.067 3.644,-0.262 8.211,-3.692 0.8,-0.594 1.515,-1.246 1.965,-2.109 -2.192,0 -7.34,-0.938 -8.141,-2.035 1.121,-1.512 9.699,-1.719 9.699,-6.262 0,-1.219 -1.023,-2.5 -2.18,-2.5 -3.277,0 -3.484,0.801 -5.589,2.707 -2.075,1.863 -1.024,-1.75 -0.973,-2.703 0.059,-0.891 0.059,-1.719 -0.422,-2.57 -0.316,-0.547 -1.07,-1.219 -1.59,-1.543 -0.359,-0.219 -0.629,-0.336 -1.031,-0.536 -0.566,-0.269 -0.727,-0.238 -0.883,-0.836 0.524,-0.73 2.852,-0.636 4.313,-0.851 5.566,-0.797 13.675,0.051 17.914,2.246 5.84,3.055 6.883,8.691 5.363,14.605 -0.465,1.801 -1.992,4.778 0.328,6.813 0.434,0.383 0.367,0.137 0.731,0.672 -2.137,0 -4.153,1.168 -5.832,0.832 -2.047,-0.41 -3.403,-1.86 -3.403,-3.645"
         style="fill:#1c63b7;fill-opacity:1;fill-rule:evenodd;stroke:none"
         id="path28" /><path
         d="m 348.992,341.578 c -0.679,0.777 -3.609,7.672 -8.137,7.672 -3.593,0 -3.82,-3.988 -3.289,-6.262 0.481,0.352 0.473,1.18 2.481,1.145 2.711,-0.043 5.715,-2.258 7.07,-4.278 -2.32,0.54 -7.035,1.313 -9.246,0.153 -2.465,-1.278 -4.027,-4.852 -3.746,-7.043 l 0.469,-1.563 c 0.136,1.672 3.125,3.832 4.449,4.621 2.258,1.352 4.715,1.641 7.449,1.641 -0.285,-1.043 -1.5,-0.871 -2.082,-5.601 -0.125,-1.024 0.121,-1.579 -1.055,-1.606 0,-2.578 1.418,-4.238 1.418,-6.266 0,-0.921 -0.476,-0.578 -0.476,-1.406 0,-2.301 2.344,-3.504 2.344,-5.637 0,-0.828 -0.711,-1.07 1.707,-3.003 2.355,-1.879 1.312,-2.633 2.84,-2.633 0.886,0 2.355,1.156 2.355,2.035 0,0.867 -0.984,1.391 -1.449,2.16 -0.324,0.504 -1.004,1.875 -1.059,2.539 -1.586,0.129 -1.316,1.746 -1.613,3.867 -0.055,0.457 -0.25,1.032 -0.27,1.614 -1.175,0.554 -1.093,0.277 -1.093,2.347 0,1.668 0.312,2.625 0.312,4.383 -1.879,0.496 0.262,3.445 0.891,4.582 0.328,0.617 0.402,1.121 0.672,1.684 1.359,-0.364 3.914,-3.793 3.914,-6.11 0,-2.656 -0.164,-2.101 -0.305,-3.914 2.059,0.477 6.098,3.274 6.098,6.418 0,4.113 -4.11,4.801 -7.047,5.488 0.039,0.016 0.082,0.086 0.101,0.063 l 1.192,0.375 c 2.781,0.664 6.293,1.07 8.89,-0.125 0.903,-0.422 2.008,-1.551 2.036,-2.824 0.531,0.136 0.542,0.273 1.019,1.476 0.957,2.344 0.453,4.629 -1.543,5.825 -3.676,2.175 -7.82,0.191 -11.121,-1.774 -0.68,-0.41 -1.141,-0.777 -1.82,-1.133 0.234,0.992 1.648,3.492 2.816,4.223 0.641,0.41 1.172,0.309 2.191,0.309 -0.5,1.046 -0.578,1.82 -1.765,3.101 -2.633,2.828 -4.735,2.692 -5.313,-1.355 -0.175,-1.297 -0.285,-3.707 -0.285,-5.188"
         style="fill:#1c63b7;fill-opacity:1;fill-rule:evenodd;stroke:none"
         id="path30" /><path
         d="m 331.617,279.883 c 0,-2.539 0.477,-4.27 1.852,-6.137 2.297,-3.09 6.551,-4.691 9.918,-3.43 3.449,1.282 3.918,6 1.195,8.758 -1.328,1.324 -2.043,1.903 -4.191,1.903 -0.379,0 -0.801,-0.176 -1.036,-0.379 -1.117,-0.895 -0.972,-4.16 4.165,-4.16 0.418,0 0.425,0.078 0.777,0.16 0.094,-1.059 0.203,-1.313 -0.66,-2 -1.953,-1.543 -6.91,-0.399 -7.836,3.367 -1.828,7.515 12.097,7.082 12.097,-4.344 0,-9.898 -18.632,-7.379 -18.632,5.949 0,1.321 -0.024,3.504 0.472,4.539 -2.375,-0.05 -5.011,-4.289 -5.011,-7.351 0,-3.102 0.281,-3.938 1.714,-6.586 0.879,-1.613 1.903,-2.77 3.168,-4.024 2.293,-2.273 6.575,-4.273 9.996,-4.273 5.086,0 8.379,0.836 10.598,5.535 2.262,4.785 -0.09,13.992 -5.594,17.168 -2.535,1.457 -3.754,1.563 -6.578,1.563 -3.125,0 -6.414,-3.094 -6.414,-6.258"
         style="fill:#1c63b7;fill-opacity:1;fill-rule:evenodd;stroke:none"
         id="path32" /><path
         d="m 435.277,290.531 c 4.418,0 7.485,-5.644 2.34,-5.644 -4.359,0 -4.808,5.644 -2.34,5.644 z m -20.05,-8.621 c 0,-1.613 0.746,-3.746 1.882,-3.746 3.184,0 8.321,5.418 10.836,7.949 0.637,0.629 0.774,0.817 2,0.817 0.258,-1.141 0.563,-1.856 -0.972,-3.407 -2.157,-2.16 -3.578,-2.882 -5.625,-4.558 L 422,277.813 c -1.156,-1.11 -1.32,-1.844 -0.434,-3.012 0.743,-0.957 2.129,-2 3.235,-2.41 3.969,-1.489 5.265,0.148 7.535,2.441 1.691,1.727 3.594,5.398 4.812,6.461 1.082,-0.254 0.942,-0.539 0.942,-1.566 0,-2.012 -2.606,-5.352 -3.848,-6.332 -2.219,-1.707 -1.969,-1.707 -4.719,-2.957 -3.078,-1.395 0.129,-4.485 1.52,-4.485 0.937,0 3.566,2.223 4.27,2.926 4.703,4.734 10.171,11.035 7.273,18.32 -0.66,1.664 -1.719,3.004 -3.176,4.031 -0.547,0.379 -0.949,0.641 -1.586,0.907 -3.136,1.351 -7.351,1.359 -9.879,-1.012 -3.875,-3.637 -3.011,-5.551 -10.476,-7.695 -0.559,-0.157 -2.242,-0.532 -2.242,-1.52"
         style="fill:#1c63b7;fill-opacity:1;fill-rule:evenodd;stroke:none"
         id="path34" /><path
         d="m 356.355,354.57 c -0.882,0.762 -1.011,2.645 -0.875,3.043 0.079,0.219 1.079,2.039 2.133,2.121 0.77,-1.468 0.035,-4.3 -1.258,-5.164 z m -6.105,1.723 c -1.77,0 0.035,6.883 1.727,6.883 1.378,0 1.093,-3.309 1.093,-4.223 0,-0.629 -2.172,-2.66 -2.82,-2.66 z m 9.234,-5.008 c -1.578,0 0.219,6.192 0.34,6.547 0.289,0.863 0.457,1.305 0.871,2.117 0.34,0.696 0.547,1.438 1.45,1.504 0.96,-1.996 -1.047,-10.168 -2.661,-10.168 z m -13.933,3.129 c -0.649,0 -0.625,0.094 -0.625,0.781 0,2.496 2.469,12.059 4.066,12.059 1.379,0 -0.367,-5.852 -0.621,-6.891 -0.312,-1.269 -1.656,-5.949 -2.82,-5.949 z m -5.793,9.395 c 4.133,2.765 4.5,-0.301 3.719,-3.567 -0.895,-3.765 -3.43,-4.215 -4.368,-2.726 -0.933,1.468 -0.101,3.789 -1.695,3.789 -1.859,0 -3.305,-10.176 5.789,-10.176 2.813,0 5.504,1.078 7.305,2.555 0.422,0.324 0.742,0.55 1.113,0.918 0.66,0.652 1.348,1.523 2.07,2 0,-2.582 2.52,-9.235 7.211,-9.235 3.121,0 5.118,2.582 5.161,4.86 -0.465,-0.122 -2.661,-1.801 -2.661,2.031 0,1.41 0.403,4.535 1.563,4.535 0.828,0 0.769,-1.27 0.867,-2.094 0.188,-1.293 -0.207,-1.676 0.699,-2.285 0.621,0.168 0.75,0.57 0.903,1.117 1.132,3.727 0.019,9.844 -5.129,9.844 -1.782,0 -3.18,-0.941 -4.379,-1.883 -1.457,-1.121 -2.051,-2.383 -2.985,-3.437 0,0.871 0.223,1.054 0.145,1.84 -0.258,2.695 -1.012,5.636 -3.395,7.121 -2.933,1.832 -6.949,1.144 -9.086,-0.86 -1.203,-1.133 -2.414,-2.508 -2.847,-4.347"
         style="fill:#1c63b7;fill-opacity:1;fill-rule:evenodd;stroke:none"
         id="path36" /><path
         d="m 395.34,326.074 c 0,-2.562 1.914,-4.261 3.601,-5.172 0.895,-0.476 1.93,-1.023 2.793,-1.586 3.692,-2.402 1.407,-6.183 -0.879,-3.855 -0.503,0.523 -0.523,0.789 -1.195,1.32 -1.82,1.407 -3.687,1.246 -3.941,-1.57 -0.141,-1.488 0.922,-4.371 -0.442,-6.613 -0.402,-0.668 -1.172,-1.125 -1.343,-1.774 2.136,0 4.597,1.192 5.82,2.153 2.226,1.773 2.598,3.945 4.516,3.945 1.789,0 -1.102,-3.098 -1.102,-4.699 0,-4.266 8.293,-4.356 6.164,-0.403 -0.852,1.567 -2.086,2.223 -2.086,4.004 0,1.258 4.852,0.699 4.852,0 0,-0.824 -1.793,-2.976 -0.473,-2.976 2.43,0 4.957,0.547 7.07,1.382 2.684,1.075 1.563,2.25 -1.566,4.75 -5.926,4.723 -4.723,2.133 -4.723,0.137 0,-1.195 -2.652,-0.785 -3.593,-0.316 -0.622,0.316 -0.977,0.707 -1.141,1.527 -0.945,4.199 7.281,3.238 8.183,7.082 -0.609,0.145 -1.32,0.149 -1.886,0.305 -0.504,0.144 -1.125,0.426 -1.571,0.633 -1.14,0.57 -4.921,2.722 -5.816,-0.118 -0.719,-2.296 1.254,-5.207 -1.219,-5.207 -2.144,0 0.719,6.075 -1.754,8.586 -1.875,1.891 -5.918,1.871 -5.918,5.036 h -0.32 c -0.203,-0.875 -2.031,-3.594 -2.031,-6.571"
         style="fill:#1c63b7;fill-opacity:1;fill-rule:evenodd;stroke:none"
         id="path38" /><path
         d="m 363.402,330.773 c 0,-5.128 -8.617,-6.07 -8.617,-10.488 0,-4.383 8.305,-5.879 8.305,-8.617 0,-1.277 -2.176,-0.789 -3.512,0.086 -0.371,0.258 -0.582,0.387 -0.941,0.633 -0.504,0.351 -0.492,0.551 -1.024,0.695 -0.457,-0.309 -0.761,-0.777 -1.129,-1.238 -3.129,-3.938 -2.242,-9.965 1.899,-13.168 2.879,-2.219 7.293,-3.809 10.496,-2.656 0.383,0.136 0.144,0.043 0.312,0.148 -1.683,0.395 -2.886,0.766 -4.007,2.242 -3.754,4.973 3.074,9.899 3.074,13.414 0,3.739 -4.391,3.801 -4.391,7.047 0,2.484 7.531,6.399 2.16,12.18 -0.675,0.719 -2.41,2.304 -3.406,2.543 0.336,-0.645 0.781,-1.856 0.781,-2.821"
         style="fill:#1c63b7;fill-opacity:1;fill-rule:evenodd;stroke:none"
         id="path40" /><path
         d="m 375.297,293.191 c 1.937,0 0.555,-3.613 -0.981,-5.437 -0.558,-0.656 -2.832,-2.68 -3.906,-1.809 -0.601,0.489 -0.125,1.914 -0.125,2.707 0.035,3.114 1.371,1.809 3.988,3.848 0.325,0.246 0.704,0.691 1.024,0.691 z m -7.824,9.243 c 0,-4.309 5.168,-3.739 5.168,-6.743 0,-3 -8.578,-3.699 -12.844,-1.566 -3.367,1.695 -2.871,3.293 -4.703,3.293 -1.324,0 -1.246,-2.984 -1.246,-3.918 0,-3.039 2.07,-6.051 4.027,-8.02 5.477,-5.503 16.273,-4.636 20.191,2.598 1.262,2.336 1.301,3.867 1.301,6.363 0,5.93 -6.043,6.356 -8.164,8.278 -0.758,0.691 -1.695,2.511 -1.695,3.937 -0.496,-0.129 -0.559,-0.414 -0.781,-0.781 -0.207,-0.355 -0.387,-0.605 -0.571,-0.996 -0.34,-0.637 -0.683,-1.543 -0.683,-2.445"
         style="fill:#1c63b7;fill-opacity:1;fill-rule:evenodd;stroke:none"
         id="path42" /><path
         d="m 419.457,319.965 c -2.508,-0.578 -2.461,-0.024 -3.602,-0.629 0.379,-1.418 4.739,-2.574 6.754,-5.301 0.895,-1.187 1.27,-3.101 0.25,-4.519 -1.425,-1.989 -4.113,-3.176 -6.519,-3.657 -1.481,-0.289 -2.754,-0.218 -2.836,-1.23 0.418,-0.102 0.48,-0.18 0.82,-0.277 1.219,-0.387 2.989,-0.446 2.797,-1.321 -0.183,-0.89 -3.469,-4.855 0.07,-2.73 4.067,2.449 1.864,-1.375 3.829,-2.41 1.343,2.007 -0.29,5.492 2.261,8.863 2.492,3.309 4.004,1.273 4.004,-2.762 0,-2.824 -2.039,-5.34 -2.039,-7.039 0,-1.527 2.137,1.414 3.133,1.414 0.988,0 3.445,-5.262 3.445,-2.199 0,3.484 -1.371,3.676 1.379,3.934 0.766,0.082 1.293,0.132 1.91,0.453 -0.66,0.988 -2.625,1.336 -4.273,2.925 -3.137,3.036 -3.074,6.161 -1.836,6.161 4.824,0 5.601,-5.571 7.359,-6.743 1.137,1.696 -0.238,3.758 1.098,3.758 1.98,0 1.82,-0.14 3.598,0 -0.18,0.68 -0.907,0.992 -1.715,1.414 -2.051,1.055 -2.215,1.266 -0.817,3.145 0.407,0.547 0.946,0.996 0.969,1.867 -1.586,0 -2.668,-1.156 -5.332,-1.723 -6.586,-1.379 -6.152,2.465 -1.969,3.856 1.871,0.625 3.942,0.414 4.641,1.473 -0.68,0.91 -2.941,0.558 -3.223,1.312 -0.211,0.563 2.985,5.754 -0.328,3.016 -3.414,-2.828 -2.805,1.293 -4.433,1.293 -1.055,0 -0.153,-1.719 -0.153,-4.379 0,-1.325 0.121,-4.43 -1.824,-4.922 -1.547,-0.403 -2.094,1.633 -2.094,3.203 0,2.781 1.508,4.609 0.942,7.039 -1.063,0 -1.086,-0.363 -1.692,-0.977 -0.367,-0.375 -1.008,-1.214 -1.597,-1.214 -0.868,0 -3.039,5.332 -2.985,1.097 0.008,-0.726 0.008,-1.457 0.008,-2.191"
         style="fill:#1c63b7;fill-opacity:1;fill-rule:evenodd;stroke:none"
         id="path44" /><path
         d="m 334.277,323.25 z m 0,0 c 0,-5.902 0.434,-5.211 1.934,-10.27 0.457,-1.546 0.879,-3.328 0.727,-5.382 -0.067,-0.926 -0.504,-1.688 -1.29,-1.86 -1.589,-0.332 -1.355,0.61 -2,1.086 -1.773,-1.304 0.344,-5.984 4.176,-4.336 5.11,2.203 -0.027,12.008 -1.004,15.629 -0.718,2.625 -1.019,5.328 -0.14,8.059 l 0.414,0.992 c 0.156,-0.672 0.168,-1.605 0.269,-2.234 0.133,-0.934 0.211,-1.395 0.418,-2.246 2,-7.969 6.477,-11.989 8.606,-17.395 0.554,-1.418 0.676,-2.98 -0.735,-3.594 -1.242,-0.535 -2.761,0.094 -2.761,2.141 -0.657,-0.055 -0.879,-0.387 -1.149,-0.887 -2.187,-3.937 3.36,-7.926 6.895,-5.023 4.332,3.55 1.004,8.312 -1.117,11.488 -2.516,3.781 -4.383,6.02 -6.504,10.234 -2.063,4.075 -2.848,9.157 -0.473,13.629 -0.84,-0.191 -3.508,-2.492 -4.273,-3.246 -8.719,-8.676 -3.954,-18.625 -6.977,-20.59 -0.43,-0.285 -1.457,-0.441 -2.117,-0.187 -0.758,0.301 -0.559,0.93 -1.512,1.004 -1.164,-2.211 0.5,-4.465 2.531,-4.692 1.098,-0.125 2.328,0.485 2.91,0.977 0.708,0.594 1.239,1.504 1.504,2.558 0.954,3.696 -0.75,10.223 1.407,13.782 0.187,0.312 0.082,0.164 0.261,0.363"
         style="fill:#1c63b7;fill-opacity:1;fill-rule:evenodd;stroke:none"
         id="path46" /><path
         d="m 411.16,255.926 c 0.387,0.812 1.184,4.16 0.617,5.324 2.61,0 3.703,0.109 5.914,0.98 0.289,0.114 0.485,0.192 0.754,0.34 0.778,0.43 1.485,0.68 1.485,-0.527 0,-4.121 -5.133,-6.117 -8.77,-6.117 z m -9.086,0.308 c 0,-2.375 2.231,-4.527 4.391,-4.527 5.277,0 8.754,0.719 13.219,3.379 2.57,1.531 6.191,5.008 6.191,8.355 0,1.344 -0.02,2.301 -0.848,3.387 -1.89,2.5 -2.859,0.738 -4.734,-0.297 -3.383,-1.886 -8.766,-2.886 -12.422,-1.355 -1.543,0.648 -2.519,-0.813 -3.57,-2.391 -1.055,-1.566 -2.227,-4.004 -2.227,-6.551"
         style="fill:#1c63b7;fill-opacity:1;fill-rule:evenodd;stroke:none"
         id="path48" /><path
         d="m 327.547,398.887 c 2.933,-0.692 4.195,-2.426 0,-4.074 -1.012,-0.403 -2.574,-0.672 -3.137,-1.723 0.789,-1.176 1.883,-0.465 4.262,-0.18 1.726,0.207 2.945,0.492 2.945,-0.914 0,-1.234 -2.976,-3.781 -2.976,-4.855 0,-1.715 2.531,0.636 2.597,0.691 0.797,0.625 3.129,2.93 4.293,0.723 0.789,-1.52 -0.246,-5.485 1.407,-5.485 1.531,0 0.914,6.266 3.289,6.266 2.039,0 3.41,-4.391 4.855,-4.391 1.953,0 -1.305,4.715 -1.051,6.203 0.41,2.348 3.867,0.375 5.742,0.375 0.825,0 1.024,0.852 -0.781,2.032 -1.48,0.98 -4.687,2.293 -3.398,4.023 0.633,0.82 2.183,0.699 2.465,1.777 -1.067,0.708 -3.184,0.618 -4.539,0.618 -2.856,0 -3.004,-3.289 -5.754,-3.055 -3.469,0.277 -1.278,4.09 -8.442,2.992 -0.351,-0.051 -0.875,-0.144 -1.148,-0.246 -0.469,-0.176 -0.578,-0.168 -0.629,-0.777"
         style="fill:#1c63b7;fill-opacity:1;fill-rule:evenodd;stroke:none"
         id="path50" /><path
         d="m 431.504,364.586 c -0.203,-2.527 -8.207,-2.828 -10.742,0.535 -2.032,2.703 1.961,0.711 3.894,0.293 2.938,-0.633 5.641,-0.539 6.848,-0.828 z m -17.215,4.855 c 0.125,-5.636 5.961,-11.117 11.434,-11.117 4.316,0 11.757,0.598 10.144,6.559 -0.476,1.754 -1.461,4.047 -2.59,5.234 -0.898,0.938 -1.246,1.016 -2.617,0.5 -0.914,-0.359 -1.941,-0.859 -3.066,-0.859 -2,0 -0.633,2.191 -3.754,2.191 -0.301,0 -2.645,-1.086 -4.445,-1.504 -2.129,-0.492 -3.567,-0.297 -4.122,-0.429 -0.66,-0.157 -0.535,-0.27 -0.984,-0.575"
         style="fill:#1c63b7;fill-opacity:1;fill-rule:evenodd;stroke:none"
         id="path52" /><path
         d="m 374.672,280.977 c 0,-1.789 1.34,-1.997 0.164,-4.219 -0.699,0.469 -0.652,0.754 -1.621,1.199 -0.844,0.406 -1.406,0.496 -2.309,0.379 -4.277,-0.539 -3.578,-5.856 -6.785,-7.785 -2.754,-1.653 -6.984,0.418 -6.984,-0.692 0,-3.074 4.078,-5.312 7.511,-5.312 3.219,0 5.79,0.527 8.207,2.113 2.27,1.485 3.856,3.297 3.856,6.172 0,0.965 -0.289,1.441 -0.473,2.195 2.246,1.192 2.157,-0.629 3.602,-0.629 1.68,0 2.187,2.719 0.625,3.129 0.226,0.852 0.633,0.567 0.633,1.879 0,0.965 -0.785,1.735 -1.879,1.735 -0.742,0 -0.637,-0.309 -1.254,-0.477 -0.059,2.57 -3.293,2.32 -3.293,0.313"
         style="fill:#1c63b7;fill-opacity:1;fill-rule:evenodd;stroke:none"
         id="path54" /><path
         d="m 443.719,304.777 c 0,-1.222 0.453,-2.234 0.949,-2.98 -0.965,0.23 -2.527,1.312 -4.762,0.695 -2.078,-0.57 -2.605,-2.39 -2.605,-4.289 0,-4.773 9.402,-3.055 9.402,-10.336 2.047,0.551 6.102,7.719 6.102,12.059 0,3.125 -0.45,6.926 -3.496,8.558 -2.746,1.496 -5.59,-0.82 -5.59,-3.707"
         style="fill:#1c63b7;fill-opacity:1;fill-rule:evenodd;stroke:none"
         id="path56" /><path
         d="m 330.203,292.25 c -2.676,0 -2.832,4.23 0.164,4.23 1.547,0 2.781,-2.167 1.426,-3.621 -0.328,-0.351 -0.914,-0.609 -1.59,-0.609 z m -5.004,5.953 c 0,-0.762 0.016,-0.941 0.313,-1.566 -1.926,-0.157 -3.762,-1.633 -3.762,-3.446 v -0.789 c 0,-1.754 1.652,-3.277 3.914,-3.277 1.051,0 1.285,0.293 2.039,0.473 0.711,-1.36 1.25,-2.668 3.594,-2.668 2.281,0 3.918,1.875 3.918,3.601 0,0.68 -0.254,1.223 -0.313,1.871 1.996,0 3.692,1.696 3.676,3.774 0,0.984 -0.48,1.949 -1.101,2.57 -1.149,1.133 -2.325,1.43 -3.844,0.883 -0.594,-0.195 -0.574,-0.356 -1.078,-0.488 -0.102,1.265 -1.692,2.816 -3.602,2.816 -2.16,0 -3.754,-1.586 -3.754,-3.754"
         style="fill:#1c63b7;fill-opacity:1;fill-rule:evenodd;stroke:none"
         id="path58" /><path
         d="m 314.078,352.691 c 0,1.911 0.867,3.133 1.406,2.825 0.77,-0.461 -0.066,-1.328 1.524,-3.5 0.59,-0.805 1.824,-1.899 2.859,-2.145 -0.094,-1.121 -1.301,-1.098 -2.344,-1.098 -1.414,0 -3.445,2.356 -3.445,3.918 z m 5.645,4.391 c 0,1.074 0.949,0.934 1.558,0.934 1.578,0 0.864,-1.825 2.352,-2.981 0.183,-0.14 0.941,-0.695 0.941,-0.937 0,-3.879 -4.851,-1.129 -4.851,2.984 z m -10.188,-9.086 c 0,-1.66 2.16,-1.101 2.203,-1.101 2.758,0 3.567,-2.211 9.141,0.089 0.769,0.325 0.906,0.395 1.531,0.825 l 1.418,1.086 c 1.574,1.378 3.399,4.726 3.399,6.773 0,0.707 -1.645,1.051 -2.016,2.672 -0.457,1.969 -1.02,1.715 -4.867,1.715 -4.574,0 -8.418,-3.051 -9.688,-7.379 l -0.75,-3.488 c -0.16,-0.559 -0.371,-0.653 -0.371,-1.192"
         style="fill:#1c63b7;fill-opacity:1;fill-rule:evenodd;stroke:none"
         id="path60" /><path
         d="m 442.156,358.176 c 0.047,-1.946 2.117,-5.172 3.41,-6.621 0.321,-0.352 0.375,-0.52 0.707,-0.86 1.387,-1.507 4.868,-5.05 7.004,-5.05 2.071,0 3.016,15.945 1.489,18.085 -0.293,0.415 -0.438,0.5 -1.02,0.551 -0.465,-1.722 -2.937,-3.535 -4.391,-4.383 -1.628,-0.945 -4.601,-1.722 -7.199,-1.722"
         style="fill:#1c63b7;fill-opacity:1;fill-rule:evenodd;stroke:none"
         id="path62" /><path
         d="m 355.883,278.793 c 0,3.504 6.25,-0.387 5.125,-2.145 -1.059,-1.636 -5.125,1.207 -5.125,2.145 z m -15.969,12.516 c 0,-1.852 4.734,-2.446 6.375,-3.18 5.203,-2.336 4.711,-4.645 5.688,-8.559 0.359,-1.465 0.777,-2.597 1.722,-3.582 l 0.168,-0.164 c 0.028,-0.031 0.129,-0.117 0.164,-0.144 4.555,-4.176 13.184,-3.313 8.711,3.238 -1.414,2.059 -3.113,3.496 -5.91,3.469 -3.609,-0.028 -3.141,0.179 -4.426,4.828 -0.914,3.308 -3.406,6.914 -7.172,6.914 -1.898,0 -5.32,-0.227 -5.32,-2.82"
         style="fill:#1c63b7;fill-opacity:1;fill-rule:evenodd;stroke:none"
         id="path64" /><path
         d="m 405.516,358.016 c -1.192,0 -1.891,-0.137 -2.813,0.308 0.492,0.735 1.09,1.071 1.09,2.192 0,1.339 -2.148,0.015 -4.363,0.797 -1.149,0.414 -1.766,1.097 -2.684,1.718 -2.863,-4.301 -0.859,-11.433 1.106,-11.433 0.867,0 0.644,2.035 1.714,2.035 0.77,0 4.391,-2.195 9.247,0.308 3.027,1.563 4.828,5.399 3.683,9.493 -0.219,0.773 -0.305,1.25 -0.871,1.625 0,-4.149 -2.742,-7.043 -6.109,-7.043"
         style="fill:#1c63b7;fill-opacity:1;fill-rule:evenodd;stroke:none"
         id="path66" /><path
         d="m 409.75,294.285 c -2.039,0 -0.937,2.324 -0.937,4.391 0.996,0 1.191,-0.231 1.656,-0.848 1.242,-1.644 0.672,-3.543 -0.719,-3.543 z m -3.285,6.113 c 0,-2.578 -1.887,-4.5 -1.887,-7.832 0,-5.156 7.277,-6.793 9.559,-1.882 1.629,3.511 -0.52,8.25 -3.453,10.336 -1.11,0.796 -3.469,2.195 -5.321,2.195 0.301,-0.449 0.465,-0.52 0.727,-1.16 0.121,-0.305 0.375,-1.336 0.375,-1.657"
         style="fill:#1c63b7;fill-opacity:1;fill-rule:evenodd;stroke:none"
         id="path68" /><path
         d="m 330.52,338.605 c 5.457,0 6.445,7.239 0.632,11.118 -2.82,1.867 -2.746,0.906 -3.449,-0.164 -1.664,-2.481 -2.508,-6.649 -0.426,-9.192 0.637,-0.797 1.887,-1.762 3.243,-1.762"
         style="fill:#1c63b7;fill-opacity:1;fill-rule:evenodd;stroke:none"
         id="path70" /><path
         d="m 397.691,365.059 h 0.317 c 0.875,3.769 6.211,3.757 7.355,2.031 -0.781,-0.203 -1.25,-1.207 -1.25,-1.547 0,-1.539 1.832,-0.75 3.442,-3.766 1.847,0.969 3.605,4.203 3.605,7.043 0,4.043 -0.808,1.727 -2.191,1.793 -0.36,0.012 -1.145,0.649 -1.539,0.903 -1.805,1.152 -4.785,1.363 -6.809,0.488 -0.781,-0.34 -1.441,-0.906 -1.949,-1.5 -1.852,-2.203 -1.004,-4.461 -0.981,-5.445"
         style="fill:#1c63b7;fill-opacity:1;fill-rule:evenodd;stroke:none"
         id="path72" /><path
         d="m 408.016,271.738 v -2.66 c 0,-3.187 12.382,-3.332 12.382,1.254 0,1.711 0.11,2.652 -2.035,3.457 -2.32,0.867 -5.468,0.723 -7.777,-0.062 -0.762,-0.262 -2.57,-1.219 -2.57,-1.989"
         style="fill:#1c63b7;fill-opacity:1;fill-rule:evenodd;stroke:none"
         id="path74" /><path
         d="m 451.246,371.484 c 0,-3.171 -4.266,-5.566 -7.203,-6.269 -2.215,-0.531 -4.355,0.199 -5.078,-1.664 -1.652,-4.332 8.68,-4.117 13.086,1.332 0.808,0.992 2.117,3.043 1.965,4.84 -0.168,2.211 -1.235,3.168 -3.239,3.632 0.141,-0.64 0.469,-1.019 0.469,-1.871"
         style="fill:#1c63b7;fill-opacity:1;fill-rule:evenodd;stroke:none"
         id="path76" /><path
         d="m 314.238,369.289 c 0,-2.207 1.282,-3.914 2.727,-4.793 1.719,-1.051 3.187,-1.465 5.879,-1.465 0.07,0.856 0.472,1.668 0.472,3.282 0,3.234 -1.691,6.89 -4.855,6.89 h -0.781 c -1.91,0 -3.442,-1.957 -3.442,-3.914"
         style="fill:#1c63b7;fill-opacity:1;fill-rule:evenodd;stroke:none"
         id="path78" /><path
         d="m 416.172,290.844 c 0,-5.305 7.512,-4.321 7.512,0 0,2.105 -0.344,3.433 -2.344,4.847 -1.024,0.739 -2.957,1.579 -4.703,1.579 1.523,-2.875 -0.465,-3.809 -0.465,-6.426"
         style="fill:#1c63b7;fill-opacity:1;fill-rule:evenodd;stroke:none"
         id="path80" /><path
         d="m 357.137,379.621 c 0,-1.808 6.894,-11.746 8.613,-11.746 0.465,0 0.633,0.105 0.871,0.375 0.152,0.152 0.457,0.695 0.543,0.879 1.527,2.98 0.066,4.156 -1.754,5.617 l -3.324,2.629 c -0.527,0.352 -0.844,0.617 -1.383,0.961 -0.16,0.113 -3.566,2.457 -3.566,1.285"
         style="fill:#1c63b7;fill-opacity:1;fill-rule:evenodd;stroke:none"
         id="path82" /><path
         d="m 408.813,330.93 c 0,-2.2 1.644,-4.075 4.23,-4.075 1.988,0 3.746,1.747 3.746,4.227 0,1.902 -1.973,3.758 -3.914,3.758 -2.109,0 -4.062,-1.801 -4.062,-3.91"
         style="fill:#1c63b7;fill-opacity:1;fill-rule:evenodd;stroke:none"
         id="path84" /><path
         d="m 440.438,371.484 -2.977,0.157 c 1.301,-1.95 0.523,-1.442 1.152,-3.078 1.137,-2.954 5.52,-1.2 7.364,-0.27 3.925,2 3.414,4.91 1.195,4.91 -2.274,0 -4.117,-1.719 -6.734,-1.719"
         style="fill:#1c63b7;fill-opacity:1;fill-rule:evenodd;stroke:none"
         id="path86" /><path
         d="m 413.043,343.926 c 2.016,0 3.562,1.652 3.719,3.484 0.156,1.879 -1.344,3.875 -4.047,3.875 -1.758,0 -3.504,-1.965 -3.395,-3.73 0.11,-1.91 1.641,-3.629 3.723,-3.629"
         style="fill:#1c63b7;fill-opacity:1;fill-rule:evenodd;stroke:none"
         id="path88" /><path
         d="m 403.016,341.883 c 0,-4.805 7.05,-4.805 7.05,0 0,1.805 -1.699,3.453 -3.449,3.453 -1.894,0 -3.601,-1.566 -3.601,-3.453"
         style="fill:#1c63b7;fill-opacity:1;fill-rule:evenodd;stroke:none"
         id="path90" /><path
         d="m 395.813,338.129 c 0,-2.774 3.437,-4.422 5.523,-2.399 2.332,2.254 0.574,5.688 -2.231,5.688 -1.773,0 -3.292,-1.555 -3.292,-3.289"
         style="fill:#1c63b7;fill-opacity:1;fill-rule:evenodd;stroke:none"
         id="path92" /><path
         d="m 308.285,364.906 c 0,-2.152 1.82,-4.39 3.914,-4.39 1.086,0 3.91,0.214 4.231,1.414 -1.485,0.121 -3.082,1.468 -3.809,2.449 -1.027,1.398 -1.207,2.723 -1.207,5.062 -1.691,-0.894 -3.129,-2.14 -3.129,-4.535"
         style="fill:#1c63b7;fill-opacity:1;fill-rule:evenodd;stroke:none"
         id="path94" /><path
         d="m 398.461,292.109 c 0,-1.722 -0.906,-3.441 0.367,-4.828 1.942,-2.136 5.781,0.184 4.195,3.563 -0.73,1.578 -2.898,2.769 -5.171,2.816 0.164,-0.625 0.609,-0.816 0.609,-1.551"
         style="fill:#1c63b7;fill-opacity:1;fill-rule:evenodd;stroke:none"
         id="path96" /><path
         d="m 319.867,341.738 c 0,-1.215 -0.058,-1.793 1.051,-2.867 1.207,-1.172 3.383,-1.156 4.746,-0.43 -0.359,1.352 -2.031,0.969 -2.031,5.805 0,0.891 0.254,1.113 0.308,1.871 -1.753,-0.414 -4.074,-2.328 -4.074,-4.379"
         style="fill:#1c63b7;fill-opacity:1;fill-rule:evenodd;stroke:none"
         id="path98" /><path
         d="m 318.773,337.664 c -2.351,-0.051 -6.652,-2.469 -9.816,1.301 -0.34,0.39 -0.609,0.93 -0.984,1.199 0,-12.355 10.449,-3.039 10.8,-2.5"
         style="fill:#1c63b7;fill-opacity:1;fill-rule:evenodd;stroke:none"
         id="path100" /><path
         d="m 309.227,380.406 c 2.324,0.192 9.929,6.672 3.55,5.684 -2.152,-0.328 -3.406,-0.617 -3.933,-2.953 -0.399,-1.824 -0.223,-1.828 0.383,-2.731"
         style="fill:#1c63b7;fill-opacity:1;fill-rule:evenodd;stroke:none"
         id="path102" /><path
         d="m 417.109,336.094 c 0,-0.961 -0.027,-1.559 0.657,-2.305 1.101,-1.211 4.668,-1.578 4.668,2.305 0,1.148 -1.508,2.347 -2.668,2.347 -1.223,0 -2.657,-1.156 -2.657,-2.347"
         style="fill:#1c63b7;fill-opacity:1;fill-rule:evenodd;stroke:none"
         id="path104" /><path
         d="m 361.363,393.402 c 0,-0.593 1.645,-1.8 2.145,-2.089 3.25,-1.872 4.43,-1.75 4.43,1.777 0,1.859 -1.133,1.558 -2.821,1.558 -1.086,0 -3.754,-0.371 -3.754,-1.246"
         style="fill:#1c63b7;fill-opacity:1;fill-rule:evenodd;stroke:none"
         id="path106" /><path
         d="m 317.68,342.988 c -1.856,0 -3.235,-0.121 -4.703,0.297 -2.012,0.59 -2.278,1.672 -3.122,1.891 0,-8.168 7.293,-4.18 7.825,-2.188"
         style="fill:#1c63b7;fill-opacity:1;fill-rule:evenodd;stroke:none"
         id="path108" /><path
         d="m 418.984,340.488 c 4.11,0 3.161,4.848 0.317,4.848 -3.211,0 -3.02,-4.848 -0.317,-4.848"
         style="fill:#1c63b7;fill-opacity:1;fill-rule:evenodd;stroke:none"
         id="path110" /><path
         d="m 328.953,356.922 c 0,-3.91 4.535,-2.957 4.535,-0.629 0,0.746 0.032,1.398 -0.656,2 -1.656,1.441 -3.879,0.133 -3.879,-1.371"
         style="fill:#1c63b7;fill-opacity:1;fill-rule:evenodd;stroke:none"
         id="path112" /><path
         d="m 403.488,334.527 c 0,-2.765 2.84,-3.058 4.016,-1.832 1.086,1.121 1.019,3.868 -1.988,3.868 -0.961,0 -2.028,-1.071 -2.028,-2.036"
         style="fill:#1c63b7;fill-opacity:1;fill-rule:evenodd;stroke:none"
         id="path114" /><path
         d="m 397.852,346.27 c 0,-3.551 4.539,-2.79 4.539,-0.469 0,3.808 -4.539,3.179 -4.539,0.469"
         style="fill:#1c63b7;fill-opacity:1;fill-rule:evenodd;stroke:none"
         id="path116" /><path
         d="m 325.984,361.777 c 0,-3.121 4.383,-3.074 4.598,-0.257 0.09,1.296 -0.93,2.445 -1.941,2.445 -1.203,0 -1.282,0.098 -2.086,-0.735 -0.403,-0.417 -0.571,-0.683 -0.571,-1.453"
         style="fill:#1c63b7;fill-opacity:1;fill-rule:evenodd;stroke:none"
         id="path118" /><path
         d="m 411,339.223 c 0,-0.922 -0.039,-1.313 0.578,-1.938 2.367,-2.367 5.418,1.344 3.27,3.289 -1.563,1.418 -3.848,0.094 -3.848,-1.351"
         style="fill:#1c63b7;fill-opacity:1;fill-rule:evenodd;stroke:none"
         id="path120" /><path
         d="m 419.93,326.387 c 3.265,0 2.879,4.386 0.148,4.386 -2.965,0 -3.039,-4.386 -0.148,-4.386"
         style="fill:#1c63b7;fill-opacity:1;fill-rule:evenodd;stroke:none"
         id="path122" /><path
         d="m 413.652,354.887 c 0,-3.504 4.391,-2.957 4.391,-0.317 0,3.129 -4.391,2.84 -4.391,0.317"
         style="fill:#1c63b7;fill-opacity:1;fill-rule:evenodd;stroke:none"
         id="path124" /><path
         d="m 403.328,349.41 c 0,-3.301 4.383,-3.301 4.383,0 0,2.59 -4.383,2.59 -4.383,0"
         style="fill:#1c63b7;fill-opacity:1;fill-rule:evenodd;stroke:none"
         id="path126" /></g></g></svg>
