<svg width="2733" height="833" xmlns="http://www.w3.org/2000/svg">
 <metadata id="metadata59">image/svg+xml</metadata>

 <g>
  <title>background</title>
  <rect fill="none" id="canvas_background" height="835" width="2735" y="-1" x="-1"/>
 </g>
 <g>
  <title>Layer 1</title>
  <g stroke="null" id="Layer1000">
   <path stroke="null" fill="#502170" fill-rule="evenodd" id="path2" d="m516.22608,278.94936c-6.17994,-4.43225 -13.1795,-17.86693 -18.57323,-26.24689c-30.28726,-47.04825 -62.21892,-112.94816 -108.96445,-119.58181c-36.6914,-5.20554 -50.69567,5.3345 -68.36681,22.66388c16.77664,23.34451 25.12941,32.47696 28.31022,73.79139c5.31126,69.01752 -23.34694,206.57198 -85.63559,225.37974c13.41539,55.15496 78.42338,72.78479 119.35245,12.41137c24.58807,-36.27004 37.11928,-118.06622 39.80263,-169.16152c1.74374,1.6046 1.79796,1.52729 3.65638,3.77121c12.19872,14.72851 73.20113,116.20507 83.70365,126.81847c12.52727,-10.26025 78.38981,-108.51348 98.27252,-129.36785c1.07738,23.17166 -1.62131,49.23431 -1.00918,73.50005c2.26443,89.6878 28.98553,233.62179 144.51528,227.17512c39.48684,-2.20382 79.17601,-32.61868 87.88072,-63.75912c-7.74323,-3.48368 -20.38517,-4.13712 -29.49195,-6.94685c-9.25502,-2.85347 -17.96627,-6.69668 -25.18364,-10.66885c-47.35113,-26.05855 -74.20894,-72.73831 -88.91952,-128.13691c-10.88271,-40.98451 -15.22869,-85.17428 -13.62151,-129.68227c1.00022,-27.70841 5.55353,-64.08144 19.45604,-87.76863c2.62654,-4.47615 4.43863,-7.6003 7.13626,-10.79006c5.72487,-6.76762 6.22748,-3.47973 9.2974,-11.3829c-19.11048,-12.36094 -36.46188,-23.56992 -69.36809,-17.49433c-28.818,5.32144 -41.3685,22.20379 -53.77212,38.14897l-78.47745,107.3278z"/>
   <path stroke="null" fill="#502170" fill-rule="evenodd" id="path4" d="m1404.41213,311.47918c51.18933,-12.88315 57.88479,118.26596 13.22977,128.2967c-57.92611,13.01332 -57.86414,-117.06342 -13.22977,-128.2967zm48.71605,-24.20408c-12.11487,-13.47721 -25.95936,-28.11686 -47.54844,-36.09597c-23.14842,-8.55388 -48.00199,-6.10384 -68.2494,5.07674c-72.18678,39.86187 -68.04449,200.70008 2.69748,237.36961c19.01145,9.85561 46.76619,14.29166 70.71235,8.55905c31.1804,-7.46496 38.77553,-25.09721 49.92633,-37.59106c15.50575,18.91606 19.47411,29.67771 49.9675,37.41957c28.5177,7.23924 51.7448,-0.87643 64.93584,-19.39543c-19.67507,-15.42327 -25.70676,-23.24259 -26.07267,-58.18767l0.31442,-248.51145c0.18941,-82.32066 -68.77146,-68.47101 -85.77487,-45.88961c-20.34659,27.02003 -8.27425,116.61882 -10.90854,157.24624z"/>
   <path stroke="null" fill="#502170" fill-rule="evenodd" id="path6" d="m996.65158,258.75862c11.3867,10.33772 20.7204,12.76073 24.69758,34.14095c5.46072,29.3554 -4.0507,142.02134 2.14717,174.95596c7.43914,39.52421 52.02839,43.07487 72.15458,27.93382c36.67727,-27.591 9.13898,-118.36773 20.30543,-156.5258c10.07464,-34.42955 50.01124,-50.52054 49.75743,9.02946c-0.27067,63.44334 -10.46531,121.97003 31.97176,146.61475c31.21123,18.12591 68.13214,10.61994 85.27727,-12.29016c-29.72784,-25.26338 -26.26482,-31.10946 -26.1708,-85.06598c0.06228,-35.22729 4.97877,-76.19237 -5.11532,-108.74801c-23.67427,-76.3599 -112.70848,-36.08564 -135.77837,8.16215c-9.66483,-14.75828 -5.50067,-41.61594 -45.34583,-55.45146c-30.52315,-10.59928 -58.75727,-4.37301 -73.9009,17.24432z"/>
   <path stroke="null" fill="#502170" fill-rule="evenodd" id="path8" d="m861.38995,300.75489c50.83618,-13.954 57.62187,136.81595 12.02085,147.3481c-56.46064,13.04036 -57.78044,-134.78726 -12.02085,-147.3481zm-20.56699,-54.02989c-63.29904,13.0879 -118.87809,72.72813 -102.7511,152.90557c12.52347,62.25386 72.85314,117.71808 151.676,102.82067c63.1637,-11.93701 119.53412,-73.56187 104.0425,-153.02405c-12.15482,-62.35441 -73.96151,-119.03803 -152.9674,-102.70219z"/>
   <path stroke="null" fill="#502170" fill-rule="evenodd" id="path10" d="m2331.46378,326.01311c-11.07866,10.38405 -60.87998,31.86225 -89.39373,62.92022c-20.45231,22.27852 -49.58488,65.16915 -42.85842,111.39004c20.09916,-8.48295 31.11204,-22.20638 74.02712,-26.05991c35.41169,-3.17822 54.20776,6.67223 78.69284,21.21527c47.78934,28.38631 85.83533,-4.29312 90.04581,-42.59413c2.14853,-19.54626 -4.36512,-27.21871 -9.38246,-40.4058c-33.3663,8.58608 -11.93199,20.54755 -110.29337,18.38504l-8.30766,-0.36485c35.89745,-27.83327 116.89071,-89.87843 132.52147,-128.10349c4.25955,-10.41625 6.36297,-23.02083 4.16416,-35.78277c-2.88567,-16.74307 -7.0228,-20.07075 -14.98126,-29.33216c-22.23721,24.61389 -39.17364,17.63225 -88.77902,17.63225c-22.84691,0 -88.30724,-2.87793 -105.92157,0.86351c-31.45882,6.68119 -38.20319,47.52657 -12.77227,63.51169c16.67487,10.4808 78.30232,5.09345 103.23837,6.72509z"/>
   <path stroke="null" fill="#502170" fill-rule="evenodd" id="path12" d="m1662.76112,360.23001c1.89973,-19.02679 6.45061,-36.66299 15.76229,-49.18783c27.81018,-37.41046 66.25686,10.66247 36.33566,38.55118c-12.06202,11.2424 -31.51031,11.27202 -52.09795,10.63665zm139.02236,66.03008c-25.94645,11.10569 -41.91623,20.58111 -79.27778,16.12441c-24.45288,-2.91651 -52.97833,-21.81191 -53.09043,-41.51417c39.32963,-0.07473 87.68478,-0.10055 118.19122,-18.79606c31.84933,-19.51786 34.09964,-64.98749 10.73325,-96.19887c-32.30942,-43.15872 -139.11,-63.51427 -192.50452,1.74252c-46.43233,56.74802 -43.60589,146.12505 19.83881,193.36803c62.99616,46.90912 167.23977,23.74004 176.10943,-54.72586z"/>
   <path stroke="null" fill="#502170" fill-rule="evenodd" id="path14" d="m2045.96186,360.19006c11.04919,-107.41924 93.94857,-52.04889 51.51803,-10.67781c-12.71683,12.39846 -30.97154,11.43439 -51.51803,10.67781zm139.0778,64.78638c-27.57171,19.48444 -82.73184,27.98926 -113.43286,3.98371c-5.98779,-4.68227 -19.24582,-16.87324 -19.19053,-28.09103c51.77457,-0.0439 139.01081,2.08398 144.22152,-61.80927c5.06762,-62.12748 -56.21062,-92.8323 -113.77826,-93.43942c-129.34841,-1.36355 -167.83655,173.11561 -71.50114,236.88628c29.46248,19.50373 69.02922,29.1956 110.57422,16.88236c31.51562,-9.34145 61.20351,-37.30368 63.10704,-74.41263z"/>
   <path stroke="null" fill="#502170" fill-rule="evenodd" id="path16" d="m1958.98338,482.6176c-13.43073,-11.81595 -21.2256,-14.12929 -24.73252,-37.25583c-2.84314,-18.75232 -1.41246,-43.79029 -1.20117,-63.48085c0.46403,-43.18575 0.02734,-86.62411 0.02734,-129.8369c0,-31.64959 6.59355,-95.64719 -8.70092,-119.09089c-19.91871,-30.53211 -68.83586,-24.48113 -82.98839,7.45843c-9.32459,21.04378 -4.33808,213.04705 -4.33808,252.6627c-0.00137,47.27397 -0.7256,75.08932 30.28589,96.93221c28.67233,20.19698 74.34823,19.76529 91.64799,-7.38886l-0.00015,0z"/>
   <path stroke="null" fill="#ce1127" fill-rule="evenodd" id="path18" d="m356.47952,516.75977c-25.49153,14.81615 -62.57101,20.60557 -86.53388,-0.46525c-22.76322,-20.01546 -18.98699,-35.33301 -48.06913,-66.05985c-62.81845,-66.36896 -165.82594,20.33763 -123.82465,96.96183c5.94147,10.8376 18.30378,24.93742 26.85128,31.33897c48.68901,36.46188 125.53619,29.44167 174.4623,-3.92584c16.60135,-11.32229 47.92726,-41.09008 57.11409,-57.84986z"/>
   <path stroke="null" fill="#ce1127" fill-rule="evenodd" id="path20" d="m2352.03457,517.99314c7.73305,16.90028 39.15572,45.48755 55.55854,56.19893c22.53887,14.71711 51.8285,26.49554 84.85455,28.52423c65.76837,4.04037 130.23516,-35.15256 125.60059,-100.01504c-4.8975,-68.52266 -80.31157,-96.39846 -132.32826,-53.60064c-18.79348,15.46321 -28.40044,49.75485 -46.42063,65.51197c-31.92285,27.91317 -64.29151,11.83007 -87.2648,3.38054z"/>
   <path stroke="null" fill="#502170" fill-rule="evenodd" id="path22" d="m2005.19789,153.08068c-16.83071,4.11267 -29.93806,21.12626 -21.62128,41.49488c7.71361,18.88887 23.91533,18.95327 45.53266,18.88492c23.67048,-0.07473 114.7797,2.97073 130.37703,-1.18826c24.70791,-6.58717 44.87405,-60.46744 -25.1642,-60.21621c-24.98375,0.08901 -111.96101,-3.16911 -129.12422,1.02467z"/>
   <path stroke="null" fill="#502170" fill-rule="evenodd" id="path24" d="m2133.57844,630.50841c32.58784,-2.08793 24.99803,51.02179 10.2074,56.39229c-18.61045,6.7585 -31.75774,-28.12977 -10.2074,-56.39229zm22.35204,-12.80067c-26.83199,-37.49294 -72.7216,-12.03619 -72.5773,39.54365c0.17787,63.18299 50.4212,71.95211 75.5737,46.90912l2.37926,2.14717c6.24556,5.89514 8.126,9.54119 16.14628,10.71275c33.21288,4.84844 24.86649,-47.22627 24.86785,-64.26964c0,-19.45984 4.00938,-42.42796 -9.56306,-51.82212c-7.03191,-4.86788 -15.97373,-5.27906 -23.43595,-0.52464c-6.90159,4.39489 -9.68154,13.17691 -13.39078,17.30371z"/>
   <path stroke="null" fill="#502170" fill-rule="evenodd" id="path26" d="m1610.60909,632.14901c24.64351,-13.64216 29.01257,44.57892 12.7747,53.68068c-25.01079,14.01719 -31.64428,-43.23603 -12.7747,-53.68068zm25.21569,-14.73762c-14.69387,-8.95868 -26.71852,-26.5124 -53.8546,-11.21399c-28.86174,16.27129 -28.5499,85.43706 0.33644,103.98569c28.21088,18.11573 49.6672,-3.81481 55.936,-6.72752c5.9518,15.69394 27.12317,19.20982 37.03042,4.95158c6.52003,-9.38261 4.10735,-41.54895 4.10735,-55.65636c0.00137,-18.73303 3.61901,-42.44467 -8.62861,-51.24598c-16.51234,-11.86486 -31.09792,-0.13017 -34.927,15.90659z"/>
   <path stroke="null" fill="#502170" fill-rule="evenodd" id="path28" d="m1484.83579,626.3725c-1.75422,-38.49316 -38.42875,-29.53326 -41.19853,-8.9444c-1.77852,13.22203 -1.37388,65.72462 -0.19837,80.00216c2.19349,26.66566 38.52536,26.74693 41.06821,-0.15979c2.16008,-22.85329 -9.49471,-64.55444 19.19828,-62.43811c9.76797,17.5756 -2.06347,50.76919 5.44007,70.21232c6.71339,17.39652 39.5552,19.64803 39.5552,-12.00019l0,-42.53231c0,-41.08249 -18.76781,-54.93077 -46.49415,-39.06671c-11.74501,6.72114 -10.61477,9.41861 -17.37328,14.92703l0.00258,0z"/>
   <path stroke="null" fill="#502170" fill-rule="evenodd" id="path30" d="m1966.63,693.04449c0,30.81175 37.96077,33.48477 41.02568,4.59721c2.40493,-22.66388 -9.03979,-65.76594 19.45862,-62.6225c10.37357,17.59109 -3.74023,59.36819 7.81401,74.60083c5.81904,7.67229 20.2951,10.75391 29.68667,3.28515c9.3814,-7.45964 7.32187,-19.30399 7.32187,-33.29156c-0.05468,-25.54044 5.08813,-68.75338 -20.8931,-73.36593c-23.04027,-4.0908 -34.26581,12.4422 -43.13943,20.87624c-0.68565,-39.31672 -41.27691,-33.0054 -41.27433,-3.47472l0,69.39528z"/>
   <path stroke="null" fill="#502170" fill-rule="evenodd" id="path32" d="m1027.66185,693.04449c0.00122,33.33789 41.27706,34.5816 41.27706,-4.3601c0.00122,-11.90875 -1.61372,-35.69133 2.24514,-45.02625c5.99812,-14.51464 20.84526,-14.31095 20.84662,6.85404l-0.27326,40.29355c0,37.05366 41.20233,34.5456 41.20233,2.23876l0,-42.53231c0,-69.96109 -51.38527,-43.53891 -61.26154,-23.88055c-0.37639,-0.55031 -0.64828,-1.34821 -0.82736,-1.81984l-2.41009,-7.51387c-7.46617,-26.6321 -40.80786,-21.35699 -40.80027,6.35128l0.00137,69.39528z"/>
   <path stroke="null" fill="#502170" fill-rule="evenodd" id="path34" d="m1902.06402,626.21529c20.48178,22.24891 13.30056,71.19309 -8.22913,65.48494c-15.83186,-4.19773 -23.81994,-66.76601 8.22913,-65.48494zm51.04746,48.92095c10.19843,-35.13449 -13.10856,-64.4112 -39.65043,-72.22536c-35.84854,-10.55538 -65.48235,14.01324 -72.89309,40.29112c-20.91893,74.17795 91.16724,105.58254 112.54352,31.93424z"/>
   <path stroke="null" fill="#502170" fill-rule="evenodd" id="path36" d="m1265.81887,652.10888c-0.44459,-15.03017 12.01964,-37.64893 24.38711,-23.67169c4.95158,5.59485 1.91006,15.09852 -2.50032,19.20724c-5.43627,5.06641 -13.20395,4.47357 -21.88679,4.46445zm2.01699,18.83495c17.53185,-0.05939 41.66636,0.03858 54.0712,-9.2409c12.1729,-9.10556 14.13582,-28.39528 4.159,-42.19085c-17.8127,-24.62923 -67.78552,-23.93325 -86.83418,-0.21903c-22.91784,28.53061 -16.49184,69.58986 8.59505,87.40636c29.16993,20.7166 72.67664,12.16394 79.0472,-23.81736c-21.63283,7.74839 -51.79113,11.83402 -59.03827,-11.93822z"/>
   <path stroke="null" fill="#502170" fill-rule="evenodd" id="path38" d="m2271.83267,709.73591c-1.77731,-6.66828 -7.49837,-5.73261 -9.62367,-16.94539l-0.67653,-84.81202c0,-13.20274 2.43197,-45.43864 -2.58675,-55.26721c-7.54987,-14.78531 -28.73673,-13.54283 -36.05982,0.65998c-5.62963,10.91628 -2.53131,91.55898 -2.55698,110.57422c-0.02886,20.50122 -2.53252,35.22471 10.98463,46.23638c12.41259,10.11337 29.13621,10.48582 40.51911,-0.44596z"/>
   <path stroke="null" fill="#502170" fill-rule="evenodd" id="path40" d="m974.66302,713.58307c16.46085,11.83524 32.79275,-1.04913 32.79275,-20.53858l0,-111.92881c0,-35.35747 -24.22215,-47.89005 -52.19988,-31.17781c4.25317,7.85912 8.91995,5.92719 10.5967,20.0308l0.41497,91.73548c0,18.79363 -3.95789,43.00029 8.39029,51.87892l0.00516,0z"/>
   <path stroke="null" fill="#502170" fill-rule="evenodd" id="path42" d="m1702.10108,607.9785c-6.65035,2.25288 -12.93723,2.44609 -12.43461,10.93299c0.48591,8.19055 8.62618,8.09122 13.15367,11.45247c0.04557,26.53944 -4.5881,60.48567 11.178,75.67562c19.2279,18.52554 44.45786,12.06718 55.38827,-8.51773c-22.2682,-15.71718 -25.0521,11.12757 -25.08293,-69.95714c11.38153,-0.00456 26.26087,2.93716 24.81363,-10.31311c-1.20117,-10.99238 -13.55847,-8.25359 -24.80983,-8.25359c0,-10.26557 1.3997,-18.04738 -4.1075,-25.40146c-3.6576,-4.88581 -9.61972,-9.14414 -17.5434,-8.76775c-18.86958,0.89572 -18.42878,16.33964 -20.55529,33.14969z"/>
   <path stroke="null" fill="#502170" fill-rule="evenodd" id="path44" d="m1196.51913,627.8688c12.13675,-0.58768 26.34988,3.06612 24.89094,-10.69847c-1.19601,-11.28751 -13.05707,-7.86945 -24.89489,-8.5229c0,-17.7445 -1.91249,-33.13952 -20.16872,-33.7594c-18.65814,-0.63537 -21.29896,13.15109 -21.30549,30.8517l-12.40605,5.88739c-1.65625,16.35255 -0.13215,13.18329 12.41775,17.50345c-0.02127,26.57422 -4.55863,60.70591 11.16372,76.37676c19.89683,19.83106 43.37912,13.47584 55.38311,-7.9855c-5.074,-3.28136 -10.57088,-3.09194 -17.04078,-7.99203c-13.14972,-9.96254 -8.04352,-38.09626 -8.03957,-61.66102z"/>
   <path stroke="null" fill="#502170" fill-rule="evenodd" id="path46" d="m1396.11343,632.87856c4.72343,10.35428 1.01814,10.49478 9.41861,18.81672c25.65269,4.86014 36.1025,-21.59288 25.00699,-38.24709c-4.75579,-7.13748 -14.02752,-10.91628 -24.3458,-8.31541c-10.99876,2.77358 -14.0184,9.82462 -20.1584,17.83078c-5.4144,-11.26427 -3.35229,-17.83078 -15.66295,-21.28347c-12.98887,-3.64362 -23.20781,4.00695 -25.96468,13.40627c-1.95001,6.64382 -1.82622,70.1066 -1.15986,80.3708c1.86875,28.78959 35.89228,28.78838 40.6262,5.97109c5.30473,-25.56763 -8.84142,-64.13293 12.23988,-68.54969z"/>
   <path stroke="null" fill="#502170" fill-rule="evenodd" id="path48" d="m1785.29953,701.99922c4.26471,20.75898 37.27011,20.60041 40.34003,-2.25288c1.07358,-7.98428 1.05293,-66.44384 -0.25397,-73.67017c-4.21702,-23.3316 -38.13606,-22.03762 -40.64807,1.89958c-0.92412,8.80268 -0.91759,66.82403 0.56201,74.02348z"/>
   <path stroke="null" fill="#502170" fill-rule="evenodd" id="path50" d="m1799.2871,558.39499c-28.30247,10.60186 -10.60186,47.34612 13.97466,37.65805c22.06451,-8.69818 11.00134,-47.01226 -13.97466,-37.65805z"/>
  </g>
 </g>
</svg>