<?xml version="1.0" encoding="UTF-8" standalone="no"?>
<svg
   xmlns:dc="http://purl.org/dc/elements/1.1/"
   xmlns:cc="http://creativecommons.org/ns#"
   xmlns:rdf="http://www.w3.org/1999/02/22-rdf-syntax-ns#"
   xmlns:svg="http://www.w3.org/2000/svg"
   xmlns="http://www.w3.org/2000/svg"
   xmlns:sodipodi="http://sodipodi.sourceforge.net/DTD/sodipodi-0.dtd"
   xmlns:inkscape="http://www.inkscape.org/namespaces/inkscape"
   version="1.1"
   id="svg2"
   xml:space="preserve"
   width="453.54401"
   height="151.18266"
   viewBox="0 0 453.54401 151.18266"
   sodipodi:docname="oriflame.ai"><metadata
     id="metadata8"><rdf:RDF><cc:Work
         rdf:about=""><dc:format>image/svg+xml</dc:format><dc:type
           rdf:resource="http://purl.org/dc/dcmitype/StillImage" /></cc:Work></rdf:RDF></metadata><defs
     id="defs6"><clipPath
       clipPathUnits="userSpaceOnUse"
       id="clipPath20"><path
         d="M 0,113.387 H 340.158 V 0 H 0 Z"
         id="path18" /></clipPath></defs><sodipodi:namedview
     pagecolor="#ffffff"
     bordercolor="#666666"
     borderopacity="1"
     objecttolerance="10"
     gridtolerance="10"
     guidetolerance="10"
     inkscape:pageopacity="0"
     inkscape:pageshadow="2"
     inkscape:window-width="640"
     inkscape:window-height="480"
     id="namedview4" /><g
     id="g10"
     inkscape:groupmode="layer"
     inkscape:label="oriflame"
     transform="matrix(1.3333333,0,0,-1.3333333,0,151.18267)"><path
       d="m 247.424,33.139 h 62.942 v 0.623 h -62.942 z m -217.58,0 H 97.56 v 0.623 H 29.844 Z"
       style="fill:#231f20;fill-opacity:1;fill-rule:nonzero;stroke:none"
       id="path12" /><g
       id="g14"><g
         id="g16"
         clip-path="url(#clipPath20)"><g
           id="g22"
           transform="translate(229.9463,37.6816)"><path
             d="M 0,0 H 0.949 V -8.634 H 0.172 L -5.4,-1.556 V -8.634 H -6.352 V 0 h 0.913 L 0,-6.92 Z m -22.361,-0.889 h -5.266 v -2.95 h 4.711 v -0.886 h -4.711 v -3.021 h 5.328 v -0.888 h -6.303 V 0 h 6.241 z m -25.813,-0.013 h -2.021 v -6.83 h 2.021 c 2.184,0 3.578,1.478 3.578,3.402 0,1.924 -1.394,3.428 -3.578,3.428 m 0,-7.732 H -51.17 V 0 h 2.996 c 2.715,0 4.588,-1.863 4.588,-4.306 0,-2.44 -1.873,-4.328 -4.588,-4.328 m -18.287,7.745 h -5.266 v -2.95 h 4.711 v -0.886 h -4.711 v -3.021 h 5.327 v -0.888 h -6.301 V 0 h 6.24 z m -25.975,0.864 h 0.803 l 2.369,-7.213 2.465,7.188 h 1.024 l -3.082,-8.694 h -0.827 l -2.367,7.006 -2.381,-7.006 h -0.814 l -3.084,8.694 h 1.061 l 2.466,-7.188 z m -20.869,-3.871 c 1.924,-0.42 2.811,-1.124 2.811,-2.456 0,-1.493 -1.234,-2.454 -2.948,-2.454 -1.37,0 -2.491,0.458 -3.527,1.381 l 0.604,0.716 c 0.901,-0.814 1.764,-1.222 2.96,-1.222 1.159,0 1.924,0.607 1.924,1.482 0,0.813 -0.431,1.268 -2.245,1.651 -1.985,0.433 -2.897,1.075 -2.897,2.505 0,1.381 1.196,2.366 2.836,2.366 1.257,0 2.158,-0.356 3.033,-1.059 l -0.567,-0.752 c -0.8,0.652 -1.603,0.936 -2.491,0.936 -1.123,0 -1.837,-0.616 -1.837,-1.405 0,-0.826 0.444,-1.283 2.344,-1.689"
             style="fill:#231f20;fill-opacity:1;fill-rule:nonzero;stroke:none"
             id="path24" /></g><g
           id="g26"
           transform="translate(61.2061,65.1475)"><path
             d="m 0,0 c 0,-9.483 -7.688,-17.172 -17.171,-17.172 -9.482,0 -17.17,7.689 -17.17,17.172 0,8.514 6.195,15.579 14.324,16.936 l 0.028,-0.123 c -6.336,-2.464 -10.139,-8.435 -10.139,-15.41 0,-8.912 6.295,-14.029 12.957,-14.029 6.974,0 12.626,5.651 12.626,12.626 0,5.986 -4.735,10.968 -10.901,10.968 -7.135,0 -10.508,-6.481 -10.508,-6.481 l -0.111,0.038 c 0,0 3.211,9.303 12.511,9.303 C -7.819,13.828 0,9.153 0,0 m 149.465,-5.006 5.599,12.777 5.559,-12.777 z m 16.24,-11.682 h 4.904 l -13.593,30.035 h -3.817 l -13.594,-30.035 h 4.741 l 3.386,7.727 h 14.612 z M 17.845,-1.414 h 8.175 c 4.096,0 6.743,2.086 6.743,5.313 0,3.221 -2.445,5.068 -6.703,5.068 h -8.215 z m 21.05,-15.245 H 33.231 L 25.099,-5.542 H 17.845 V -16.659 H 13.39 v 29.837 h 12.915 c 6.654,0 11.035,-3.594 11.035,-9.157 0,-4.387 -2.795,-7.611 -7.395,-8.775 z M 17.843,-1.41 h 8.176 c 4.097,0 6.744,2.084 6.744,5.309 0,3.221 -2.445,5.068 -6.704,5.068 h -8.216 z m 21.053,-15.241 h -5.665 l -8.133,11.116 h -7.255 v -11.116 h -4.455 v 29.829 h 12.917 c 6.653,0 11.035,-3.594 11.035,-9.157 0,-4.383 -2.796,-7.607 -7.395,-8.768 z M 17.845,-1.414 h 8.175 c 4.096,0 6.743,2.086 6.743,5.313 0,3.221 -2.445,5.068 -6.703,5.068 h -8.215 z m 21.05,-15.245 H 33.231 L 25.099,-5.542 H 17.845 V -16.659 H 13.39 v 29.837 h 12.915 c 6.654,0 11.035,-3.594 11.035,-9.157 0,-4.387 -2.795,-7.611 -7.395,-8.775 z M 17.843,-1.41 h 8.176 c 4.097,0 6.744,2.084 6.744,5.309 0,3.221 -2.445,5.068 -6.704,5.068 h -8.216 z m 21.053,-15.241 h -5.665 l -8.133,11.116 h -7.255 v -11.116 h -4.455 v 29.829 h 12.917 c 6.653,0 11.035,-3.594 11.035,-9.157 0,-4.383 -2.796,-7.607 -7.395,-8.768 z m 210.286,-0.037 h -22.114 v 29.831 h 21.911 V 8.973 H 231.523 V 0.435 h 15.616 v -4.167 h -15.616 v -8.786 h 17.659 z m -53.26,7.848 -9.486,14.206 v -22.054 h -2.188 -2.185 v 29.831 h 4.21 l 10.096,-15.119 10.096,15.119 h 4.211 v -29.831 h -2.229 -2.228 v 22.09 l -9.485,-14.242 -0.406,-0.6 z m -65.127,-7.848 h -20.561 v 29.831 h 4.457 v -25.62 h 16.104 z m -51.955,0 H 74.383 V 13.143 H 96.17 V 8.933 H 78.84 V -0.056 H 94.332 V -4.223 H 78.84 Z m -21.54,0 H 52.845 V 13.141 H 57.3 Z"
             style="fill:#231f20;fill-opacity:1;fill-rule:nonzero;stroke:none"
             id="path28" /></g></g></g></g></svg>
