<svg width="499" height="391" xmlns="http://www.w3.org/2000/svg">

 <g>
  <title>background</title>
  <rect fill="none" id="canvas_background" height="602" width="802" y="-1" x="-1"/>
 </g>
 <g>
  <title>Layer 1</title>
  <g stroke="null" id="surface1">
   <path stroke="null" id="svg_1" fill-rule="evenodd" fill="rgb(10.980392%,38.823529%,71.764706%)" d="m153.70818,255.09384c3.63458,-1.11455 2.95402,7.58478 -0.82357,8.68945c-4.04391,1.18358 -2.25868,-7.72779 0.82357,-8.68945zm-70.7436,-1.11455c3.97486,-1.9677 3.56554,8.11739 -0.78905,9.80894c-4.66034,1.80989 -2.11071,-8.37877 0.78905,-9.80894zm-67.49861,1.68661c1.53865,-0.81865 3.05265,-1.1096 4.93652,-1.44989c0.94193,-0.15781 5.15351,-0.98138 5.74036,-0.29095c0.70029,0.82357 -0.25644,10.38098 4.00938,12.81719c1.85428,1.04549 5.02035,1.00111 6.77107,-0.13315c0.88769,-0.57699 1.45483,-1.25755 2.1699,-2.00715c0.57699,-0.57207 1.46469,-1.99237 2.08113,-2.22908c0.94686,0.46851 1.49427,3.5754 3.47677,4.59131c2.67785,1.38578 4.32992,-1.09974 5.72556,-1.86414c-0.43398,4.46801 3.1069,1.2033 4.56172,-0.07398c1.85921,-1.62742 6.90422,-7.09655 8.84727,-6.77599c1.86907,0.31069 3.60499,6.0116 4.78857,7.70313c2.39674,3.4521 5.48392,-0.33042 7.15572,-2.4658c0.33535,1.86907 0.35507,2.42635 1.56825,3.33376c2.13045,1.6077 5.57269,0.10356 7.22478,-1.52879c0.59671,-0.59671 1.95784,-2.48552 2.3573,-2.65813c0.80877,0.49316 1.62248,4.01431 4.49267,4.56665c2.75183,0.54248 5.10912,-2.52991 6.34202,-2.64827c0.99618,0.94194 0.97644,2.44114 3.04278,2.62855c1.88387,0.18247 3.11676,-0.75454 3.965,-1.68168c0.45864,-0.51288 0.937,-0.85809 1.37591,-1.41042c0.86304,-1.06522 3.12662,-4.05377 4.39898,-4.05377c1.41536,1.62742 0.25644,8.74864 4.90199,6.84011c1.14906,-0.47343 1.72606,-1.13427 2.43127,-1.74578c1.45481,-1.26249 2.59402,-2.64333 3.86636,-4.33487l3.23512,-4.95131c2.34744,-0.33042 3.69869,4.93159 2.11073,6.83517c-1.81976,2.17976 -4.44337,-1.49427 -5.31133,1.35125c-0.97152,3.25978 5.6664,5.50858 11.48073,0.6411c0.58193,-0.49315 2.21429,-2.34249 2.83567,-2.41154c0.83837,0.79891 1.21317,3.83677 4.37925,4.92173c1.25755,0.4389 2.7962,0.19726 3.86636,-0.30576c1.36605,-0.63124 1.54358,-1.38084 2.45593,-2.27346c0.26631,0.34028 0.52274,0.91727 0.79399,1.29207c1.88386,2.62361 5.62694,1.18852 7.56504,-0.57699c0.60166,-0.5474 1.57318,-2.06634 2.05648,-2.37702c0.69535,0.33042 1.3118,2.85539 2.90964,3.90582c1.78029,1.18852 3.50635,-0.05425 5.02035,-0.937c0.52274,0.7348 0.41426,3.05759 3.94527,-0.13315c2.39675,-2.16496 4.59624,-4.45322 7.18533,-6.44065c1.81482,-1.38577 2.88991,-1.63236 4.18198,0.35507c1.85428,2.86525 3.81704,12.86158 9.41932,4.36445c0.70029,-1.05535 2.32278,-3.94033 0.53755,-4.85268c-0.90741,-0.10356 -2.95403,5.62201 -5.62695,1.56825c-1.17864,-1.80989 -1.86906,-4.96118 -2.65319,-7.20998c-2.0466,-5.85872 -4.2165,-1.93318 -7.06203,1.7951c-0.51288,0.69042 -1.55837,2.38196 -2.44113,2.54963c-1.39564,-0.73974 -1.08988,-4.18198 -2.03674,-5.32118c-0.65098,-0.48823 -1.85428,0.28603 -2.38689,2.01701c-0.36987,1.17866 -0.63617,2.40169 -0.95672,3.62965c-0.20712,0.88769 -0.6707,2.97868 -0.99618,3.60499c-0.36001,0.71015 -1.73099,1.86907 -2.9984,1.58304c-2.76662,-0.61152 -2.90964,-8.08288 -3.13156,-10.78538c-0.07398,-0.80385 -0.36001,-1.12933 -0.94194,-1.41537c-2.52497,-1.25755 -2.29318,0.937 -2.52497,1.69154c-1.28221,0.02959 -1.61262,-2.2784 -4.12774,-1.66195c-2.67291,0.6707 -4.34966,4.12774 -5.17323,6.53929c-0.55727,1.60276 -0.8581,3.07731 -1.75565,4.2313c-2.67292,3.36334 -4.90199,-0.29589 -5.23241,-3.77266c-0.26631,-2.85539 0.48823,-7.81657 1.18358,-10.4451c1.78523,-0.16767 6.40613,0.61152 6.81052,-1.30194c0.53754,-2.60388 -4.35952,-1.80989 -6.12996,-1.95784c0.00987,-1.69153 0.77919,-3.98472 0.37973,-5.67133c-0.48822,-0.3452 -1.27235,-0.78905 -2.17976,-0.68056c-1.55837,0.19726 -1.93811,5.68119 -2.68771,6.2286c-1.32167,0.55234 -4.99077,-0.59179 -5.3853,1.43016c-0.37973,1.92332 3.37813,1.91345 4.98583,1.96277c0.07397,0.39945 -0.99618,7.24942 -1.16878,8.40835c-0.22192,1.6077 -0.2959,2.36716 -1.15399,3.54088c-0.34029,0.46357 -1.84442,2.09593 -2.9343,1.63728c-0.22686,-0.53754 -0.26137,-2.17482 -0.41918,-2.90963c-0.17754,-0.98139 -0.44385,-1.84935 -0.83838,-2.66799c-1.15892,-2.38196 -5.56775,-7.31354 -7.8067,-5.02036c-0.74466,0.7644 0.17753,1.81976 -0.17754,3.03293c-0.56712,1.88879 -2.77647,5.1831 -3.96499,6.45051c-0.61152,0.6411 -3.07731,3.2006 -4.48775,1.43016c-1.86414,-2.33263 1.00111,-11.50045 -2.77648,-11.17989c-0.72001,0.7496 -1.22303,2.0614 -1.86907,3.24498c-1.13919,2.10085 -2.53483,4.46801 -4.39897,5.89817c-0.86302,0.68057 -2.01209,1.9036 -3.71349,1.54853c-1.46467,-0.7644 1.05536,-7.66369 0.53262,-9.66098c-0.20712,-0.77426 -1.57811,-1.36605 -2.59895,-1.01097c-0.67562,0.4685 -1.50413,7.72287 -2.67291,10.40071c-2.16004,4.97104 -4.75898,2.79622 -6.0116,-1.42522c-1.63236,-5.50859 -1.20824,-12.33391 -0.9666,-18.15811c0.05919,-1.38084 0.36001,-2.11071 -0.62137,-2.66305c-0.63618,-0.36493 -1.78524,-0.76933 -2.6532,-0.40439c-1.00111,1.11454 -1.04549,10.73113 -1.44002,13.03417c-0.79399,0.15781 -1.53373,-0.90248 -2.70744,-0.89262c-2.68772,0.00494 -4.67515,3.19074 -5.70584,5.53817c-0.83344,1.90359 -0.92714,3.99458 -2.23402,5.27186c-6.17928,6.06585 -6.00173,-10.01605 -9.35029,-10.67195c-2.47565,-0.49809 -5.78967,7.19519 -7.5897,7.31847c-1.31181,-1.16385 -1.11455,-3.80718 -1.96771,-5.37543c-3.21046,-0.28603 -2.83073,6.59354 -4.42362,8.87685c-2.2784,3.29431 -6.6034,3.36827 -6.47518,-2.36222c0.04439,-1.97263 1.14413,-3.08225 0.28603,-5.91298c-1.03069,-3.40773 -4.52226,-2.02688 -5.00063,4.90693c-0.12822,1.85428 -1.3118,3.28937 -2.27346,4.3398c-1.0159,1.11947 -2.90963,2.15018 -4.58144,0.68056c-2.62361,-2.28332 -1.97757,-14.53337 -1.52386,-17.62055l1.25755,-5.46419c0.07891,-2.04662 -2.66306,-2.3425 -4.26583,-1.46469c-2.36222,1.30194 -1.79509,7.353 -2.48552,10.87415c-1.44988,0.60166 -9.27138,1.63729 -10.77551,1.20824c-0.36001,-0.77918 -0.57699,-6.52941 -0.71508,-7.94477c-0.26631,-2.73703 -0.03945,-5.68612 -3.7628,-4.63076c-2.99347,0.84823 -1.42522,3.22525 -0.96658,6.01653c0.42411,2.59895 0.58685,5.34091 0.55234,8.04835c-0.06905,4.09322 -0.42906,8.03355 -0.75947,12.10211c-0.14301,1.56331 -0.48822,2.63839 0.7496,3.24992c1.08989,0.53754 2.73211,0.33042 3.56554,-0.27125c0.86304,-0.62137 0.86796,-2.16003 0.99619,-3.36334c0.31069,-2.74689 0.23672,-5.42967 0.4685,-8.12725zm462.05507,2.94909c-0.86302,6.44065 -7.39737,8.073 -5.75023,1.05536c0.45371,-1.94798 1.64222,-4.36939 2.79128,-5.25214c0.99125,-0.7644 2.3425,-0.29097 2.7321,0.50302c0.42412,0.86302 0.36987,2.67785 0.22686,3.69376zm-20.30334,2.78634c-2.39182,-2.44607 -0.52274,-7.96944 1.90359,-6.78586c1.22797,0.60165 1.32167,2.67785 0.91235,4.02417c-0.39453,1.33646 -1.4203,2.48552 -2.81594,2.76169zm-71.54252,1.25755c1.14906,0.78905 1.3118,3.49157 3.52115,4.542c2.59402,1.24277 4.25597,-1.08494 5.65161,-1.94798c-0.68549,6.69216 7.17545,-3.14142 9.94208,-5.58255c3.83183,-3.35841 3.68882,0.08877 3.51621,3.95513c-0.06411,1.3266 -0.71015,3.80225 0.86304,3.90582c1.05535,0.08384 2.36222,-1.69647 2.85538,-2.28826c1.12934,-1.39564 3.52609,-4.69981 4.49761,-5.65653c3.45705,-3.37813 3.64444,0.12822 4.02911,3.60005c0.39453,3.61485 0.95672,5.69598 4.90693,3.68883c3.23512,-1.63236 5.2916,-4.03403 5.92284,-4.30034c1.44988,0.8581 1.48441,5.31625 5.55296,4.94638c3.58527,-0.32056 4.64556,-4.20664 5.97215,-4.42857c0.99125,1.64223 1.70633,3.57047 4.40884,4.32994c2.68772,0.73974 5.17324,-0.78412 6.71189,-1.84442c0.60657,0.24659 1.27727,1.34633 3.02306,1.69154c2.47072,0.50302 5.52338,-0.45371 7.50587,-1.86414c1.17372,-0.83344 2.00715,-2.06634 2.78141,-2.03182c0.6707,1.49427 0.39453,2.32771 1.63729,3.49649c0.99125,0.90741 2.64333,1.0603 4.21158,0.6411c3.70855,-0.97644 4.67021,-4.34472 5.71077,-4.61596c0.62632,0.59673 2.04662,5.47406 6.22366,4.47295c1.38084,-0.33042 2.68278,-1.13919 3.49157,-1.93318c1.10468,-1.06029 1.98249,-1.83948 1.02083,-3.79238c-1.11947,0.08877 -1.14413,1.32166 -2.97867,1.82962c-6.76614,1.87893 -4.61104,-21.68419 -4.77871,-23.5138c-0.10356,-1.08002 -2.06634,-1.96277 -3.28443,-1.41537c-1.13427,0.91727 -0.90741,10.99744 -1.51893,13.09829c-0.90741,-0.01972 -2.78634,-2.50032 -5.90311,0.63124c-3.00334,3.02306 -3.09703,7.51574 -6.58366,10.37606c-1.37098,1.11947 -4.56665,2.23401 -6.10037,0.41426l2.91456,-2.20443c0.70029,-0.5622 1.78523,-1.86414 2.22415,-3.06251c1.75071,-4.78364 -4.12281,-12.04293 -9.1481,-3.03786c-1.78029,3.18581 -1.6718,5.62201 -1.27727,8.7437c-3.89596,1.74085 -5.79954,-0.71015 -6.30257,-4.54692c-0.24658,-1.82468 0.35507,-9.76947 1.19344,-10.87908c1.11454,-0.70028 6.23352,0.83344 6.73655,-1.32166c0.60659,-2.61374 -4.26583,-1.98743 -6.12996,-2.01209c0.15287,-2.4658 1.15399,-5.3853 -0.08384,-6.0264c-0.58685,-0.29589 -1.35125,-0.41425 -2.08606,-0.23672c-0.97152,0.937 -1.66687,4.64556 -2.23894,6.20393c-1.73098,0.06905 -5.22747,-0.41425 -5.47899,1.46469c-0.23672,1.77537 3.46198,1.81482 5.00555,1.84934c0.08384,0.30083 -1.2181,9.01495 -1.41044,9.94208c-1.39563,6.75135 -7.04723,8.17658 -7.48121,1.7162c-0.10849,-1.5929 0.77919,-2.88005 0.50796,-5.21761c-0.18247,-1.514 -0.90249,-3.53102 -2.71238,-2.69266c-2.60881,1.19838 -2.18469,6.70696 -2.97375,8.56123c-0.5326,1.19345 -1.77537,2.30305 -3.01812,2.82087c-2.23402,0.94686 -2.32278,-1.11947 -2.5447,-2.86033c-0.28603,-2.28826 -0.91235,-7.52067 -2.3721,-9.18754c-1.20824,-1.36605 -2.97374,0.48329 -3.61977,1.14906c-1.41044,1.43016 -4.45815,5.67625 -5.8242,5.76995c-1.40551,-1.56825 -1.34139,-9.26152 -4.68009,-6.6971c-2.28332,1.77043 -4.25595,6.35188 -5.75516,6.82038c-1.51892,-1.13919 -1.04057,-5.22254 -2.11565,-5.4346c-2.59894,-0.50796 -2.92444,7.0275 -4.07842,8.7585c-0.59673,0.90741 -1.57811,1.86907 -2.77648,2.22907c-1.78523,0.52768 -2.89977,-0.34521 -3.37813,-1.61756c-1.23289,-3.2795 1.02577,-5.68611 -0.21698,-8.97056c-1.05044,-2.78141 -3.64938,-1.7655 -4.54693,2.451c-0.71015,3.33868 0.35507,4.81816 -3.51621,6.76613c-1.87401,0.94194 -6.28285,1.98251 -8.63028,1.26742c-1.44495,-0.44384 -1.55839,-1.72112 -1.77537,-3.3732c-0.71508,-5.19297 -0.1874,-13.46816 1.37098,-18.37509c0.51288,-1.6225 0.78905,-2.85045 -0.97152,-3.44224c-1.37098,-0.45865 -2.99348,0.08877 -3.71349,0.85316c-0.83837,0.87288 -0.93207,2.48058 -1.19344,3.97979c-0.92714,5.44941 -1.76551,13.2857 -0.79399,18.69071c0.25151,1.38577 0.61645,2.69758 1.30194,3.83183c0.73974,1.20825 1.3907,1.66195 3.29431,1.83949c3.91074,0.36 9.23685,-0.82358 12.55088,-2.72717c0.57699,-0.32548 1.09975,-0.66084 1.48934,-1.00605c0.47837,-0.41918 0.91235,-0.99124 1.44495,-1.18358zm-101.54628,-1.25755c-2.39675,-2.95895 -0.28604,-7.83135 1.99729,-6.74147c2.10579,1.00604 1.07015,6.53435 -1.99729,6.74147zm-11.43142,-19.56853c1.32166,-0.7348 1.9677,1.13919 2.12551,2.30799c0.44878,3.31403 -0.63124,9.37987 -2.09592,11.81607c-1.85428,3.06745 -1.92826,-5.49872 -1.92332,-6.52449c0.02466,-1.72112 0.11342,-6.6034 1.89373,-7.59957zm-37.44554,10.65716c-2.15017,-0.2022 -2.42633,2.00715 -2.88005,3.80225c-0.47836,1.83948 -0.91727,3.65923 -1.43509,5.38529c-0.31069,1.07508 -1.61262,4.58145 -0.64603,5.37543c1.19344,1.00605 3.86636,-1.66687 4.32006,-2.10085c1.44989,-1.3907 5.7157,-5.37543 7.20012,-6.2927c2.03674,-1.26249 3.03292,0.49809 3.78252,1.96276c0.78905,1.54853 1.37098,3.17101 2.19949,4.63076c4.10308,7.19519 6.48996,-5.99187 8.73384,-2.50032c1.30686,2.03182 2.18962,4.7294 5.51844,4.64556c2.08606,-0.04931 3.69376,-0.72001 5.06474,-1.6225c2.44607,-1.61756 2.42633,-2.31291 4.24609,-0.62137c1.10468,1.03563 2.33264,2.27346 4.72446,2.13537c2.41647,-0.13315 3.36827,-1.04057 4.99076,-1.82962c1.20331,0.94686 1.97757,2.03182 4.45815,1.93812c1.91346,-0.07891 3.59019,-0.57699 5.02035,-1.37098c3.60007,-1.99729 5.74037,-6.22859 6.78094,-6.00667c1.15399,0.6707 1.40056,5.02035 3.37813,6.61819c2.50032,2.02195 5.79461,-0.72001 6.87463,-2.06634c1.50906,-1.87893 2.56936,-3.83677 3.45704,-6.53929c0.54741,-1.69153 2.01702,-7.353 0.2022,-8.34424c-1.98743,-1.09975 -4.32008,1.7655 -3.98966,5.72556c0.12329,1.71126 0.73974,2.3721 0.43398,4.4039c-0.20712,1.33153 -0.79891,2.89978 -1.55345,3.58033c-2.23401,2.02688 -3.71841,-3.48663 -4.21156,-5.18802c-0.6707,-2.34744 -1.20824,-5.88832 -2.61867,-7.51574c-1.92332,-0.03452 -2.28333,2.29812 -2.92444,4.04883c-1.1096,3.028 -2.91456,6.94861 -5.64173,8.54644c-1.49427,0.8581 -4.20664,1.17372 -5.29652,-0.22684c0.78412,-0.79893 4.18198,-2.39675 5.18802,-5.2916c0.99125,-2.87019 -0.87782,-6.66257 -3.07731,-7.18533c-3.73813,-0.89754 -6.8401,4.56173 -7.49601,8.24069c-0.50795,2.9195 0.06412,3.44718 0.06905,4.95624c-2.94416,1.44002 -5.42967,-0.42412 -6.57874,-2.3425c-0.62137,-1.04549 0.07398,-1.63728 1.02577,-3.50143c0.55727,-1.1096 1.08002,-2.2636 1.52387,-3.4521c1.63728,-4.30034 2.76169,-13.57666 -0.35015,-16.68849c-2.54469,-2.55456 -5.10419,-0.36987 -6.26804,1.69153c-2.81594,4.96118 -3.12662,11.29826 -2.04662,16.93014c0.30576,1.61262 1.0455,3.68882 1.08496,3.93541c0.15287,0.84823 -1.47455,2.19948 -2.33264,2.68278c-2.68278,1.53372 -5.68119,0.42411 -6.61818,-1.92826c-1.1688,-2.93922 1.16385,-5.18802 -0.34029,-8.58589c-0.9222,-2.07126 -3.52607,-1.78523 -4.49267,3.19567c-0.34521,1.77537 -0.07397,2.58416 -0.8729,4.15239c-0.49809,0.9666 -1.31672,2.47072 -2.77647,2.23401c-2.5743,-0.41425 -3.61486,-7.34806 -4.93652,-10.09495c-1.96277,-4.07842 -4.80829,1.39564 -7.4467,4.64062c-2.66305,3.28937 -2.12059,-1.20824 -3.44718,-4.16225zm-10.05056,-12.85665c-1.05044,0.36495 -1.87895,1.35126 -2.21429,2.66306c-0.97646,3.85157 2.33757,5.33597 1.37591,12.96514c-0.34028,2.68278 -1.03563,5.56777 -2.40661,7.43683c-2.9984,4.0587 -13.21171,5.41489 -10.95305,-13.57172c0.19726,-1.64222 1.51893,-7.6834 0.91235,-8.74862c-0.6707,-1.19345 -3.02306,0.06411 -3.59513,0.60165c-0.83837,0.80877 -1.19344,2.0614 -1.58797,3.42252c-1.44495,5.06474 -2.21921,12.17608 -0.15287,17.17178c0.97152,2.33757 2.57428,4.14253 4.75898,5.12391c2.41154,1.09482 5.85872,1.38578 8.58095,0.52768c8.12233,-2.54469 9.09385,-13.55199 8.64507,-21.13184c-0.13315,-2.2488 -0.46357,-7.50095 -3.36334,-6.46038zm92.11215,20.98883c-0.28109,-1.5929 -0.43398,-3.24498 0.20714,-4.73925c1.57317,-3.69869 6.12503,-0.54248 3.39785,2.84059c-0.66084,0.82851 -2.04168,1.67181 -3.60499,1.89865zm17.95097,0.18247c-2.35729,-0.18247 -1.4055,-8.39849 -2.78634,-9.28124c-2.07126,-0.44384 -2.45099,2.59402 -2.96388,4.11788c-0.61646,1.85428 -1.43017,3.39787 -2.39183,4.83788c-3.59512,5.26694 -8.77328,4.2313 -8.82261,2.15018c0.78413,-0.54248 2.05154,-0.937 3.06745,-1.35619c3.965,-1.69647 5.56283,-5.24228 3.10197,-8.41822c-3.13156,-4.03403 -8.63028,-1.34633 -10.39085,3.90088c-1.85428,5.54803 0.11836,10.96785 6.17928,10.63251c5.03022,-0.28111 8.28506,-4.35459 9.97661,-8.0878c0.79398,0.93207 1.1244,5.70584 2.29812,7.31354c2.65319,3.64444 4.77378,-5.70584 7.58478,-10.22812c0.8433,-1.37591 3.66418,-5.37049 5.22749,-2.7321c0.70029,1.16386 1.874,1.66195 3.26964,1.22797c1.18358,-0.36987 1.93318,-1.64715 1.57318,-3.15129c-0.77427,-3.27457 -7.75246,-4.68007 -11.76677,2.54964c-0.91234,1.65701 -2.63346,6.03626 -3.15621,6.52448zm52.57564,-22.31049c-3.51621,0.97152 -2.88005,7.08669 0.79893,6.09051c1.22796,-0.33535 2.32771,-1.75565 2.36222,-3.49649c0.02466,-1.73099 -1.36111,-3.08718 -3.16115,-2.59402zm45.8391,0.00986c-3.45704,0.91235 -2.92936,7.12122 0.87288,6.04612c1.22797,-0.33534 2.25868,-1.77043 2.30305,-3.46196c0.02959,-1.76057 -1.43509,-3.04773 -3.17593,-2.58416zm-175.5546,-0.54248c-3.48663,1.10961 -2.67292,7.24451 1.08988,5.98202c1.16386,-0.38467 2.18963,-1.89867 2.1699,-3.55568c-0.0148,-1.65208 -1.45975,-2.99347 -3.25978,-2.42635zm-214.78536,0.39453c-3.41759,1.10468 -2.64825,7.21492 1.09975,5.98695c1.1096,-0.36493 2.20441,-1.8592 2.20441,-3.54088c-0.00492,-1.68659 -1.51892,-3.02306 -3.30417,-2.44607"/>
   <path stroke="null" id="svg_2" fill-rule="evenodd" fill="rgb(10.980392%,38.823529%,71.764706%)" d="m188.61888,88.82048c0.41918,0.47837 0.63124,0.62632 1.34633,0.86304l3.48663,0.94193c0.64604,0.20712 1.21317,0.29589 1.54851,0.80385c-0.18247,0.69042 -0.91235,1.04549 -1.45481,1.41044c-0.62632,0.40439 -1.19838,0.76932 -1.84442,1.15891c-7.53053,4.45323 0.36001,3.59513 1.30687,3.72335c1.8444,0.25645 3.20553,-0.17753 4.72445,0.62138c-0.10849,1.3118 -2.10085,3.00826 -2.93922,4.09814c-1.22797,1.5929 -5.12885,5.09433 -5.12885,7.12122c0,1.08494 1.91345,0.53754 2.42141,0.34028c1.79509,-0.72987 2.41647,-1.19838 3.90582,-1.96277c1.48933,-0.73973 3.95513,-2.39182 5.38529,-2.43127c0.44384,0.66577 0.3896,0.49316 0.3896,1.44003c0,2.09592 -1.34633,6.39626 0.91727,6.39626c0.72001,0 1.79509,-0.85809 2.30305,-1.33646c2.85045,-2.64333 2.6088,-2.52497 3.34854,2.84553c0.12822,0.96165 0.19233,1.59289 0.40932,2.45099c0.11836,0.45864 0.15781,0.7348 0.36987,1.08002c0.58685,0.9666 1.30686,0.93207 1.88387,0.02959c0.27617,-0.43398 0.36493,-0.69043 0.52767,-1.17372c0.69043,-2.12551 1.33647,-5.1831 1.84935,-6.62312c0.19233,-0.56221 0.34521,-0.63124 0.63617,-1.05536c1.77537,0.41425 1.93812,2.73703 3.51129,2.73703c1.35619,0 0.68057,-4.69487 2.21429,-4.69487c1.05536,0 4.68007,3.40279 6.09051,4.47787c0.71508,0.54741 3.28443,2.16497 3.28443,0.217c0,-3.65924 -3.38307,-7.5256 -3.38307,-10.44017c0,-1.20824 4.40392,0.63617 5.12393,0.86796c1.09974,0.36987 6.94367,2.60388 6.6675,-0.0148c-0.32548,-2.97868 -7.75738,-7.97438 -7.75738,-10.10975c0,-1.65701 7.03244,-2.75183 7.03244,-4.17706c0,-1.6077 -8.35411,0.01973 -10.62263,0.9666c-3.34855,1.4055 -2.04662,2.32771 0.81863,5.19788c1.00111,0.99619 2.90472,2.6532 2.90472,4.01431c0,1.47948 -4.60118,-0.56713 -5.00557,-0.72987c-1.91839,-0.7348 -3.59019,-1.29701 -3.59019,0.85809c0,1.44003 1.40058,4.35953 2.04168,5.78476c0.32056,0.72493 0.56713,1.15399 0.56713,2.17482c-1.04057,-0.08383 -3.5606,-2.89977 -4.56172,-3.65924c-0.35507,-0.27123 -1.28222,-1.03563 -1.8247,-1.03563c-1.48933,0 0.20714,5.0894 -1.297,5.0894c-1.06522,0 -1.59783,-3.39785 -2.87019,-3.39785c-1.44495,0 -1.22303,5.72556 -2.73703,6.12995c-0.66082,-0.49315 -0.65096,-2.20935 -0.64603,-3.38799c0.03452,-7.13108 -2.85539,-1.16385 -4.23623,0.58193c-0.53754,0.68056 -1.09975,0.57206 -1.09975,0.07397c0,-2.2636 1.57318,-6.26804 0.12823,-6.26804c-1.02577,0 -2.17977,0.71015 -2.94417,1.08494c-0.95672,0.4833 -2.22907,1.26742 -3.18087,1.26742c-1.94798,0 4.82802,-4.93652 4.82802,-6.52449c0,-1.72606 -7.29875,-0.55727 -7.11134,-2.44113c0.13315,-1.46469 5.02035,-2.95403 5.02035,-4.6061c0,-1.7162 -8.96068,-2.36716 -11.61881,-1.72606c-0.75454,0.17754 -0.83344,0.37973 -1.1392,0.94686"/>
   <path stroke="null" id="svg_3" fill-rule="evenodd" fill="rgb(10.980392%,38.823529%,71.764706%)" d="m256.59093,203.09519c0,-2.80114 3.64444,-2.80114 3.64444,0c0,2.09099 -3.64444,2.09099 -3.64444,0zm-17.70933,-0.39946c-0.22684,0.98632 -0.38959,1.89373 -1.2181,2.56442c-1.99729,1.62742 -5.65653,0.81371 -6.09545,0.2022l-1.09974,-2.93923c-0.23672,-0.44878 -0.45864,-0.80877 -0.7496,-1.2033c-0.78412,-1.02577 -2.17483,-2.48552 -3.4669,-2.79622c0.82851,3.55074 -1.46962,6.7908 -5.73544,6.7908l-2.99348,-0.13315c0.14795,0.56713 1.5929,1.74578 2.14032,2.1551c0.83837,0.6411 1.71126,1.14906 2.7962,1.514c1.05536,0.35507 2.33264,0.52768 3.65924,0.61645c3.58033,0.28111 3.19567,1.17372 5.9179,2.83567c4.67021,2.83566 6.95353,3.05758 12.57555,3.05758c3.95019,0 7.96944,-2.63347 8.4626,-2.74196c0.31562,1.38084 2.23401,2.59894 3.91568,2.59894c2.10087,0 6.8993,-0.36987 6.8993,-2.47072c0,-0.90249 -1.23291,-0.55727 -1.82962,-0.52274c-1.05043,0.05424 -1.45483,0.16273 -2.37702,0.04438c-0.43892,-0.06905 -0.79399,-0.02466 -1.21811,-0.0937c-0.36493,-0.05917 -0.66576,-0.14794 -1.06522,-0.24164c-0.49809,-0.11343 -1.4203,-0.45371 -1.89865,-0.71015c-1.27236,-0.68057 -1.96277,-1.28714 -2.84553,-2.3573c-0.41426,-0.50302 -0.72494,-1.01097 -1.01591,-1.60276c-0.46357,-0.937 -0.98138,-2.12059 -2.56935,-0.61645c-0.38467,0.36987 -0.69536,0.61645 -1.12441,0.95672c-5.67625,4.44336 -13.89228,3.25978 -14.40023,1.35619c3.00334,0.70029 7.37272,-0.04931 10.18865,-1.26249c4.50748,-1.94798 5.38036,-4.86254 7.12614,-4.86254c1.29208,0 1.52387,0.82357 2.08113,1.9529c0.43892,0.86302 0.82851,1.63236 1.46469,2.31291c2.39182,2.57922 6.2779,4.4335 8.4478,0.03945c0.66577,-1.37098 0.90741,-3.23018 1.54853,-4.56665c0.28603,0.02467 0.82851,0.33042 1.50906,-0.18247c0.36987,-0.27617 0.44384,-0.62137 0.44384,-0.99124c0,-1.04057 -1.13919,-1.16878 -1.46961,-1.92332c-0.6559,-1.48934 0.14301,-2.25866 -1.78031,-2.25866c-0.55726,0 -0.80385,0.82357 -0.91234,1.30686c-3.25978,-0.75452 -4.45323,-1.33152 -7.94479,-0.51781c-0.69043,-0.46851 -2.5447,-2.80114 -5.07954,-3.39293c-0.08877,1.15399 -0.79399,2.50032 -1.30194,3.25978c-0.68549,1.05536 -1.22303,1.58303 -2.19455,2.36716c-0.8729,0.70029 -1.78031,1.17864 -2.94416,1.62248c-0.93207,0.36495 -2.64827,0.83344 -3.84664,0.83344"/>
   <path stroke="null" id="svg_4" fill-rule="evenodd" fill="rgb(10.980392%,38.823529%,71.764706%)" d="m287.71416,128.47537l0,-0.3896c1.01591,0 1.14413,0.27617 2.28332,1.75071c0.30576,0.3896 0.4833,0.6707 0.88769,0.94194c0.51288,0.34028 0.77426,0.27617 1.25755,0.04438c0.58193,-0.59671 -0.46356,-3.52609 0.66084,-2.9047c0.34028,0.1874 0.8581,1.59784 1.2181,2.20443c0.38467,0.6559 0.86796,1.47453 1.60278,1.78523c0.23672,0.1085 0.5474,0.22192 0.81371,0.08877c0.38959,-0.13808 0.13315,0.19233 0.39453,-0.39453c0.10356,-0.23672 0.10356,-0.44878 0.11836,-0.77919c0.04438,-0.52768 0.00986,-1.30686 0.52768,-1.30686c0.61151,0 0.58685,0.81371 0.68548,1.40056c0.44878,2.67786 2.66306,2.34744 2.69758,3.81705c-1.70633,0.39453 -2.54963,-1.06029 -4.59131,1.01591c-0.33534,0.3452 -1.78523,1.874 -1.78523,0.55234c0,-1.08988 1.3118,-1.53865 1.55839,-2.60881c-1.35126,-2.01209 -4.7146,2.01702 -6.64285,1.57811c0,-1.4055 1.80496,-1.61756 1.69647,-2.49046c-0.1874,-1.70139 -4.47295,0.52768 -5.59736,-0.65096c0.18248,-0.67563 0.74468,-0.66576 1.45975,-0.75454c0.86304,-0.11836 1.20331,-0.18247 1.66689,-0.67562c-0.07891,-0.94194 -0.91235,-1.53373 -0.91235,-2.22415zm-6.1201,-3.78253c0,5.08447 2.53484,10.96785 6.72175,13.09337c7.06697,3.57046 13.69008,-0.70029 14.76518,-0.70029c3.85649,0 8.40342,5.34091 4.15239,11.07141c-0.22686,0.29097 -0.89755,1.06522 -1.15892,1.06522c-1.01097,0 -1.69647,-1.35619 -1.69647,-2.6088c0,-1.57318 1.45975,-6.91902 0.39946,-6.91902c-0.8581,0 -2.89484,1.57811 -3.36335,2.12551c-2.1551,2.60881 -2.58414,4.89213 0.39453,7.10148c1.16878,0.86796 2.19949,1.31674 3.48171,1.99237c-0.05425,0.19233 -2.13045,3.75293 -2.76662,5.43953l-0.35507,0.82357c-0.02959,-1.45481 -3.54088,-10.45003 -4.54692,-12.13663c-0.937,-1.56331 -1.93812,-2.51511 -3.74308,-3.04772c-0.78905,-0.23178 -1.9677,-0.47343 -2.9047,-0.47343c0.08384,0.19233 0.13315,0.34028 0.23179,0.54248l1.06029,1.54851c2.83073,3.70855 8.99521,9.09877 8.76343,14.81941c-0.00987,0.26631 -0.03945,0.53262 -0.03945,0.82851c-0.79399,-1.14413 -1.09482,-5.13379 -7.26423,-10.0555l-2.2636,-2.04662c-2.15017,-2.47072 -1.66687,-6.67243 -5.57269,-7.58971c1.36111,2.57922 -2.3425,6.78586 0.79891,9.11357c0.91727,0.68549 1.68661,0.87783 2.9343,1.23291c3.45704,1.00604 5.35571,1.52386 7.59464,4.91185c1.26742,1.91346 1.93318,3.41266 2.77156,5.56283c0.2663,0.68056 0.94193,2.61374 1.00111,3.31403l0.26137,0c0.08877,-0.38467 1.23783,-2.39182 1.514,-2.7962c0.84329,-1.24277 1.37591,-1.77537 2.9195,-1.77537c1.77537,0 1.82468,2.58414 1.82468,3.78252c1.26249,-0.34028 3.51129,-4.45322 3.51129,-6.78093c0,-0.98632 0.02959,-2.39675 -1.37098,-2.68278c-1.25263,-0.24658 -2.23401,1.01591 -3.09211,1.86414c-0.79891,0.79891 -1.3266,1.90359 -2.8258,2.25374c1.19344,-5.12885 7.03244,-8.9459 7.03244,-13.82817c0,-4.18198 -2.41647,-6.6823 -5.27186,-8.42808c-3.11676,-1.91839 -1.65701,-0.92713 -4.07842,-4.1376l-3.17593,-3.59019c-3.24498,-2.63841 -5.19296,-2.65813 -9.6018,-2.23401c-1.94798,0.19726 -4.25103,0.59179 -6.27298,-0.65591c-0.81865,-0.50301 -0.76933,-0.47343 -0.76933,0"/>
   <path stroke="null" id="svg_5" fill-rule="evenodd" fill="rgb(10.980392%,38.823529%,71.764706%)" d="m271.29691,97.68747l2.08607,0.79891c0.4537,0.17261 0.39945,0.03453 0.5326,0.50796c-0.83343,0.19233 -1.79017,0.32055 -2.61867,0.52274c0.02959,0.99124 0.82851,1.33646 0.91728,2.3425c-0.69043,-0.05919 -1.77537,-0.64604 -2.20443,-0.64604c-0.89262,0 -1.12933,1.69647 -2.09099,1.95784l-0.15781,-2.60881c-0.7644,-0.18739 -1.59783,-0.13315 -2.57428,-0.13315c0.23672,-1.05043 0.95672,-0.79398 1.81976,-2.08606c-0.26137,-1.11947 -1.52879,-1.13919 -1.81976,-2.21429c1.02577,0 1.47948,0.12329 2.47566,0.12329c0.6707,-1.00604 0.52274,-1.78523 0.90741,-2.60388c0.34521,0.12329 0.21206,-0.03452 0.4389,0.47343c0.217,0.47837 0.68057,2.00715 1.12441,2.00715c0.88768,0 1.3118,-0.66082 2.3425,-0.66082c-0.217,0.95672 -1.09482,1.25755 -1.17866,2.21921zm0.91728,-4.56172c-1.57811,0 -0.99619,-3.00826 3.91074,-3.00826c2.36224,0 4.49268,1.04055 5.52338,2.42633c2.50032,3.34854 2.58416,9.01495 0.08878,12.07746c-2.13045,2.63839 -6.0412,3.25484 -9.00015,1.94304c-0.61152,-0.27617 -1.95291,-1.03563 -1.95291,-1.82468c0,-0.30083 0.04439,-0.15781 0.13315,-0.53262c0.98632,-0.25644 1.46962,0.15289 2.73211,0.79399c5.25707,2.64333 -0.69536,-3.39293 2.30304,-2.97868c1.47455,0.19726 4.08336,0.99125 4.08336,0.09864c0,-1.53865 -2.96881,-2.53483 -2.9984,-3.91568l3.16115,-1.39564c0.38959,-0.24165 0.57206,-0.37481 0.61645,-0.94686c-1.08002,-0.51288 -3.00828,-0.27125 -5.21269,-0.78413c0.02466,-1.24769 1.85921,-2.87017 0.52274,-2.87017c-0.80385,0 -2.75182,0.91727 -3.91074,0.91727zm-6.2434,-2.09593c-2.07126,-0.48329 -3.88608,-2.33757 -5.60228,-2.33757c0,1.9677 2.86526,4.30034 2.86526,5.46913c0,1.01591 -2.86526,1.61262 -2.86526,2.35236c0,1.11947 3.68883,1.24769 2.95895,2.95895c-0.58685,1.36605 -3.06251,1.59784 -3.09209,3.17101c0.36986,0.08384 0.38465,0.15781 0.69042,0.22192c0.23672,0.05425 0.80385,0.11343 0.91727,0.13809c0.37481,0.04438 1.53373,0.0148 1.54359,0.63124l0.02466,0.24164c-0.16767,1.10468 -3.15128,5.2916 -2.13045,5.2916c0.74466,0 1.74085,-1.09974 2.26854,-1.50906c1.75564,-1.37592 2.43127,-2.70252 2.9047,0.11342c0.13315,0.79891 0.10849,1.3266 0.42411,1.91839c1.04057,-0.08877 1.66689,-2.21921 2.21429,-2.21921c0.89262,0 3.62965,2.47566 6.77107,2.47566c2.19949,0 3.63951,-0.06411 5.60228,-1.03564c9.44892,-4.67514 7.92507,-18.75481 -2.20935,-20.75704c-5.88337,-1.17372 -7.38751,1.18358 -10.03578,1.18358c-0.63124,0 -1.40056,-1.69647 -2.21427,-1.69647c-0.99125,0 -0.13809,2.05646 -1.03564,3.38799"/>
   <path stroke="null" id="svg_6" fill-rule="evenodd" fill="rgb(10.980392%,38.823529%,71.764706%)" d="m197.21464,152.74369l-0.15289,-0.12328c-1.18358,-1.14906 0.6707,-4.73926 0.6707,-8.75357c0,-1.02083 -1.80989,-2.9984 -3.11183,3.53102c-0.29097,1.45975 -0.41426,4.32006 -1.57317,5.34583c-0.78905,-0.41425 -0.91235,-0.7496 -0.91235,-2.21921c0,-2.29318 0.65096,-4.83295 -0.52274,-4.83295c-1.05536,0 -1.7951,3.07237 -2.02196,4.23623c-0.74466,3.65923 -0.79891,8.52178 -0.07891,12.22046c1.60278,8.11739 5.74531,0.18247 5.74531,-1.31674c0,-0.85316 -1.99237,-2.65811 -0.83344,-4.75404c1.10468,-1.99237 2.61867,0.59179 3.0132,1.00111c1.9529,2.02688 2.48058,2.31291 -0.28111,6.30749c-2.55949,3.70363 -5.28666,7.23957 -5.28666,12.31417c0,5.99187 2.56936,8.8374 6.67244,11.57443c0.62138,0.41918 1.14413,0.97152 1.53865,1.08002c0.29589,-1.27236 2.1551,-3.47677 -0.35507,-6.56888c-1.97757,-2.43127 -5.24721,-3.96007 -5.24721,-7.52067c0,-1.11947 0.57699,-3.34854 1.16878,-3.78252c0.12822,0.5474 0.37479,0.83343 0.70029,1.25755c0.88768,1.11454 2.95895,1.48441 4.5124,1.48441c-0.22686,-0.84823 -1.95785,-1.33153 -1.95785,-4.18198c0,-2.98854 3.41266,-8.79795 4.6061,-11.17497c1.13427,-2.25866 3.98966,-8.77823 3.98966,-11.78649c0,-1.34633 -1.35125,-3.09703 -2.64827,0.8729c-0.34028,1.02577 -0.69042,2.0466 -1.11947,2.9195c-0.55726,1.1244 -1.35619,2.85539 -2.18469,3.81704c-0.68548,0.78905 -1.08001,0.83838 -1.08001,-0.17259c0,-1.14906 1.1096,-4.03897 1.47947,-5.16338c0.39946,-1.2033 1.38578,-3.91568 1.38578,-5.26693c0,-0.71015 -0.98632,-2.98361 -2.63841,0.87288c-1.02577,2.38196 -1.38577,4.19678 -2.0614,6.02146c-0.35014,0.92221 -0.6411,2.22415 -1.41536,2.76169"/>
   <path stroke="null" id="svg_7" fill-rule="evenodd" fill="rgb(10.980392%,38.823529%,71.764706%)" d="m249.43026,180.52332c0,2.69758 0.03945,4.42364 1.30194,6.91902c1.37592,2.7321 3.38801,5.24721 6.30257,6.4653c5.20775,2.17483 11.07141,1.61264 15.09065,-2.40661c1.73099,-1.70633 3.60993,-5.08446 3.60993,-8.49712c-0.57207,0.15289 -0.39453,0.4044 -1.64222,0.83838c-4.3102,1.49427 -9.8829,1.52386 -13.78378,-1.17372c-0.82357,-0.57699 -1.12441,-1.05043 -1.89373,-1.22797c-0.52274,0.44385 -0.77919,0.72002 -0.77919,1.68661c-0.00986,1.64222 -0.1874,0.91235 -1.43509,0.91235c-0.92713,0 -0.57206,4.18198 5.07954,4.18198c3.61979,0 5.85873,-2.51511 5.85873,-0.64604c0,0.68549 -0.72002,1.13427 -0.42906,1.58303c0.39946,0.60659 1.47455,-0.10849 1.47455,0.89755c0,2.08113 -6.78586,3.15621 -11.12072,0.17754c-2.09099,-1.4203 -3.46691,-3.53595 -3.46691,-6.31243c0,-6.6971 8.73384,-4.39404 7.50588,-7.64396c-0.23179,-0.61645 -0.66577,-0.90248 -1.38578,-0.97152c1.56331,-2.35236 5.34091,-0.23672 6.61819,-1.58797c1.27235,-1.32661 -0.65098,-2.54964 -2.32278,-2.58909c0.42412,-1.59783 3.25485,-0.39453 3.25485,-2.08606c0,-0.77919 -1.81482,-1.33646 -2.61867,-1.41536c-3.72829,-0.37481 -7.96451,0.95179 -10.43031,3.33375c-1.10468,1.06522 -2.00223,1.98249 -2.80608,3.32389c-0.86796,1.43509 -1.98249,4.00939 -1.98249,6.23846"/>
   <path stroke="null" id="svg_8" fill-rule="evenodd" fill="rgb(10.980392%,38.823529%,71.764706%)" d="m297.34062,104.73965c0.51288,-0.36001 1.7162,-0.39946 3.00826,-1.05043c0.94686,-0.46851 1.76551,-0.93208 2.5595,-1.60278c1.58303,-1.34139 2.5151,-3.4669 2.5151,-5.70091c1.0455,0.50302 1.95291,1.15892 1.95291,2.86525c0,2.27346 -1.67675,3.6839 -3.29431,4.4039c-1.89865,0.8581 -4.03403,1.08496 -6.74147,1.08496zm7.81657,-14.09448c0,-0.57206 0.53754,-1.17371 1.04057,-1.17371c1.12933,0 1.59289,1.16385 1.0011,1.90359c-0.6411,0.78412 -2.04167,0.34028 -2.04167,-0.72988zm-2.20935,0.12823c0,1.13919 1.03563,6.52449 -1.31181,6.52449c-3.97979,0 -1.03563,-4.64063 -1.03563,-6.39134c0,-3.50143 -7.04723,-2.92937 -9.64618,-2.49539l-2.74689,0.63618c-0.4981,0.18247 -0.4981,0.09863 -0.62632,0.55234c0.65098,0.88768 3.03293,0.21698 6.83025,3.07731c0.66576,0.49315 1.25755,1.03563 1.63236,1.75564c-1.8247,0 -6.10531,0.77919 -6.77107,1.69647c0.93207,1.25756 8.06807,1.43017 8.06807,5.21763c0,1.0159 -0.85316,2.08112 -1.81482,2.08112c-2.72224,0 -2.89484,-0.66576 -4.64556,-2.25373c-1.72605,-1.55345 -0.85316,1.45481 -0.80877,2.2488c0.04931,0.74466 0.04931,1.43509 -0.35507,2.14031c-0.26137,0.45864 -0.88769,1.01591 -1.32167,1.28714c-0.29589,0.18247 -0.52274,0.28111 -0.85809,0.44878c-0.46851,0.22192 -0.60166,0.19726 -0.73482,0.69535c0.43892,0.60659 2.3721,0.52768 3.59019,0.71015c4.62584,0.66084 11.37225,-0.04438 14.89833,-1.874c4.8576,-2.5447 5.72556,-7.23957 4.45815,-12.16622c-0.38467,-1.4992 -1.65701,-3.9798 0.27617,-5.67626c0.36,-0.32055 0.30083,-0.11342 0.60657,-0.5622c-1.78029,0 -3.45704,-0.97152 -4.85268,-0.69042c-1.70139,0.34028 -2.83072,1.54851 -2.83072,3.03786"/>
   <path stroke="null" id="svg_9" fill-rule="evenodd" fill="rgb(10.980392%,38.823529%,71.764706%)" d="m222.21284,136.69139c-0.56713,-0.64604 -3.00334,-6.39134 -6.77107,-6.39134c-2.98361,0 -3.17595,3.32389 -2.73211,5.21761c0.39946,-0.29589 0.39453,-0.98632 2.06141,-0.95672c2.25373,0.03945 4.75404,1.88387 5.87845,3.56554c-1.92826,-0.44878 -5.84887,-1.09482 -7.68835,-0.12822c-2.0466,1.06522 -3.34854,4.04389 -3.11676,5.86858l0.39453,1.30194c0.11343,-1.3907 2.59895,-3.19073 3.69869,-3.85157c1.87893,-1.1244 3.92061,-1.36605 6.19407,-1.36605c-0.23672,0.86796 -1.24769,0.72494 -1.73098,4.66528c-0.10356,0.85318 0.09863,1.31674 -0.87783,1.34139c0,2.14524 1.17866,3.53102 1.17866,5.21763c0,0.76932 -0.39453,0.48329 -0.39453,1.17371c0,1.9184 1.94798,2.9195 1.94798,4.69487c0,0.69043 -0.59179,0.89263 1.4203,2.50525c1.95784,1.56331 1.08988,2.18962 2.36222,2.18962c0.7348,0 1.95784,-0.96165 1.95784,-1.69153c0,-0.72494 -0.81865,-1.15892 -1.2033,-1.80003c-0.27125,-0.42412 -0.83838,-1.56331 -0.88276,-2.11565c-1.31674,-0.1085 -1.09482,-1.45483 -1.34139,-3.22526c-0.04439,-0.37973 -0.20712,-0.8581 -0.22192,-1.34139c-0.98139,-0.46357 -0.91235,-0.23178 -0.91235,-1.95784c0,-1.3907 0.26137,-2.18469 0.26137,-3.64938c-1.56331,-0.41425 0.217,-2.87017 0.73974,-3.81704c0.27123,-0.51782 0.33534,-0.937 0.55727,-1.4055c1.13426,0.30575 3.25978,3.16114 3.25978,5.0894c0,2.21427 -0.13809,1.7507 -0.25645,3.2647c1.71126,-0.39945 5.06968,-2.72716 5.06968,-5.35077c0,-3.42252 -3.41759,-3.99952 -5.85873,-4.57158c0.03453,-0.00986 0.06905,-0.06905 0.08384,-0.04931l0.99124,-0.31562c2.31292,-0.55234 5.23242,-0.88769 7.39245,0.10356c0.75454,0.35507 1.67181,1.29207 1.69647,2.35236c0.43892,-0.11343 0.44878,-0.22686 0.84824,-1.22797c0.79398,-1.9529 0.37479,-3.8565 -1.28714,-4.85268c-3.05759,-1.80989 -6.49983,-0.15781 -9.24673,1.47948c-0.56713,0.34028 -0.9518,0.64604 -1.514,0.94193c0.19233,-0.82357 1.37098,-2.90964 2.3425,-3.51623c0.5326,-0.3452 0.97152,-0.25644 1.81975,-0.25644c-0.41425,-0.8729 -0.47836,-1.51893 -1.46467,-2.58416c-2.18963,-2.35729 -3.94035,-2.24387 -4.4187,1.12934c-0.14795,1.08001 -0.23672,3.08717 -0.23672,4.32006"/>
   <path stroke="null" id="svg_10" fill-rule="evenodd" fill="rgb(10.980392%,38.823529%,71.764706%)" d="m207.7633,188.0933c0,2.11566 0.39453,3.55568 1.53865,5.10913c1.90851,2.57428 5.44939,3.91075 8.24561,2.86031c2.87017,-1.07015 3.25978,-5.00062 0.99618,-7.29875c-1.10468,-1.09974 -1.7014,-1.58303 -3.48663,-1.58303c-0.31562,0 -0.66576,0.14795 -0.86302,0.31562c-0.92714,0.74466 -0.80385,3.4669 3.4669,3.4669c0.34521,0 0.35507,-0.06905 0.64604,-0.13315c0.07891,0.88276 0.16767,1.08988 -0.54741,1.66689c-1.62742,1.28221 -5.75022,0.33041 -6.51955,-2.80608c-1.51892,-6.26312 10.06044,-5.90311 10.06044,3.61979c0,8.24561 -15.49505,6.14475 -15.49505,-4.95624c0,-1.10468 -0.01972,-2.9195 0.39453,-3.78253c-1.97756,0.03945 -4.16719,3.57047 -4.16719,6.12503c0,2.58416 0.23179,3.27951 1.42523,5.48392c0.72987,1.34633 1.58304,2.30799 2.63347,3.35348c1.90853,1.89373 5.46913,3.56061 8.31464,3.56061c4.22637,0 6.96834,-0.69535 8.81275,-4.61104c1.87893,-3.98965 -0.07397,-11.65826 -4.65542,-14.30159c-2.10579,-1.21811 -3.12169,-1.30687 -5.46913,-1.30687c-2.59894,0 -5.33104,2.57922 -5.33104,5.21761"/>
   <path stroke="null" id="svg_11" fill-rule="evenodd" fill="rgb(10.980392%,38.823529%,71.764706%)" d="m293.97235,179.22138c3.67404,0 6.22366,4.69981 1.94304,4.69981c-3.62471,0 -3.99951,-4.69981 -1.94304,-4.69981zm-16.67863,7.18039c0,1.34633 0.62138,3.1217 1.56825,3.1217c2.64827,0 6.91902,-4.5124 9.01001,-6.62313c0.53262,-0.52274 0.64604,-0.68056 1.66195,-0.68056c0.21698,0.9518 0.4685,1.54851 -0.80385,2.84059c-1.7951,1.80003 -2.97868,2.40168 -4.68007,3.79732l-1.11947,0.95674c-0.96166,0.92713 -1.09975,1.53865 -0.36493,2.51018c0.62137,0.79891 1.77043,1.66687 2.69264,2.00715c3.29923,1.24277 4.37925,-0.12329 6.26804,-2.03181c1.4055,-1.44003 2.98854,-4.49761 3.99952,-5.3853c0.90248,0.21206 0.78412,0.45371 0.78412,1.30687c0,1.67673 -2.16496,4.45815 -3.20059,5.27679c-1.84442,1.4203 -1.63729,1.4203 -3.92555,2.46086c-2.55949,1.16386 0.1085,3.73815 1.26742,3.73815c0.77919,0 2.96389,-1.85428 3.55074,-2.43621c3.91075,-3.94527 8.45767,-9.1974 6.04612,-15.26325c-0.5474,-1.38578 -1.43016,-2.50525 -2.63839,-3.35841c-0.45864,-0.31562 -0.78905,-0.53754 -1.32167,-0.75946c-2.6088,-1.1244 -6.11023,-1.12933 -8.21602,0.8433c-3.22032,3.03292 -2.50524,4.62582 -8.70918,6.41106c-0.4685,0.13315 -1.86907,0.44385 -1.86907,1.26742"/>
   <path stroke="null" id="svg_12" fill-rule="evenodd" fill="rgb(10.980392%,38.823529%,71.764706%)" d="m228.33293,125.86655c-0.72987,-0.63617 -0.83837,-2.20441 -0.72493,-2.53483c0.06411,-0.18247 0.89754,-1.69647 1.77043,-1.76551c0.6411,1.22303 0.02959,3.58033 -1.0455,4.30034zm-5.0746,-1.43509c-1.47455,0 0.02959,-5.73544 1.43509,-5.73544c1.14413,0 0.90741,2.75676 0.90741,3.52116c0,0.52274 -1.80496,2.21427 -2.3425,2.21427zm7.67848,4.17212c-1.3118,0 0.18248,-5.15844 0.28111,-5.45433c0.24165,-0.72001 0.37973,-1.08496 0.72494,-1.76551c0.28603,-0.57699 0.4537,-1.19344 1.20824,-1.25263c0.79891,1.66689 -0.8729,8.47247 -2.21429,8.47247zm-11.58922,-2.60388c-0.53754,0 -0.51782,-0.07891 -0.51782,-0.65096c0,-2.08113 2.05154,-10.05058 3.38307,-10.05058c1.14413,0 -0.30576,4.87734 -0.51782,5.7453c-0.26137,1.05536 -1.37591,4.95624 -2.34743,4.95624zm-4.81816,-7.83135c3.43732,-2.30305 3.74307,0.2515 3.09704,2.97374c-0.74468,3.13649 -2.85539,3.51129 -3.63458,2.26854c-0.77426,-1.22303 -0.08384,-3.15621 -1.41044,-3.15621c-1.54358,0 -2.74689,8.47739 4.81323,8.47739c2.3425,0 4.58145,-0.89754 6.07571,-2.12551c0.35015,-0.27123 0.61645,-0.45864 0.92714,-0.7644c0.5474,-0.54248 1.11947,-1.27235 1.72112,-1.66687c0,2.15017 2.09592,7.69327 5.99681,7.69327c2.59402,0 4.25595,-2.15018 4.29048,-4.04883c-0.38467,0.10356 -2.20935,1.4992 -2.20935,-1.69154c0,-1.17371 0.33534,-3.77759 1.297,-3.77759c0.69042,0 0.6411,1.05535 0.72494,1.74084c0.15287,1.08002 -0.17261,1.40058 0.57699,1.90853c0.51782,-0.14301 0.62631,-0.47837 0.75454,-0.93207c0.94193,-3.1069 0.01478,-8.20122 -4.26583,-8.20122c-1.48441,0 -2.64827,0.78412 -3.64444,1.56823c-1.20824,0.93207 -1.70633,1.98251 -2.48058,2.86525c0,-0.72987 0.18247,-0.88274 0.11836,-1.53372c-0.21206,-2.2488 -0.83838,-4.69487 -2.82087,-5.9327c-2.44113,-1.52879 -5.77981,-0.95672 -7.55518,0.71508c-1.00111,0.94193 -2.01209,2.09099 -2.3721,3.61979"/>
   <path stroke="null" id="svg_13" fill-rule="evenodd" fill="rgb(10.980392%,38.823529%,71.764706%)" d="m260.75812,149.60721c0,2.13538 1.58797,3.55074 2.99347,4.3102c0.74468,0.39453 1.60276,0.85316 2.32278,1.32167c3.07237,2.00221 1.16878,5.14857 -0.72988,3.21046c-0.41918,-0.43398 -0.43398,-0.65591 -0.99618,-1.09975c-1.514,-1.17372 -3.06745,-1.03563 -3.27457,1.30687c-0.11836,1.24275 0.7644,3.64444 -0.36987,5.51352c-0.33535,0.55234 -0.97646,0.93699 -1.11454,1.47453c1.77537,0 3.82197,-0.99124 4.83788,-1.79015c1.84934,-1.47948 2.16004,-3.28937 3.75787,-3.28937c1.48441,0 -0.91727,2.57922 -0.91727,3.91568c0,3.55568 6.89436,3.62965 5.12391,0.33534c-0.70521,-1.30686 -1.73098,-1.85428 -1.73098,-3.33375c0,-1.05043 4.03403,-0.58193 4.03403,0c0,0.68549 -1.49427,2.47566 -0.39453,2.47566c2.02195,0 4.12281,-0.45371 5.87845,-1.14906c2.23401,-0.89755 1.30194,-1.874 -1.30194,-3.96007c-4.92665,-3.93047 -3.92554,-1.77537 -3.92554,-0.11342c0,0.99618 -2.20935,0.6559 -2.98854,0.26631c-0.51782,-0.26631 -0.81371,-0.59179 -0.9518,-1.27236c-0.78412,-3.50142 6.05599,-2.69758 6.80559,-5.90311c-0.50302,-0.11836 -1.09482,-0.12328 -1.56825,-0.25151c-0.41918,-0.12328 -0.93207,-0.35507 -1.30687,-0.52768c-0.94686,-0.47343 -4.09321,-2.26852 -4.83295,0.09864c-0.60165,1.91345 1.04057,4.33486 -1.01591,4.33486c-1.78523,0 0.59673,-5.0598 -1.45975,-7.1508c-1.55837,-1.57811 -4.92173,-1.55837 -4.92173,-4.19678l-0.2663,0c-0.16768,0.72988 -1.68661,2.99348 -1.68661,5.47406"/>
   <path stroke="null" id="svg_14" fill-rule="evenodd" fill="rgb(10.980392%,38.823529%,71.764706%)" d="m234.1966,145.69153c0,4.27569 -7.16561,5.0598 -7.16561,8.73876c0,3.6543 6.90422,4.89707 6.90422,7.18039c0,1.06522 -1.80989,0.6559 -2.9195,-0.07397c-0.31069,-0.21206 -0.48329,-0.32056 -0.78412,-0.52768c-0.41918,-0.29097 -0.40932,-0.45864 -0.85316,-0.57699c-0.37973,0.25644 -0.63124,0.64604 -0.937,1.03069c-2.60388,3.28445 -1.86414,8.3048 1.57811,10.97278c2.39675,1.84934 6.06585,3.17101 8.7289,2.21429c0.32056,-0.11343 0.12329,-0.03945 0.26139,-0.12329c-1.40058,-0.33042 -2.40169,-0.6411 -3.33376,-1.86907c-3.1217,-4.14253 2.55949,-8.25054 2.55949,-11.17497c0,-3.11676 -3.6543,-3.17101 -3.6543,-5.87351c0,-2.07127 6.26312,-5.33105 1.7951,-10.14921c-0.55727,-0.59671 -2.00223,-1.91839 -2.83073,-2.11565c0.28111,0.53754 0.65098,1.54359 0.65098,2.34744"/>
   <path stroke="null" id="svg_15" fill-rule="evenodd" fill="rgb(10.980392%,38.823529%,71.764706%)" d="m244.08935,177.00217c1.6077,0 0.45864,3.0132 -0.81863,4.53212c-0.46357,0.54741 -2.35238,2.23401 -3.24499,1.50906c-0.50301,-0.40931 -0.10849,-1.59783 -0.10849,-2.25866c0.02958,-2.59402 1.14413,-1.50413 3.31895,-3.20553c0.27125,-0.2022 0.58687,-0.57699 0.85316,-0.57699zm-6.50969,-7.69821c0,3.59019 4.30034,3.11676 4.30034,5.61708c0,2.50032 -7.136,3.08225 -10.68181,1.30687c-2.80114,-1.41537 -2.38689,-2.74689 -3.91075,-2.74689c-1.10468,0 -1.03563,2.48552 -1.03563,3.2647c0,2.53484 1.72112,5.04008 3.34854,6.6823c4.55186,4.58637 13.53227,3.86144 16.79205,-2.16496c1.0455,-1.94304 1.08002,-3.22032 1.08002,-5.30146c0,-4.94145 -5.02529,-5.29652 -6.7908,-6.89436c-0.63124,-0.57699 -1.41042,-2.09099 -1.41042,-3.2795c-0.40932,0.10356 -0.46357,0.3452 -0.64604,0.65096c-0.17261,0.2959 -0.32548,0.50302 -0.47837,0.82851c-0.28109,0.53262 -0.56713,1.28714 -0.56713,2.03674"/>
   <path stroke="null" id="svg_16" fill-rule="evenodd" fill="rgb(10.980392%,38.823529%,71.764706%)" d="m280.81488,154.69661c-2.08607,0.48329 -2.04662,0.01972 -2.9984,0.52768c0.31562,1.17864 3.94527,2.14031 5.61708,4.41376c0.74466,0.99125 1.06029,2.58416 0.20712,3.76774c-1.18358,1.65701 -3.41759,2.64333 -5.41981,3.04278c-1.23289,0.24165 -2.28826,0.18247 -2.3573,1.02577c0.34521,0.08384 0.39946,0.15289 0.68056,0.23179c1.01591,0.32055 2.48552,0.36987 2.32771,1.09974c-0.15287,0.73974 -2.88497,4.04391 0.05919,2.27346c3.38307,-2.03674 1.54851,1.14906 3.18087,2.00716c1.11947,-1.67181 -0.24165,-4.57159 1.88387,-7.38259c2.07126,-2.75675 3.32882,-1.06029 3.32882,2.30305c0,2.35236 -1.69647,4.44829 -1.69647,5.86365c0,1.27235 1.77537,-1.17864 2.60388,-1.17864c0.82357,0 2.86525,4.38417 2.86525,1.83454c0,-2.9047 -1.1392,-3.06745 1.14905,-3.27951c0.63618,-0.06903 1.0751,-0.10849 1.58798,-0.37973c-0.54741,-0.82357 -2.18469,-1.1096 -3.55568,-2.43619c-2.60881,-2.52991 -2.55456,-5.13379 -1.52386,-5.13379c4.00938,0 4.65542,4.64556 6.1201,5.622c0.94686,-1.41536 -0.19726,-3.13155 0.91234,-3.13155c1.64715,0 1.514,0.11342 2.99348,0c-0.15289,-0.56713 -0.75454,-0.82851 -1.42523,-1.17866c-1.70633,-0.87782 -1.84442,-1.05536 -0.68056,-2.6236c0.33534,-0.45371 0.78412,-0.82851 0.80385,-1.55345c-1.31674,0 -2.21922,0.96166 -4.4335,1.43509c-5.479,1.14905 -5.11899,-2.05154 -1.63729,-3.21046c1.55345,-0.52274 3.27951,-0.34521 3.86144,-1.22797c-0.56713,-0.75946 -2.44607,-0.46357 -2.68278,-1.09482c-0.17754,-0.4685 2.48058,-4.7935 -0.27125,-2.51018c-2.84059,2.35236 -2.33263,-1.08002 -3.68882,-1.08002c-0.87783,0 -0.12823,1.43509 -0.12823,3.64938c0,1.10468 0.10357,3.68882 -1.51399,4.10308c-1.28715,0.33534 -1.74085,-1.36112 -1.74085,-2.67292c0,-2.31291 1.25263,-3.83677 0.77919,-5.86365c-0.88276,0 -0.90249,0.30576 -1.4055,0.81371c-0.30576,0.31562 -0.83838,1.01097 -1.32661,1.01097c-0.72493,0 -2.5299,-4.43842 -2.48552,-0.91234c0.00987,0.60659 0.00987,1.21316 0.00987,1.82468"/>
   <path stroke="null" id="svg_17" fill-rule="evenodd" fill="rgb(10.980392%,38.823529%,71.764706%)" d="m209.97265,151.95958zm0,0c0,4.91679 0.36,4.34473 1.60769,8.5563c0.37973,1.28715 0.7348,2.77648 0.60659,4.48775c-0.05425,0.76933 -0.41918,1.4055 -1.07508,1.54851c-1.32167,0.27617 -1.12441,-0.50795 -1.66195,-0.90741c-1.47455,1.08989 0.28604,4.98583 3.47184,3.61486c4.25103,-1.83456 -0.01972,-10.0062 -0.83343,-13.02432c-0.59673,-2.18469 -0.84824,-4.43843 -0.11836,-6.71189l0.3452,-0.82851c0.12823,0.56221 0.14303,1.34139 0.22686,1.86415c0.1085,0.77918 0.17261,1.15891 0.34521,1.86906c1.66195,6.64285 5.38529,9.9914 7.15573,14.49393c0.46357,1.18358 0.5622,2.4806 -0.61152,2.99348c-1.03069,0.44384 -2.29318,-0.07891 -2.29318,-1.78524c-0.54741,0.04933 -0.72988,0.32549 -0.95674,0.73974c-1.81975,3.27951 2.79622,6.6034 5.73544,4.18692c3.60007,-2.95895 0.83344,-6.92395 -0.93207,-9.57221c-2.09099,-3.15129 -3.64444,-5.01543 -5.40502,-8.52672c-1.71619,-3.39293 -2.37208,-7.62916 -0.39453,-11.35251c-0.70029,0.15781 -2.9195,2.0762 -3.55567,2.70252c-7.24943,7.2297 -3.28937,15.5197 -5.79954,17.15698c-0.36001,0.23672 -1.21317,0.36493 -1.76059,0.15289c-0.63124,-0.25151 -0.4685,-0.77427 -1.25755,-0.83838c-0.97152,1.84442 0.41426,3.72335 2.10085,3.91075c0.91728,0.10356 1.93812,-0.40439 2.42141,-0.81371c0.59179,-0.49316 1.03071,-1.25263 1.25263,-2.13045c0.79399,-3.07731 -0.62631,-8.51686 1.16878,-11.48073c0.15781,-0.26137 0.06905,-0.13809 0.217,-0.30576"/>
   <path stroke="null" id="svg_18" fill-rule="evenodd" fill="rgb(10.980392%,38.823529%,71.764706%)" d="m273.91558,208.05144c0.32056,-0.67563 0.98139,-3.46691 0.51288,-4.43843c2.1699,0 3.07731,-0.08877 4.91679,-0.81371c0.24165,-0.0937 0.4044,-0.15781 0.62632,-0.28109c0.64604,-0.36001 1.23783,-0.56713 1.23783,0.4389c0,3.43238 -4.27076,5.09433 -7.29382,5.09433zm-7.56012,-0.25645c0,1.97757 1.85921,3.77266 3.6543,3.77266c4.38912,0 7.27903,-0.60165 10.9925,-2.81592c2.13538,-1.27728 5.14858,-4.17212 5.14858,-6.96341c0,-1.11947 -0.0148,-1.91345 -0.70521,-2.82086c-1.57318,-2.08113 -2.37703,-0.61646 -3.93541,0.24658c-2.81594,1.57317 -7.29382,2.40661 -10.33168,1.12933c-1.28221,-0.53754 -2.09592,0.68056 -2.96881,1.99235c-0.87782,1.30687 -1.85428,3.33869 -1.85428,5.45927"/>
   <path stroke="null" id="svg_19" fill-rule="evenodd" fill="rgb(10.980392%,38.823529%,71.764706%)" d="m204.37529,88.94377c2.44114,0.57699 3.49157,2.02195 0,3.39785c-0.83837,0.33535 -2.14031,0.55727 -2.6088,1.43509c0.6559,0.97646 1.56823,0.38467 3.54581,0.14795c1.43509,-0.17261 2.451,-0.40932 2.451,0.75946c0,1.03071 -2.47566,3.15129 -2.47566,4.04883c0,1.42523 2.10085,-0.5326 2.16004,-0.57699c0.66082,-0.52274 2.59894,-2.44113 3.57046,-0.60165c0.6559,1.26742 -0.20712,4.56665 1.16878,4.56665c1.27235,0 0.75946,-5.21761 2.73703,-5.21761c1.69153,0 2.83566,3.65923 4.03403,3.65923c1.62743,0 -1.08494,-3.93047 -0.87288,-5.1683c0.34028,-1.95784 3.21539,-0.31562 4.77378,-0.31562c0.68549,0 0.85316,-0.71015 -0.64604,-1.69153c-1.23289,-0.81371 -3.90089,-1.90853 -2.8258,-3.35348c0.52274,-0.68056 1.81482,-0.58193 2.0466,-1.47948c-0.88768,-0.58685 -2.64827,-0.51288 -3.77266,-0.51288c-2.37702,0 -2.50032,2.73703 -4.78364,2.5447c-2.88992,-0.23178 -1.06522,-3.40773 -7.02258,-2.49046c-0.29097,0.03945 -0.72988,0.11836 -0.95674,0.2022c-0.38959,0.14795 -0.47836,0.13808 -0.52274,0.64604"/>
   <path stroke="null" id="svg_20" fill-rule="evenodd" fill="rgb(10.980392%,38.823529%,71.764706%)" d="m290.83093,117.52232c-0.16767,2.10579 -6.82531,2.35729 -8.9311,-0.44385c-1.69153,-2.25373 1.63236,-0.59179 3.24006,-0.24658c2.44113,0.52768 4.68993,0.44878 5.69105,0.69043zm-14.31639,-4.04391c0.10356,4.69487 4.96117,9.26152 9.5081,9.26152c3.59019,0 9.77933,-0.49809 8.43794,-5.4642c-0.39453,-1.45975 -1.21317,-3.3732 -2.1551,-4.35952c-0.74466,-0.78412 -1.03563,-0.84824 -2.17483,-0.41918c-0.75946,0.30083 -1.61262,0.71507 -2.54963,0.71507c-1.66194,0 -0.52768,-1.82468 -3.12169,-1.82468c-0.25151,0 -2.19949,0.90741 -3.69869,1.25263c-1.77045,0.40932 -2.96389,0.24658 -3.42746,0.36001c-0.5474,0.12822 -0.44384,0.22192 -0.81863,0.47836"/>
   <path stroke="null" id="svg_21" fill-rule="evenodd" fill="rgb(10.980392%,38.823529%,71.764706%)" d="m243.56661,187.18097c0,1.48934 1.11454,1.66194 0.13809,3.51621c-0.58193,-0.39453 -0.54248,-0.63124 -1.34633,-1.0011c-0.70521,-0.34029 -1.17372,-0.41426 -1.92332,-0.31562c-3.55567,0.44876 -2.97375,4.87734 -5.64173,6.48502c-2.28826,1.37592 -5.80941,-0.3452 -5.80941,0.57701c0,2.55949 3.39293,4.42856 6.24832,4.42856c2.67785,0 4.81323,-0.44384 6.82531,-1.76057c1.88879,-1.23783 3.20553,-2.74689 3.20553,-5.14365c0,-0.80385 -0.24165,-1.20331 -0.39453,-1.82962c1.86907,-0.99125 1.7951,0.52274 2.9984,0.52274c1.39564,0 1.81976,-2.2636 0.51782,-2.60388c0.18739,-0.71015 0.52768,-0.47343 0.52768,-1.56825c0,-0.80384 -0.65098,-1.44495 -1.56332,-1.44495c-0.61645,0 -0.52767,0.25645 -1.04055,0.39946c-0.04933,-2.14031 -2.74197,-1.93318 -2.74197,-0.26137"/>
   <path stroke="null" id="svg_22" fill-rule="evenodd" fill="rgb(10.980392%,38.823529%,71.764706%)" d="m300.99,167.35106c0,1.02083 0.37973,1.86414 0.78905,2.48552c-0.79893,-0.19234 -2.10087,-1.09482 -3.96007,-0.58193c-1.72606,0.47343 -2.16497,1.99235 -2.16497,3.5754c0,3.97486 7.8215,2.5447 7.8215,8.61055c1.70139,-0.45864 5.0746,-6.43079 5.0746,-10.04564c0,-2.60388 -0.37481,-5.76995 -2.90964,-7.13108c-2.28332,-1.24769 -4.65048,0.68057 -4.65048,3.08718"/>
   <path stroke="null" id="svg_23" fill-rule="evenodd" fill="rgb(10.980392%,38.823529%,71.764706%)" d="m206.58464,177.78629c-2.22415,0 -2.3573,-3.52115 0.13809,-3.52115c1.28714,0 2.31291,1.80496 1.18358,3.01812c-0.27125,0.29097 -0.75947,0.50302 -1.32167,0.50302zm-4.16225,-4.95624c0,0.63124 0.0148,0.78412 0.26137,1.30194c-1.60276,0.13315 -3.12662,1.36112 -3.12662,2.87019l0,0.66084c0,1.45975 1.37097,2.72716 3.25484,2.72716c0.8729,0 1.06522,-0.24164 1.69153,-0.39453c0.59179,1.13427 1.04057,2.22415 2.99348,2.22415c1.89373,0 3.25484,-1.56331 3.25484,-2.9984c0,-0.56713 -0.21206,-1.02083 -0.25644,-1.55837c1.65701,0 3.06745,-1.41537 3.05265,-3.14635c0,-0.81865 -0.39946,-1.6225 -0.91235,-2.14031c-0.95672,-0.94194 -1.93318,-1.19345 -3.19567,-0.73482c-0.49809,0.16275 -0.47837,0.2959 -0.89755,0.4044c-0.08383,-1.05043 -1.41042,-2.3425 -2.9984,-2.3425c-1.79509,0 -3.12169,1.31674 -3.12169,3.12662"/>
   <path stroke="null" id="svg_24" fill-rule="evenodd" fill="rgb(10.980392%,38.823529%,71.764706%)" d="m193.17567,127.4348c0,-1.5929 0.72001,-2.61374 1.16878,-2.3573c0.6411,0.38467 -0.05425,1.10961 1.26742,2.9195c0.48822,0.6707 1.51399,1.57811 2.37702,1.78523c-0.07891,0.93208 -1.08002,0.91728 -1.94798,0.91728c-1.17864,0 -2.86525,-1.96771 -2.86525,-3.26471zm4.69487,-3.65924c0,-0.89755 0.78905,-0.77919 1.29208,-0.77919c1.31672,0 0.72001,1.51893 1.95784,2.48552c0.15287,0.11343 0.78412,0.57701 0.78412,0.77919c0,3.2302 -4.03403,0.94194 -4.03403,-2.48552zm-8.47247,7.56999c0,1.38084 1.7951,0.91727 1.82962,0.91727c2.29319,0 2.96881,1.83948 7.60451,-0.07398c0.63617,-0.27123 0.7496,-0.33041 1.27235,-0.69042l1.17864,-0.90248c1.30687,-1.14906 2.8258,-3.94035 2.8258,-5.64173c0,-0.59179 -1.36605,-0.87783 -1.67673,-2.22908c-0.37973,-1.63728 -0.84824,-1.42523 -4.04883,-1.42523c-3.80225,0 -6.99792,2.53977 -8.05328,6.14476l-0.62631,2.9047c-0.13315,0.46851 -0.30576,0.54741 -0.30576,0.99619"/>
   <path stroke="null" id="svg_25" fill-rule="evenodd" fill="rgb(10.980392%,38.823529%,71.764706%)" d="m299.69299,122.86323c0.03945,1.62248 1.76057,4.3102 2.83567,5.51844c0.2663,0.29097 0.31069,0.42904 0.58685,0.71508c1.15399,1.25261 4.04883,4.20664 5.8242,4.20664c1.72112,0 2.51018,-13.2857 1.23783,-15.066c-0.24165,-0.3452 -0.36493,-0.41918 -0.84824,-0.45864c-0.38465,1.43509 -2.44113,2.94416 -3.64937,3.64938c-1.35619,0.78905 -3.82691,1.43509 -5.98695,1.43509"/>
   <path stroke="null" id="svg_26" fill-rule="evenodd" fill="rgb(10.980392%,38.823529%,71.764706%)" d="m227.94334,189.00071c0,-2.9195 5.19789,0.32056 4.26089,1.78524c-0.88276,1.36605 -4.26089,-1.00605 -4.26089,-1.78524zm-13.28076,-10.43029c0,1.54358 3.93541,2.04167 5.30146,2.65319c4.325,1.94304 3.91568,3.86636 4.72939,7.13108c0.30083,1.2181 0.64604,2.16003 1.43016,2.98361l0.14303,0.13315c0.01972,0.02958 0.10849,0.09863 0.13314,0.12328c3.79239,3.47677 10.96785,2.75676 7.24451,-2.69758c-1.17372,-1.71619 -2.58909,-2.91456 -4.91187,-2.88991c-3.00334,0.01973 -2.61374,-0.15287 -3.6839,-4.02417c-0.75946,-2.75675 -2.83073,-5.76009 -5.96228,-5.76009c-1.57811,0 -4.42364,0.1874 -4.42364,2.34744"/>
   <path stroke="null" id="svg_27" fill-rule="evenodd" fill="rgb(10.980392%,38.823529%,71.764706%)" d="m269.22071,122.99637c-0.99124,0 -1.57317,0.11343 -2.3425,-0.25644c0.40932,-0.61152 0.90741,-0.89262 0.90741,-1.82468c0,-1.11947 -1.78523,-0.0148 -3.62965,-0.66577c-0.95179,-0.3452 -1.46467,-0.91234 -2.22907,-1.43016c-2.38196,3.58033 -0.71508,9.52289 0.91727,9.52289c0.72494,0 0.53754,-1.69647 1.42523,-1.69647c0.6411,0 3.6543,1.82962 7.69327,-0.25645c2.51511,-1.30194 4.01431,-4.49761 3.06251,-7.90532c-0.18247,-0.64604 -0.25645,-1.04057 -0.72494,-1.35619c0,3.45704 -2.2784,5.86858 -5.07954,5.86858"/>
   <path stroke="null" id="svg_28" fill-rule="evenodd" fill="rgb(10.980392%,38.823529%,71.764706%)" d="m272.74188,176.09476c-1.69647,0 -0.77919,-1.93812 -0.77919,-3.65924c0.82851,0 0.99124,0.19233 1.37591,0.70521c1.03563,1.37098 0.55727,2.95403 -0.59671,2.95403zm-2.73211,-5.09433c0,2.14524 -1.56823,3.74801 -1.56823,6.52449c0,4.29541 6.05104,5.66147 7.94971,1.56825c1.35125,-2.92444 -0.43398,-6.87463 -2.87511,-8.61055c-0.92221,-0.66577 -2.88498,-1.82962 -4.42364,-1.82962c0.25151,0.37479 0.38467,0.43398 0.60659,0.96658c0.09863,0.25151 0.31069,1.11454 0.31069,1.38084"/>
   <path stroke="null" id="svg_29" fill-rule="evenodd" fill="rgb(10.980392%,38.823529%,71.764706%)" d="m206.85095,139.16705c4.53706,0 5.35571,-6.03134 0.52274,-9.26152c-2.3425,-1.55345 -2.28332,-0.75454 -2.87019,0.13809c-1.38084,2.06632 -2.08112,5.53816 -0.35014,7.65874c0.52768,0.66084 1.56825,1.46469 2.69758,1.46469"/>
   <path stroke="null" id="svg_30" fill-rule="evenodd" fill="rgb(10.980392%,38.823529%,71.764706%)" d="m262.71102,117.12779l0.26631,0c0.72494,-3.14142 5.16337,-3.13156 6.11517,-1.69154c-0.65096,0.16768 -1.04057,1.00605 -1.04057,1.28714c0,1.28222 1.52386,0.62632 2.86525,3.14143c1.53373,-0.80879 2.9984,-3.50143 2.9984,-5.86859c0,-3.36827 -0.67562,-1.44003 -1.82468,-1.49428c-0.30083,-0.00986 -0.9518,-0.54246 -1.27728,-0.75452c-1.50413,-0.95672 -3.97979,-1.13427 -5.66639,-0.40439c-0.64604,0.28109 -1.19838,0.75452 -1.61756,1.24769c-1.54359,1.83454 -0.83837,3.71841 -0.81865,4.53706"/>
   <path stroke="null" id="svg_31" fill-rule="evenodd" fill="rgb(10.980392%,38.823529%,71.764706%)" d="m271.29691,194.87916l0,2.21429c0,2.65319 10.29715,2.77648 10.29715,-1.04549c0,-1.42523 0.0937,-2.20935 -1.69153,-2.88005c-1.92825,-0.72002 -4.54692,-0.60166 -6.4653,0.05424c-0.63618,0.217 -2.14032,1.01591 -2.14032,1.65701"/>
   <path stroke="null" id="svg_32" fill-rule="evenodd" fill="rgb(10.980392%,38.823529%,71.764706%)" d="m307.25311,111.77702c0,2.63839 -3.55074,4.63568 -5.99187,5.22254c-1.84442,0.44385 -3.61979,-0.16767 -4.22144,1.38578c-1.37591,3.60993 7.21491,3.42745 10.87908,-1.10961c0.67562,-0.82851 1.76057,-2.53483 1.63728,-4.03403c-0.14301,-1.83948 -1.02577,-2.63839 -2.69264,-3.02306c0.11342,0.53262 0.38959,0.84824 0.38959,1.55839"/>
   <path stroke="null" id="svg_33" fill-rule="evenodd" fill="rgb(10.980392%,38.823529%,71.764706%)" d="m193.30882,113.60663c0,1.83456 1.06522,3.25979 2.26852,3.98966c1.43016,0.87782 2.64827,1.22303 4.88721,1.22303c0.05917,-0.71508 0.39453,-1.3907 0.39453,-2.73703c0,-2.69264 -1.41044,-5.74036 -4.03897,-5.74036l-0.65098,0c-1.58797,0 -2.86031,1.63236 -2.86031,3.2647"/>
   <path stroke="null" id="svg_34" fill-rule="evenodd" fill="rgb(10.980392%,38.823529%,71.764706%)" d="m278.08277,178.96001c0,4.4187 6.24832,3.60005 6.24832,0c0,-1.75565 -0.28603,-2.86033 -1.9529,-4.03897c-0.84824,-0.61645 -2.45593,-1.31674 -3.91075,-1.31674c1.26742,2.39675 -0.38467,3.17595 -0.38467,5.35571"/>
   <path stroke="null" id="svg_35" fill-rule="evenodd" fill="rgb(10.980392%,38.823529%,71.764706%)" d="m228.98391,104.99608c0,1.50906 5.73544,9.78427 7.16559,9.78427c0.38467,0 0.52274,-0.08383 0.72494,-0.31069c0.12329,-0.12822 0.37973,-0.57699 0.44878,-0.72988c1.27235,-2.48552 0.05425,-3.4669 -1.45975,-4.68007l-2.76169,-2.18962c-0.43892,-0.2959 -0.70522,-0.51782 -1.14906,-0.80385c-0.13315,-0.0937 -2.96881,-2.04662 -2.96881,-1.07016"/>
   <path stroke="null" id="svg_36" fill-rule="evenodd" fill="rgb(10.980392%,38.823529%,71.764706%)" d="m271.96268,145.5633c0,1.83456 1.36605,3.39293 3.51621,3.39293c1.65209,0 3.11676,-1.45481 3.11676,-3.52115c0,-1.58303 -1.64222,-3.13156 -3.25484,-3.13156c-1.75565,0 -3.37813,1.50414 -3.37813,3.25978"/>
   <path stroke="null" id="svg_37" fill-rule="evenodd" fill="rgb(10.980392%,38.823529%,71.764706%)" d="m298.26283,111.77702l-2.47566,-0.13315c1.08002,1.62742 0.43398,1.2033 0.95672,2.56442c0.94686,2.46086 4.59131,1.00111 6.12504,0.22684c3.2647,-1.66687 2.84059,-4.09321 0.99618,-4.09321c-1.89373,0 -3.42745,1.43509 -5.60228,1.43509"/>
   <path stroke="null" id="svg_38" fill-rule="evenodd" fill="rgb(10.980392%,38.823529%,71.764706%)" d="m275.4789,134.73355c1.67675,0 2.96389,-1.37591 3.09211,-2.89978c0.13315,-1.56823 -1.11454,-3.23018 -3.36334,-3.23018c-1.46469,0 -2.91456,1.63729 -2.8258,3.1069c0.0937,1.5929 1.36605,3.02306 3.09703,3.02306"/>
   <path stroke="null" id="svg_39" fill-rule="evenodd" fill="rgb(10.980392%,38.823529%,71.764706%)" d="m267.13959,136.43495c0,4.00444 5.86365,4.00444 5.86365,0c0,-1.4992 -1.41044,-2.87512 -2.87019,-2.87512c-1.57317,0 -2.99347,1.30687 -2.99347,2.87512"/>
   <path stroke="null" id="svg_40" fill-rule="evenodd" fill="rgb(10.980392%,38.823529%,71.764706%)" d="m261.14771,139.5665c0,2.30799 2.86033,3.6839 4.59624,1.9973c1.93811,-1.87895 0.47836,-4.73926 -1.85428,-4.73926c-1.47455,0 -2.74197,1.297 -2.74197,2.74196"/>
   <path stroke="null" id="svg_41" fill-rule="evenodd" fill="rgb(10.980392%,38.823529%,71.764706%)" d="m188.3575,117.25601c0,1.79509 1.514,3.65924 3.25485,3.65924c0.90248,0 3.24992,-0.17754 3.51621,-1.17866c-1.23289,-0.10356 -2.55949,-1.22303 -3.16607,-2.04167c-0.85316,-1.16386 -1.00111,-2.26854 -1.00111,-4.21651c-1.41044,0.74468 -2.60388,1.78031 -2.60388,3.7776"/>
   <path stroke="null" id="svg_42" fill-rule="evenodd" fill="rgb(10.980392%,38.823529%,71.764706%)" d="m263.35214,177.90465c0,1.43509 -0.75454,2.87019 0.30575,4.02417c1.61264,1.78031 4.8083,-0.15287 3.48663,-2.96881c-0.60659,-1.31674 -2.40661,-2.30799 -4.30034,-2.34744c0.13809,0.52276 0.50796,0.68057 0.50796,1.29208"/>
   <path stroke="null" id="svg_43" fill-rule="evenodd" fill="rgb(10.980392%,38.823529%,71.764706%)" d="m197.98889,136.55823c0,1.01097 -0.04931,1.49428 0.87288,2.38689c1.00605,0.97644 2.81594,0.96658 3.95021,0.36c-0.30083,-1.1244 -1.69153,-0.80877 -1.69153,-4.83788c0,-0.73974 0.21206,-0.92713 0.25644,-1.55837c-1.45975,0.3452 -3.38799,1.93811 -3.38799,3.64937"/>
   <path stroke="null" id="svg_44" fill-rule="evenodd" fill="rgb(10.980392%,38.823529%,71.764706%)" d="m197.08148,139.95116c-1.95784,0.04439 -5.53324,2.05648 -8.16671,-1.08494c-0.28111,-0.32056 -0.50796,-0.77426 -0.81865,-0.99619c0,10.29223 8.68945,2.52991 8.98535,2.08113"/>
   <path stroke="null" id="svg_45" fill-rule="evenodd" fill="rgb(10.980392%,38.823529%,71.764706%)" d="m189.14163,104.34018c1.93318,-0.15781 8.25547,-5.55789 2.94908,-4.73432c-1.79017,0.27617 -2.83072,0.51288 -3.26964,2.46086c-0.33042,1.51892 -0.18247,1.52386 0.32056,2.27346"/>
   <path stroke="null" id="svg_46" fill-rule="evenodd" fill="rgb(10.980392%,38.823529%,71.764706%)" d="m278.86197,141.25804c0,0.80385 -0.02466,1.30194 0.54741,1.92332c0.91234,1.00604 3.88115,1.3118 3.88115,-1.92332c0,-0.9518 -1.25261,-1.95291 -2.21921,-1.95291c-1.01591,0 -2.20935,0.96166 -2.20935,1.95291"/>
   <path stroke="null" id="svg_47" fill-rule="evenodd" fill="rgb(10.980392%,38.823529%,71.764706%)" d="m232.50014,93.51535c0,0.49316 1.36605,1.4992 1.78523,1.74085c2.7025,1.55837 3.6839,1.45975 3.6839,-1.47948c0,-1.54851 -0.94194,-1.30194 -2.34744,-1.30194c-0.90248,0 -3.12169,0.3107 -3.12169,1.04057"/>
   <path stroke="null" id="svg_48" fill-rule="evenodd" fill="rgb(10.980392%,38.823529%,71.764706%)" d="m196.16913,135.51767c-1.54358,0 -2.68771,0.09864 -3.91074,-0.24658c-1.67181,-0.49315 -1.89373,-1.39564 -2.59402,-1.57811c0,6.80559 6.06585,3.4817 6.50476,1.82468"/>
   <path stroke="null" id="svg_49" fill-rule="evenodd" fill="rgb(10.980392%,38.823529%,71.764706%)" d="m280.42035,137.5988c3.41759,0 2.62853,-4.03897 0.26137,-4.03897c-2.66799,0 -2.51018,4.03897 -0.26137,4.03897"/>
   <path stroke="null" id="svg_50" fill-rule="evenodd" fill="rgb(10.980392%,38.823529%,71.764706%)" d="m205.54408,123.90872c0,3.25485 3.77266,2.46086 3.77266,0.52274c0,-0.62137 0.02467,-1.16385 -0.5474,-1.66687c-1.37591,-1.19838 -3.22526,-0.1085 -3.22526,1.14413"/>
   <path stroke="null" id="svg_51" fill-rule="evenodd" fill="rgb(10.980392%,38.823529%,71.764706%)" d="m267.53412,142.5649c0,2.30305 2.36222,2.54964 3.33868,1.52879c0.90248,-0.937 0.84823,-3.22526 -1.65209,-3.22526c-0.79891,0 -1.68659,0.89263 -1.68659,1.69647"/>
   <path stroke="null" id="svg_52" fill-rule="evenodd" fill="rgb(10.980392%,38.823529%,71.764706%)" d="m262.84418,132.78063c0,2.95895 3.7776,2.32771 3.7776,0.39453c0,-3.17593 -3.7776,-2.64825 -3.7776,-0.39453"/>
   <path stroke="null" id="svg_53" fill-rule="evenodd" fill="rgb(10.980392%,38.823529%,71.764706%)" d="m203.07829,119.86482c0,2.59894 3.64444,2.55949 3.82197,0.21205c0.07398,-1.08001 -0.77426,-2.03674 -1.61262,-2.03674c-1.00111,0 -1.07016,-0.08383 -1.73592,0.61152c-0.33535,0.35014 -0.47343,0.57206 -0.47343,1.21317"/>
   <path stroke="null" id="svg_54" fill-rule="evenodd" fill="rgb(10.980392%,38.823529%,71.764706%)" d="m273.78243,138.65416c0,0.76932 -0.03452,1.09482 0.47837,1.61262c1.9677,1.97263 4.50747,-1.11947 2.72224,-2.73703c-1.30194,-1.18358 -3.2006,-0.07891 -3.2006,1.12441"/>
   <path stroke="null" id="svg_55" fill-rule="evenodd" fill="rgb(10.980392%,38.823529%,71.764706%)" d="m281.20941,149.34584c2.71236,0 2.39182,-3.6543 0.12328,-3.6543c-2.47072,0 -2.5299,3.6543 -0.12328,3.6543"/>
   <path stroke="null" id="svg_56" fill-rule="evenodd" fill="rgb(10.980392%,38.823529%,71.764706%)" d="m275.98686,125.60518c0,2.9195 3.64937,2.46086 3.64937,0.26137c0,-2.60388 -3.64937,-2.36716 -3.64937,-0.26137"/>
   <path stroke="null" id="svg_57" fill-rule="evenodd" fill="rgb(10.980392%,38.823529%,71.764706%)" d="m267.40097,130.1669c0,2.75183 3.64444,2.75183 3.64444,0c0,-2.16004 -3.64444,-2.16004 -3.64444,0"/>
  </g>
 </g>
</svg>