<svg width="100" height="77.333336" xmlns="http://www.w3.org/2000/svg">
 <metadata id="metadata8">image/svg+xml</metadata>

 <g>
  <title>background</title>
  <rect fill="none" id="canvas_background" height="602" width="802" y="-1" x="-1"/>
 </g>
 <g>
  <title>Layer 1</title>
  <g transform="matrix(1.7015891966614394,0,0,-1.7015891966614394,-5.9266223877911965,81.17911916406383) " id="g10">
   <g transform="translate(-4.627718925476074,-3.96661639213562) scale(0.10000000149011612) " id="g12">
    <path fill="#99d420" fill-rule="evenodd" id="path14" d="m236.57138,446.082c4.746,-1.656 31.34,-26.195 38.348,-32.125c4.464,-3.781 33.964,-32.484 35.015,-35.668c2.317,-1.539 15.762,-16.172 18.281,-19.301l11.446,-13.609c7.793,-9.926 11.398,-15.094 18.597,-25.246c0.848,-1.188 2.032,-2.785 2.02,-3.899c-0.02,-1.277 -2.07,-8.398 -2.477,-9.964c-1.617,-6.207 -3.132,-14.243 -4.043,-21.016c-0.484,-3.652 -1.336,-6.629 -1.902,-10.617c-1.043,-7.293 -3.441,-27.645 -3.441,-34.586c1.046,1.211 1.238,2.668 2.039,4.672c5.086,12.679 14.402,29.836 21.476,41.601c7.524,12.512 11.465,18.227 19.254,29.957c5.567,8.383 11.746,16.25 17.754,24.301c1.117,1.496 1.941,2.633 3.106,4.051l19.023,23.031c1.586,1.668 5.418,6.551 6.82,7.496c0.809,2.203 2.555,3.25 3.961,4.977c1.371,1.676 2.801,3.074 4.199,4.761c4.789,5.766 26.922,28.082 31.184,31.883c5.348,4.766 30.441,27.844 34.027,29.477c1.067,0.765 1.625,1.453 2.68,2.273l8.402,6.809c10.071,8.867 29.043,21.59 40.243,30c2.097,1.574 3.968,2.648 6.066,4.223c1.969,1.476 3.773,2.574 5.871,3.972l30.363,19.297c0.911,0.621 0.266,0.125 0.774,0.566c-2.688,0 -3.801,0.665 -6.184,0.399c-10.906,-1.211 -19.012,-0.508 -31.586,-2.895c-4.074,-0.773 -7.758,-1.273 -11.781,-2.089c-5.176,-1.043 -11.207,-2.067 -16.375,-3.75c-1.914,-0.622 -3.836,-0.993 -5.656,-1.504c-7.137,-2.012 -14.024,-4.309 -20.84,-6.903c-18.328,-6.968 -38.363,-17.222 -54.133,-28.629c-1.453,-1.054 -2.398,-1.867 -3.855,-2.855c-3.942,-2.684 -8.059,-6.422 -11.735,-9.293c-4.961,-3.879 -12.812,-11.68 -17.593,-16.406l-9.887,-11.137c-11.852,-14.684 -18.453,-23.266 -27.949,-40.949c-1.727,-3.223 -3.289,-5.699 -4.782,-9.09c-1.394,-3.168 -3.156,-5.961 -4.527,-9.34c-6.98,-17.176 -9.48,-21.394 -14.992,-40.48l-3.145,-10.278c-0.031,-0.07 -0.086,-0.211 -0.144,-0.304c-0.094,4.261 -2.258,12.57 -3.168,16.964c-1.067,5.133 -2.617,11.364 -4.266,16.313c-7.805,23.469 -15.133,41.824 -29.695,62.465c-3.426,4.855 -7.141,9.957 -11.082,14.422l-7.375,7.832c-5.035,5.031 -10.801,10.062 -16.508,14.363c-16.105,12.152 -36.492,21.293 -56.566,25.305c-9.747,1.949 -17.266,3.453 -27.481,3.386c-3.766,-0.019 -5.887,0.453 -9.836,0.453c0.488,-1.839 8.817,-7.386 10.281,-8.503c3.567,-2.731 7.129,-5.27 10.684,-8.11l21.09,-16.703"/>
    <path fill="#2056ae" fill-rule="evenodd" id="path16" d="m309.93438,378.289c-1.051,3.184 -30.551,31.887 -35.015,35.668c-7.008,5.93 -33.602,30.469 -38.348,32.125l0,-201.113c-0.02,-4.531 -1.262,-5.899 3.09,-5.852c23.383,0.254 46.883,0.039 70.277,0.039l-0.004,139.133"/>
    <path fill="#2056ae" fill-rule="evenodd" id="path18" d="m437.88738,375.16l0,-130.637c-0.011,-2.273 -0.574,-4.73 0.973,-5.293l72.398,-0.074l0,207.102c-3.586,-1.633 -28.679,-24.711 -34.027,-29.477c-4.262,-3.801 -26.395,-26.117 -31.184,-31.883c-1.398,-1.687 -2.828,-3.085 -4.199,-4.761c-1.406,-1.727 -3.152,-2.774 -3.961,-4.977"/>
    <path fill="#2056ae" fill-rule="evenodd" id="path20" d="m124.72338,136.707l0,17.445l-8.051,0l0,-86.7887l8.051,0l0,40.2617c0,11.754 0.59,21.984 6.574,30.113l3.372,4.235c0.691,0.695 1.207,0.949 1.992,1.586c8.984,7.281 23.277,7.632 29.547,0.183c4.375,-5.203 5.937,-14.601 5.937,-24.035l0,-52.3437l8.055,0l0,47.4217c0,10.074 2.32,16.555 6.636,22.438c4.067,5.543 9.407,10.648 17.961,11.57c22.579,2.434 22.375,-19.074 22.375,-35.352l0,-46.0777l8.055,0l0,50.9997c0,19.766 -3.961,38.477 -26.844,38.477c-9.711,0 -16.687,-4.594 -22.504,-11.492c-1.89,-2.243 -5.496,-6.828 -6.128,-9.535l-0.895,0c-0.156,1.898 -1.996,6.808 -2.824,8.359c-1.383,2.594 -3.133,4.531 -5.106,6.523c-8.406,8.477 -27.047,7.981 -35.808,-0.222c-7.485,-7.008 -8.375,-11.442 -10.395,-13.766"/>
    <path fill="#2056ae" fill-rule="evenodd" id="path22" d="m291.59438,72.2852c-13.527,0 -20.578,6.9336 -20.578,19.6836c0,12.8752 8.645,17.4612 19.223,20.1482c3.336,0.848 8.703,1.106 12.648,2.117c1.574,0.407 2.129,0.778 3.629,1.286c2.676,0.906 5.106,1.218 7.801,2.043c2.418,0.746 5.086,2.535 7.254,3.039c0,-8.454 1.148,-25.6997 -1.934,-32.0668c-0.64,-1.3164 -0.828,-2.1954 -1.539,-3.3829c-1.746,-2.9179 -7.285,-7.5585 -10.293,-9.3906c-3.105,-1.8867 -11.183,-3.4765 -16.211,-3.4765zm-25.945,63.0778c1.871,-0.5 4.145,-2.906 5.816,-4.023c1.004,3.769 6.95,10.129 10.368,12.445c9.046,6.129 22.367,7.211 31.695,2.328c3.664,-1.922 6.594,-5.191 7.707,-9.742c1.773,-7.223 0.652,-7.523 -5.981,-9.902c-7.273,-2.614 -4.847,-2.242 -13.335,-4.11c-4.567,-1.007 -9.305,-2.39 -13.805,-3.648c-8.828,-2.461 -4.914,-0.848 -12.617,-4.824c-3.082,-1.594 -2.696,-0.903 -4.864,-3.637c-3.222,-4.066 -4.589,-4.508 -6.332,-11.1172c-1.906,-7.2383 -1.691,-11.4258 0.774,-18.4765c3.445,-9.8555 13.738,-15.9766 23.39,-15.9766c14.516,0 17.204,2.1797 27.473,9.207c2.32,1.586 3.527,3.6992 5.633,5.1094c0.609,-7.3398 4.043,-14.3164 12.078,-14.3164c7.137,0 6.262,-0.4336 6.262,6.2617c0,3.4727 -7.512,-1.4805 -9.09,6.5664c-2.473,12.6289 1.238,49.9962 -2.035,60.5972c-0.586,1.911 -1.192,3.77 -2.071,5.54c-8.414,16.921 -37.769,15.82 -48.933,6.875c-4.332,-3.473 -10.852,-10.344 -12.133,-15.157"/>
    <path fill="#2056ae" fill-rule="evenodd" id="path24" d="m569.41938,107.625c0,12.355 0.835,20.188 7.683,30.344c9.711,14.406 31.836,14.121 40.828,3.406c10.239,-12.203 10.094,-19.949 10.094,-35.535c0,-8.0861 -3.816,-19.1252 -7.715,-23.1564c-2.105,-2.1797 -4.14,-5.3164 -7.859,-7.3516c-7.375,-4.0273 -18.676,-3.7968 -26.043,-0.375c-6.129,2.8477 -12.258,11.5469 -14.594,18.5118c-1.176,3.496 -2.394,9.7422 -2.394,14.1562zm-8.5,5.816c0,-8.277 0.117,-14.4879 2.621,-21.984c2.886,-8.6445 9.308,-18.3867 17.355,-22.4609c8.863,-4.4922 12.254,-4.3164 22.074,-4.3164c4.571,0 11.575,2.6875 14.914,4.7734c1.008,0.625 1.969,1.3242 2.848,2.0742c1.039,0.8868 1.684,1.3672 2.695,2.2227c4.457,3.7695 9.621,13.9922 11.125,19.2969c4.887,17.2301 2.766,34.7851 -7.054,49.3941c-0.911,1.36 -1.289,1.551 -2.219,2.704c-2.336,2.89 -5.09,5.265 -8.344,7.316c-12.582,7.91 -34.328,5.629 -45.668,-8.652c-5.734,-7.219 -10.347,-17.536 -10.347,-30.368"/>
    <path fill="#2056ae" fill-rule="evenodd" id="path26" d="m467.86438,111.207c0,-10.504 2.633,-22.5625 6.906,-28.8867c4.098,-6.0547 6.641,-9.8789 13.313,-13.5273c3.929,-2.1524 9.535,-4.043 14.226,-4.1172c11.305,-0.1836 16.539,-0.125 26.777,8.1211c5.395,4.3437 4.247,4.789 8,9.8945c0.958,1.3008 2.649,4.7266 2.805,6.5899c-4.43,1.0312 -4.738,2.625 -7.605,2.6875c-1.387,-5.9532 -9.782,-16.0352 -16.383,-18.0665c-7.442,-2.289 -16.844,-2.2148 -23.516,1.4297c-2.019,1.1094 -5.121,3.9375 -6.629,5.8985c-3.398,4.4062 -5.492,6.7851 -7.343,14.1289c-3.403,13.4926 -2.688,32.5546 6.754,44.1716c2.222,2.735 3.351,4.071 6.863,6.114c8.121,4.71 19.273,4.582 27.269,-0.004c1.649,-0.946 2.137,-1.621 3.528,-2.731c5.175,-4.137 7.105,-8.969 9.906,-14.258l7.152,3.586c-1.59,6.844 -9.297,15.973 -15.73,20.051c-9.469,6.004 -26.36,6.047 -35.914,0.277c-2.492,-1.503 -3.789,-2.574 -5.934,-4.359l-4.793,-5.496c-6.367,-9.164 -9.652,-19.961 -9.652,-31.504"/>
    <path fill="#2056ae" fill-rule="evenodd" id="path28" d="m373.91538,132.234l0,21.918l-8.055,0l0,-86.7887l8.055,0l0,31.3164c0,15.3203 2.379,32.0973 13.3,43.0663c7.223,7.254 13.696,6.195 21.594,4.356l0,9.394c-7.648,3.668 -18.719,0.313 -24.805,-7.855c-1.902,-2.555 -3.472,-4.614 -5.023,-7.5l-3.047,-6.352c-0.687,-1.512 -0.137,-1.398 -2.019,-1.555"/>
    <path fill="#2056ae" fill-rule="evenodd" id="path30" d="m430.73138,67.3633l8.5,0l0,86.7887l-8.5,0l0,-86.7887"/>
   </g>
  </g>
 </g>
</svg>