<svg width="630" height="220" xmlns="http://www.w3.org/2000/svg" xmlns:xlink="http://www.w3.org/1999/xlink">
 <style type="text/css">.st0{fill:none;}
	.st1{clip-path:url(#SVGID_2_);}
	.st2{clip-path:url(#SVGID_4_);fill:black;}
	.st3{fill:black;}</style>
 <g>
  <title>background</title>
  <rect fill="none" id="canvas_background" height="222" width="632" y="-1" x="-1"/>
 </g>
 <g>
  <title>Layer 1</title>
  <g id="svg_2">
   <defs transform="translate(0,-15.384615898132324) translate(0,-15.384615898132324) translate(-15.384615898132324,0) translate(-15.384615898132324,0) translate(-15.384615898132324,0) translate(-15.384615898132324,0) translate(-15.384615898132324,0) translate(-15.384615898132324,0) translate(-15.384615898132324,0) translate(-15.384615898132324,0) translate(1,1) translate(1,1) translate(1,1) translate(59,1) ">
    <polyline points="96.1,206.6 96.1,61.1 643.9,61.1 643.9,206.6   " id="SVGID_1_"/>
   </defs>
   <clipPath transform="translate(0,-15.384615898132324) translate(0,-15.384615898132324) translate(-15.384615898132324,0) translate(-15.384615898132324,0) translate(-15.384615898132324,0) translate(-15.384615898132324,0) translate(-15.384615898132324,0) translate(-15.384615898132324,0) translate(-15.384615898132324,0) translate(-15.384615898132324,0) translate(1,1) translate(1,1) translate(1,1) translate(59,1) " id="SVGID_2_">
    <use id="svg_3" xlink:href="#SVGID_1_"/>
   </clipPath>
   <g id="svg_4" class="st1">
    <defs transform="translate(0,-15.384615898132324) translate(0,-15.384615898132324) translate(-15.384615898132324,0) translate(-15.384615898132324,0) translate(-15.384615898132324,0) translate(-15.384615898132324,0) translate(-15.384615898132324,0) translate(-15.384615898132324,0) translate(-15.384615898132324,0) translate(-15.384615898132324,0) translate(1,1) translate(1,1) translate(1,1) translate(59,1) ">
     <polyline points="643.9,206.6 643.9,61.1 96.1,61.1 96.1,206.6    " id="SVGID_3_"/>
    </defs>
    <clipPath transform="translate(0,-15.384615898132324) translate(0,-15.384615898132324) translate(-15.384615898132324,0) translate(-15.384615898132324,0) translate(-15.384615898132324,0) translate(-15.384615898132324,0) translate(-15.384615898132324,0) translate(-15.384615898132324,0) translate(-15.384615898132324,0) translate(-15.384615898132324,0) translate(1,1) translate(1,1) translate(1,1) translate(59,1) " id="SVGID_4_">
     <use id="svg_5" xlink:href="#SVGID_3_"/>
    </clipPath>
    <path id="svg_6" d="m121.32307,62.83077c0,-16.1 -11.9,-25.8 -31.9,-25.8l-54.4,0l0,82.5l19.5,0l0,-30.3l27.5,0l20.8,30.3l22.7,0l-22.6,-32.9c17,-5.2 18.4,-19.4 18.4,-23.8m-35.5,11.8l-31.3,0l0,-22.6l31.4,0c13,0 14.9,6.9 14.9,11c0,4.4 -1.9,11.6 -15,11.6" class="st2"/>
    <polygon id="svg_7" points="228.32308959960938,84.93076801300049 287.3230895996094,84.93076801300049 287.3230895996094,70.1307725906372 228.32308959960938,70.1307725906372 228.32308959960938,52.43076801300049 289.22308349609375,52.43076801300049 289.22308349609375,37.13076877593994 208.82308959960938,37.13076877593994 208.82308959960938,119.53077411651611 290.0231018066406,119.53077411651611 290.0231018066406,104.2307710647583 228.32308959960938,104.2307710647583 " class="st2"/>
    <path id="svg_8" d="m475.62307,73.63077l-52,0l0,14.4l33.8,0c-1,11.2 -13.8,19 -31.7,19c-20.1,0 -33,-11.1 -33,-28.4c0,-17.7 12.6,-28.7 32.9,-28.7c15.1,0 26.1,5.8 29.4,15.5l0.4,1.2l20.6,-3.6l-0.5,-1.6c-5.3,-17 -23.7,-27.1 -49.3,-27.1c-32.1,0 -53.7,17.9 -53.7,44.5c0,26.1 20,43.6 49.7,43.6c16.3,0 29.3,-5.1 37.1,-14.4l0.7,11.6l15.5,0l0,-46l0.1,0z" class="st2"/>
    <rect id="svg_9" height="82.5" width="19.5" class="st2" y="37.13077" x="563.22307"/>
   </g>
  </g>
  <polygon id="svg_10" points="41.42308807373047,161.5307741165161 37.023094177246094,161.5307741165161 37.023094177246094,182.13076496124268 56.32310104370117,182.13076496124268 56.32310104370117,178.63076496124268 41.42308807373047,178.63076496124268 " class="st3"/>
  <path id="svg_11" d="m92.62307,161.53077l-11,20.6l4.7,0l2.2,-4.4l13.3,0l2.2,4.4l4.7,0l-11,-20.6l-5.1,0zm-2.5,13.2l2.7,-5.3c1.2,-2.3 1.9,-3.5 2.4,-5.1l0.1,0c0.5,1.6 1.1,2.8 2.4,5.1l2.7,5.3l-10.3,0z" class="st3"/>
  <path id="svg_12" d="m153.52307,171.33077c2.6,-0.5 3.9,-2.4 3.9,-4.6c0,-2.8 -2,-5.3 -7.1,-5.3l-14.9,0l0,20.6l15,0c5.4,0 7.5,-2.6 7.5,-5.8c0,-2.5 -1.3,-4.4 -4.4,-4.9m-13.8,-6.7l9.7,0c2.9,0 3.6,1.4 3.6,2.6c0,1.4 -0.6,2.9 -3.6,2.9l-9.7,0l0,-5.5zm9.9,14.4l-9.9,0l0,-5.9l9.9,0c2.8,0 3.9,1.2 3.9,3c0,1.7 -1.2,2.9 -3.9,2.9" class="st3"/>
  <path id="svg_13" d="m197.12307,160.73077c-8.2,0 -13.6,4.4 -13.6,11c0,6.6 5.4,11 13.6,11c8.2,0 13.7,-4.4 13.7,-11c0,-6.5 -5.5,-11 -13.7,-11m0,18.7c-5.4,0 -9.1,-3.1 -9.1,-7.7c0,-4.6 3.7,-7.7 9.1,-7.7c5.4,0 9.1,3.1 9.1,7.7c0.1,4.7 -3.6,7.7 -9.1,7.7" class="st3"/>
  <path id="svg_14" d="m259.42307,167.83077c0,-3 -1.8,-6.3 -7.9,-6.3l-13.7,0l0,20.6l4.3,0l0,-7.9l7.7,0l5.4,7.8l5,0l-5.7,-8.4c3.7,-0.8 4.9,-3.5 4.9,-5.8m-8.8,3.4l-8.5,0l0,-6.6l8.5,0c3.3,0 4.2,1.7 4.2,3.2c0.1,1.7 -0.9,3.4 -4.2,3.4" class="st3"/>
  <path id="svg_15" d="m296.22307,161.53077l-11,20.6l4.7,0l2.2,-4.4l13.3,0l2.2,4.4l4.7,0l-11,-20.6l-5.1,0zm-2.6,13.2l2.7,-5.3c1.2,-2.3 1.9,-3.5 2.4,-5.1l0.1,0c0.5,1.6 1.1,2.8 2.4,5.1l2.7,5.3l-10.3,0z" class="st3"/>
  <polygon id="svg_16" points="332.12310791015625,164.9307680130005 341.3230895996094,164.9307680130005 341.3230895996094,182.13076496124268 345.62310791015625,182.13076496124268 345.62310791015625,164.9307680130005 354.8230895996094,164.9307680130005 354.8230895996094,161.5307741165161 332.12310791015625,161.5307741165161 " class="st3"/>
  <path id="svg_17" d="m391.62307,160.73077c-8.2,0 -13.6,4.4 -13.6,11c0,6.6 5.4,11 13.6,11c8.2,0 13.7,-4.4 13.7,-11c0,-6.5 -5.5,-11 -13.7,-11m0,18.7c-5.4,0 -9.1,-3.1 -9.1,-7.7c0,-4.6 3.7,-7.7 9.1,-7.7c5.4,0 9.1,3.1 9.1,7.7c0.1,4.7 -3.6,7.7 -9.1,7.7" class="st3"/>
  <path id="svg_18" d="m453.92307,167.83077c0,-3 -1.8,-6.3 -7.9,-6.3l-13.7,0l0,20.6l4.3,0l0,-7.9l7.7,0l5.4,7.8l5,0l-5.7,-8.4c3.7,-0.8 4.9,-3.5 4.9,-5.8m-8.8,3.4l-8.5,0l0,-6.6l8.5,0c3.3,0 4.2,1.7 4.2,3.2c0.1,1.7 -0.9,3.4 -4.2,3.4" class="st3"/>
  <rect id="svg_19" height="20.6" width="4.3" class="st3" y="161.53077" x="482.12307"/>
  <polygon id="svg_20" points="520.0228271484375,173.13076496124268 535.3228759765625,173.13076496124268 535.3228759765625,170.0307741165161 520.0228271484375,170.0307741165161 520.0228271484375,164.7307710647583 535.8228759765625,164.7307710647583 535.8228759765625,161.5307741165161 515.7228393554688,161.5307741165161 515.7228393554688,182.13076496124268 536.0228271484375,182.13076496124268 536.0228271484375,178.9307680130005 520.0228271484375,178.9307680130005 " class="st3"/>
  <path id="svg_21" d="m577.72307,170.13077l-6.1,-0.6c-3.3,-0.3 -4.3,-1 -4.3,-2.7c0,-1.9 2.1,-2.9 6,-2.9c4.5,0 7.2,1.4 8.6,4l3.3,-1.9c-2.1,-3.6 -5.9,-5.3 -11.8,-5.3c-6.8,0 -10.6,2.3 -10.6,6.3c0,3.6 2.3,5.4 7.2,5.9l6.5,0.6c3.2,0.3 4.4,1.1 4.4,2.8c0,2.1 -2,3.1 -6.4,3.1c-4.9,0 -8,-1.7 -9.4,-4.7l-3.6,1.7c1.8,4.1 6.2,6.3 12.8,6.3c7.2,0 11,-2.4 11,-6.8c0.1,-3.5 -2.2,-5.2 -7.6,-5.8" class="st3"/>
 </g>
</svg>