<svg width="192.756" height="70" xmlns="http://www.w3.org/2000/svg">

 <g>
  <title>background</title>
  <rect fill="none" id="canvas_background" height="72" width="194.756" y="-1" x="-1"/>
 </g>
 <g>
  <title>Layer 1</title>
  <g id="svg_1" clip-rule="evenodd" fill-rule="evenodd">
   <path id="svg_2" d="m0,-61l192.756,0l0,192.756l-192.756,0l0,-192.756z" fill="#fff"/>
   <path id="svg_3" d="m149.043,37.956c-1.512,8.22 -7.244,11.029 -12.396,11.029l-28.088,0l0,-25.129c0,-1.734 0.463,-2.005 1.957,-2.958l-10.559,-0.111c0.566,0.277 2.146,1.075 2.146,2.931l-0.035,24.262c0,2.046 -0.859,2.774 -2.111,3.226l36.947,-0.018c9.58,0.035 13.479,-3.642 16.26,-6.937c3.039,-3.572 4.652,-10.163 1.201,-15.833c-2.473,-4.093 -7.143,-7.544 -12.465,-8.377c-1.236,-0.19 -2.799,-0.502 -4.738,-0.502c-1.924,0 -3.674,0.226 -5.031,0.502c-4.395,1.041 -9.992,3.885 -12.551,8.567c-2.643,4.856 -1.322,10.128 0.637,13.075c1.768,2.723 5.992,6.296 11.658,6.486l0.17,-0.069c-3.725,-1.925 -5.613,-5.428 -6.764,-10.145c-0.859,-3.607 -0.24,-8.983 2.9,-12.365c2.336,-2.48 5.805,-3.832 8.98,-3.867c3.211,0.035 6.523,1.231 8.842,3.711c3.161,3.382 3.692,9.105 3.04,12.522zm-112.66,10.837l-9.409,-11.949c10.439,-1.664 9.409,-16.284 -2.987,-16.284l-21.153,0c1.442,0.503 2.404,1.231 2.404,2.636l0,24.815c0.017,1.163 -0.79,2.498 -1.872,3.174l10.062,0c-1.082,-0.555 -2.146,-2.133 -2.146,-3.087l0,-10.75l8.619,0l10.37,13.87l8.876,-0.016c-0.944,-0.451 -1.888,-1.282 -2.764,-2.409zm-16.503,-13.666l-8.602,0l-0.035,-12.312l10.233,-0.035c7.401,0.034 9.169,12.209 -1.596,12.347zm55.058,-11.176c-0.755,-1.665 0.137,-2.619 1.442,-3.173l-11.847,0c1.237,0.971 2.645,1.682 3.194,3.555l13.375,26.862l3.125,0l12.517,-27.764c0.72,-1.648 1.425,-2.047 2.146,-2.653l-6.971,0c1.271,0.364 2.301,1.474 1.494,3.26l-9.186,20.377l-9.289,-20.464zm86.277,23.75c0,1.838 -1.58,3.086 -2.199,3.485l6.748,0c-0.617,-0.399 -2.094,-1.37 -2.094,-3.208l0,-21.504l21.066,24.712l3.09,0l0,-27.503c0,-1.838 1.494,-2.498 2.096,-2.896l-6.715,0c0.602,0.399 2.182,1.335 2.182,3.156l-0.035,17.793l-18.182,-20.949l-9.701,0c1.031,0.521 3.744,1.647 3.744,4.162l0,22.752zm-97.375,-26.93l-24.517,0c1.167,0.625 2.232,1.092 2.232,2.983l-0.017,24.348c0,1.683 -0.687,2.445 -1.854,3.087l25.359,0l2.387,-7.353c-1.236,1.457 -4.172,5.115 -9.529,5.099l-9.666,-0.018l0,-12.209l7.039,0c2.232,0 3.399,1.231 4.138,2.41l0,-7.248c-1.047,1.492 -1.974,2.532 -4.155,2.532l-7.022,0l0,-11.498l9.906,0.034c4.172,0.035 5.958,2.688 6.885,4.249l-1.186,-6.416z"/>
  </g>
 </g>
</svg>