<?xml version="1.0" encoding="UTF-8" standalone="no"?>
<svg
   xmlns:dc="http://purl.org/dc/elements/1.1/"
   xmlns:cc="http://creativecommons.org/ns#"
   xmlns:rdf="http://www.w3.org/1999/02/22-rdf-syntax-ns#"
   xmlns:svg="http://www.w3.org/2000/svg"
   xmlns="http://www.w3.org/2000/svg"
   xmlns:sodipodi="http://sodipodi.sourceforge.net/DTD/sodipodi-0.dtd"
   xmlns:inkscape="http://www.inkscape.org/namespaces/inkscape"
   version="1.1"
   width="3685.0393"
   height="3968.5039"
   id="svg53"
   viewBox="0 0 3685.0393 3968.5039"
   sodipodi:docname="mondelez-international.cdr">
  <metadata
     id="metadata59">
    <rdf:RDF>
      <cc:Work
         rdf:about="">
        <dc:format>image/svg+xml</dc:format>
        <dc:type
           rdf:resource="http://purl.org/dc/dcmitype/StillImage" />
      </cc:Work>
    </rdf:RDF>
  </metadata>
  <defs
     id="defs57" />
  <sodipodi:namedview
     pagecolor="#ffffff"
     bordercolor="#666666"
     borderopacity="1"
     objecttolerance="10"
     gridtolerance="10"
     guidetolerance="10"
     inkscape:pageopacity="0"
     inkscape:pageshadow="2"
     inkscape:window-width="640"
     inkscape:window-height="480"
     id="namedview55" />
  <g
     id="Layer1000">
    <path
       d="m 1347.6778,542.6006 c -4.0686,-2.918 -8.6768,-11.7628 -12.2278,-17.2798 -19.9398,-30.9745 -40.9622,-74.3601 -71.7374,-78.7274 -24.156,-3.4271 -33.3758,3.512 -45.0097,14.9209 11.045,15.369 16.5441,21.3814 18.6382,48.581 3.4967,45.4381 -15.3706,135.9979 -56.3787,148.3801 8.8321,36.3116 51.6305,47.9183 78.5764,8.1711 16.1877,-23.8786 24.4377,-77.7296 26.2043,-111.3685 1.148,1.0564 1.1837,1.0055 2.4072,2.4828 8.0311,9.6966 48.1924,76.5043 55.1068,83.4917 8.2474,-6.7549 51.6084,-71.4405 64.6983,-85.1701 0.7093,15.2552 -1.0674,32.4137 -0.6644,48.3892 1.4908,59.0465 19.0828,153.8063 95.1425,149.5621 25.9964,-1.4509 52.126,-21.4747 57.8568,-41.9762 -5.0978,-2.2935 -13.4207,-2.7237 -19.4162,-4.5735 -6.0931,-1.8786 -11.8282,-4.4088 -16.5798,-7.0239 -31.1739,-17.1558 -48.8559,-47.8877 -58.5407,-84.3597 -7.1647,-26.9824 -10.0259,-56.075 -8.9678,-85.3771 0.6585,-18.242 3.6562,-42.1884 12.809,-57.783 1.7292,-2.9469 2.9222,-5.0037 4.6982,-7.1037 3.769,-4.4555 4.0999,-2.2909 6.121,-7.494 -12.5815,-8.1379 -24.0049,-15.5174 -45.6689,-11.5175 -18.9725,3.5034 -27.2352,14.618 -35.4012,25.1156 z"
       style="fill:#502170;fill-rule:evenodd"
       id="path2" />
    <path
       d="m 1932.4204,564.0168 c 33.7008,-8.4817 38.1088,77.8611 8.7099,84.4649 -38.136,8.5674 -38.0952,-77.0694 -8.7099,-84.4649 z m 32.0725,-15.9349 c -7.9759,-8.8728 -17.0905,-18.5109 -31.3038,-23.764 -15.2399,-5.6315 -31.6024,-4.0185 -44.9324,3.3423 -47.5246,26.2433 -44.7975,132.1321 1.7759,156.2737 12.5163,6.4885 30.7888,9.409 46.5539,5.6349 20.5278,-4.9146 25.5281,-16.5229 32.8693,-24.7483 10.2083,12.4535 12.8209,19.5385 32.8964,24.6354 18.7748,4.766 34.0665,-0.577 42.7509,-12.7691 -12.9532,-10.154 -16.9242,-15.3019 -17.1651,-38.3082 l 0.207,-163.609 c 0.1247,-54.1963 -45.2761,-45.0783 -56.4704,-30.2117 -13.3953,17.7888 -5.4474,76.7767 -7.1817,103.524 z"
       style="fill:#502170;fill-rule:evenodd"
       id="path4" />
    <path
       d="m 1663.9688,529.3079 c 7.4965,6.8059 13.6414,8.4011 16.2598,22.4769 3.5951,19.3263 -2.6668,93.5006 1.4136,115.1833 4.8976,26.021 34.2532,28.3586 47.5034,18.3904 24.1467,-18.1647 6.0167,-77.9281 13.3682,-103.0497 6.6327,-22.6669 32.9252,-33.2605 32.7581,5.9446 -0.1782,41.7683 -6.8899,80.2997 21.0488,96.5247 20.5481,11.9333 44.8552,6.9917 56.1428,-8.0913 -19.5715,-16.6323 -17.2916,-20.4811 -17.2297,-56.0037 0.041,-23.1921 3.2778,-50.1617 -3.3677,-71.5949 -15.5861,-50.272 -74.2023,-23.7572 -89.3905,5.3736 -6.3629,-9.7162 -3.6214,-27.3981 -29.8537,-36.5068 -20.0951,-6.9781 -38.6832,-2.879 -48.6531,11.3529 z"
       style="fill:#502170;fill-rule:evenodd"
       id="path6" />
    <path
       d="m 1574.9185,556.9564 c 33.4683,-9.1867 37.9357,90.0736 7.914,97.0075 -37.1712,8.5852 -38.0401,-88.738 -7.914,-97.0075 z m -13.5404,-35.5709 c -41.6733,8.6165 -78.2641,47.881 -67.6468,100.6663 8.2449,40.9852 47.9633,77.5004 99.8568,67.6926 41.5842,-7.8588 78.696,-48.4299 68.497,-100.7443 -8.0022,-41.0514 -48.693,-78.3694 -100.707,-67.6146 z"
       style="fill:#502170;fill-rule:evenodd"
       id="path8" />
    <path
       d="m 2542.7504,573.5853 c -7.2937,6.8364 -40.0807,20.9767 -58.8529,41.4239 -13.4649,14.6672 -32.6445,42.9045 -28.2161,73.3343 13.2324,-5.5848 20.4828,-14.6197 48.7362,-17.1567 23.3135,-2.0924 35.688,4.3927 51.8079,13.9672 31.4624,18.6883 56.5102,-2.8264 59.2822,-28.0421 1.4145,-12.8684 -2.8738,-17.9196 -6.177,-26.6014 -21.9669,5.6527 -7.8555,13.5276 -72.6123,12.1039 l -5.4694,-0.2402 c 23.6333,-18.3242 76.9557,-59.172 87.2463,-84.3377 2.8043,-6.8576 4.1891,-15.1559 2.7415,-23.5578 -1.8998,-11.0229 -4.6235,-13.2137 -9.863,-19.311 -14.64,16.2047 -25.7902,11.6083 -58.4482,11.6083 -15.0414,0 -58.1376,-1.8947 -69.7341,0.5685 -20.7111,4.3986 -25.1513,31.2894 -8.4087,41.8133 10.978,6.9001 51.5508,3.3533 67.9676,4.4275 z"
       style="fill:#502170;fill-rule:evenodd"
       id="path10" />
    <path
       d="m 2102.506,596.1122 c 1.2507,-12.5264 4.2468,-24.1373 10.3772,-32.3831 18.309,-24.6294 43.6206,7.0197 23.9218,25.3804 -7.9411,7.4015 -20.745,7.421 -34.299,7.0027 z m 91.5262,43.4713 c -17.082,7.3115 -27.5958,13.5497 -52.193,10.6156 -16.0987,-1.9201 -34.8786,-14.36 -34.9524,-27.3311 25.8929,-0.0492 57.7278,-0.0662 77.8119,-12.3745 20.9682,-12.8497 22.4497,-42.7849 7.0663,-63.3331 -21.2711,-28.4138 -91.5839,-41.815 -126.7365,1.1472 -30.569,37.3604 -28.7082,96.2023 13.061,127.305 41.4739,30.8829 110.1033,15.6294 115.9427,-36.0291 z"
       style="fill:#502170;fill-rule:evenodd"
       id="path12" />
    <path
       d="m 2354.7885,596.0859 c 7.2743,-70.7201 61.8516,-34.2667 33.9172,-7.0298 -8.3722,8.1626 -20.3903,7.5279 -33.9172,7.0298 z m 91.5627,42.6525 c -18.152,12.8277 -54.467,18.4269 -74.6792,2.6227 -3.9421,-3.0826 -12.6706,-11.1086 -12.6342,-18.4939 34.0861,-0.0289 91.5186,1.372 94.9491,-40.6925 3.3363,-40.902 -37.0066,-61.1167 -74.9066,-61.5164 -85.1573,-0.8977 -110.4962,113.9717 -47.0732,155.9555 19.3968,12.8404 45.4458,19.2211 72.7972,11.1146 20.7485,-6.15 40.2937,-24.5591 41.5469,-48.99 z"
       style="fill:#502170;fill-rule:evenodd"
       id="path14" />
    <path
       d="m 2297.5257,676.6868 c -8.8422,-7.7791 -13.974,-9.3021 -16.2828,-24.5276 -1.8718,-12.3457 -0.9299,-28.8296 -0.7908,-41.793 0.3055,-28.4316 0.018,-57.0295 0.018,-85.4789 0,-20.8367 4.3409,-62.9699 -5.7283,-78.4042 -13.1136,-20.101 -45.3185,-16.1173 -54.6359,4.9103 -6.1389,13.8543 -2.856,140.2608 -2.856,166.342 -9e-4,31.1231 -0.4777,49.4355 19.9389,63.8159 18.8766,13.2968 48.9476,13.0126 60.337,-4.8645 z"
       style="fill:#502170;fill-rule:evenodd"
       id="path16" />
    <path
       d="m 1242.5077,699.1645 c -16.7825,9.7543 -41.194,13.5658 -56.9701,-0.3063 -14.9863,-13.1773 -12.5002,-23.2617 -31.6466,-43.4909 -41.3569,-43.6944 -109.1725,13.3894 -81.5207,63.8354 3.9116,7.135 12.0504,16.4177 17.6777,20.6322 32.0547,24.0049 82.6475,19.3831 114.8583,-2.5846 10.9296,-7.4541 31.5532,-27.0519 37.6014,-38.0858 z"
       style="fill:#ce1127;fill-rule:evenodd"
       id="path18" />
    <path
       d="m 2556.2933,699.9765 c 5.0911,11.1264 25.7784,29.947 36.5773,36.9989 14.8386,9.6891 34.1216,17.4435 55.8645,18.7791 43.299,2.66 85.7411,-23.1429 82.6899,-65.8455 -3.2243,-45.1123 -52.8736,-63.4645 -87.1191,-35.2883 -12.3728,10.1803 -18.6976,32.7564 -30.5613,43.1302 -21.0166,18.3768 -42.3267,7.7884 -57.4513,2.2256 z"
       style="fill:#ce1127;fill-rule:evenodd"
       id="path20" />
    <path
       d="m 2327.9513,459.7342 c -11.0806,2.7076 -19.7099,13.9086 -14.2345,27.3184 5.0783,12.4356 15.7448,12.478 29.9767,12.433 15.5836,-0.0492 75.5659,1.9558 85.8345,-0.7823 16.2666,-4.3367 29.5431,-39.8091 -16.567,-39.6437 -16.4482,0.0586 -73.7102,-2.0864 -85.0097,0.6746 z"
       style="fill:#502170;fill-rule:evenodd"
       id="path22" />
    <path
       d="m 2412.4714,774.0516 c 21.4544,-1.3746 16.4576,33.5905 6.7201,37.1262 -12.2523,4.4495 -20.9079,-18.5194 -6.7201,-37.1262 z m 14.7156,-8.4274 c -17.665,-24.6837 -47.8767,-7.9241 -47.7817,26.0338 0.1171,41.5969 33.1951,47.3701 49.7544,30.8829 l 1.5664,1.4136 c 4.1118,3.8811 5.3498,6.2815 10.63,7.0528 21.8659,3.192 16.371,-31.0917 16.3719,-42.3123 0,-12.8115 2.6396,-27.9327 -6.2959,-34.1174 -4.6295,-3.2048 -10.5164,-3.4755 -15.4292,-0.3454 -4.5437,2.8934 -6.3739,8.6751 -8.8159,11.392 z"
       style="fill:#502170;fill-rule:evenodd"
       id="path24" />
    <path
       d="m 2068.1714,775.1317 c 16.2242,-8.9814 19.1006,29.3488 8.4103,35.341 -16.466,9.2283 -20.8332,-28.4647 -8.4103,-35.341 z m 16.6009,-9.7026 c -9.6738,-5.898 -17.5903,-17.4546 -35.4555,-7.3828 -19.0013,10.7123 -18.796,56.248 0.2215,68.4596 18.5728,11.9266 32.6987,-2.5115 36.8258,-4.4291 3.9184,10.3322 17.8567,12.6469 24.3792,3.2599 4.2925,-6.1771 2.7041,-27.354 2.7041,-36.6417 9e-4,-12.333 2.3826,-27.9437 -5.6807,-33.7381 -10.871,-7.8113 -20.4735,-0.0857 -22.9944,10.4722 z"
       style="fill:#502170;fill-rule:evenodd"
       id="path26" />
    <path
       d="m 1985.3678,771.3287 c -1.1549,-25.3422 -25.2998,-19.4434 -27.1233,-5.8886 -1.1709,8.7048 -0.9045,43.2702 -0.1306,52.6699 1.4441,17.5555 25.3634,17.609 27.0375,-0.1052 1.4221,-15.0456 -6.2509,-42.4998 12.6393,-41.1065 6.4308,11.571 -1.3585,33.4242 3.5815,46.2247 4.4198,11.4531 26.0414,12.9354 26.0414,-7.9004 l 0,-28.0014 c 0,-27.0469 -12.3559,-36.164 -30.6097,-25.7198 -7.7324,4.4249 -6.9883,6.2008 -11.4378,9.8273 z"
       style="fill:#502170;fill-rule:evenodd"
       id="path28" />
    <path
       d="m 2302.5599,815.2226 c 0,20.2851 24.9917,22.0449 27.0095,3.0266 1.5833,-14.9209 -5.9514,-43.2974 12.8107,-41.2279 6.8295,11.5812 -2.4624,39.0854 5.1444,49.1139 3.831,5.0511 13.3614,7.0799 19.5444,2.1628 6.1763,-4.9111 4.8204,-12.7089 4.8204,-21.9177 -0.036,-16.8147 3.3498,-45.2642 -13.7551,-48.3009 -15.1687,-2.6932 -22.5591,8.1914 -28.4011,13.744 -0.4514,-25.8844 -27.1749,-21.7293 -27.1732,-2.2876 z"
       style="fill:#502170;fill-rule:evenodd"
       id="path30" />
    <path
       d="m 1684.3846,815.2226 c 8e-4,21.9482 27.175,22.767 27.175,-2.8705 8e-4,-7.8402 -1.0624,-23.4976 1.4781,-29.6433 3.9489,-9.5558 13.7236,-9.4217 13.7245,4.5124 l -0.1799,26.5275 c -0,24.3945 27.1258,22.7433 27.1258,1.4739 v -28.0014 c 0,-46.0593 -33.8298,-28.6641 -40.3319,-15.7219 -0.2478,-0.3623 -0.4268,-0.8876 -0.5447,-1.1981 l -1.5867,-4.9468 c -4.9154,-17.5334 -26.8661,-14.0605 -26.8611,4.1814 z"
       style="fill:#502170;fill-rule:evenodd"
       id="path32" />
    <path
       d="m 2260.0525,771.2252 c 13.4843,14.6477 8.7565,46.8704 -5.4177,43.1124 -10.423,-2.7636 -15.682,-43.9558 5.4177,-43.1124 z m 33.6074,32.2074 c 6.7142,-23.131 -8.6301,-42.4055 -26.1041,-47.55 -23.6011,-6.9492 -43.1107,9.2257 -47.9896,26.5259 -13.7721,48.8355 60.0205,69.5109 74.0937,21.0241 z"
       style="fill:#502170;fill-rule:evenodd"
       id="path34" />
    <path
       d="m 1841.1767,788.2724 c -0.2927,-9.8952 7.9132,-24.7864 16.0554,-15.5844 3.2599,3.6834 1.2575,9.9402 -1.6461,12.6452 -3.579,3.3355 -8.6929,2.9452 -14.4093,2.9392 z m 1.3279,12.4001 c 11.5422,-0.0391 27.4313,0.0254 35.5981,-6.0838 8.0141,-5.9947 9.3064,-18.6942 2.7381,-27.7766 -11.7271,-16.2148 -44.627,-15.7566 -57.1678,-0.1442 -15.0881,18.7833 -10.8575,45.8149 5.6586,57.5445 19.2042,13.6389 47.8471,8.0082 52.0412,-15.6803 -14.2421,5.1012 -34.097,7.791 -38.8682,-7.8596 z"
       style="fill:#502170;fill-rule:evenodd"
       id="path36" />
    <path
       d="m 2503.4919,826.2115 c -1.1701,-4.3901 -4.9366,-3.7741 -6.3358,-11.1561 l -0.4454,-55.8365 c 0,-8.6921 1.6011,-29.9148 -1.703,-36.3855 -4.9705,-9.734 -18.919,-8.916 -23.7402,0.4345 -3.7063,7.1868 -1.6665,60.2784 -1.6834,72.7972 -0.019,13.4971 -1.6673,23.1904 7.2318,30.44 8.1719,6.6582 19.182,6.9034 26.676,-0.2936 z"
       style="fill:#502170;fill-rule:evenodd"
       id="path38" />
    <path
       d="m 1649.4925,828.7443 c 10.8371,7.7918 21.5893,-0.6907 21.5893,-13.5217 l 0,-73.689 c 0,-23.2778 -15.9468,-31.5287 -34.3661,-20.5261 2.8001,5.1741 5.8725,3.9022 6.9764,13.1874 l 0.2732,60.3946 c 0,12.3729 -2.6057,28.3095 5.5238,34.1548 z"
       style="fill:#502170;fill-rule:evenodd"
       id="path40" />
    <path
       d="m 2128.4057,759.2189 c -4.3783,1.4832 -8.5173,1.6104 -8.1864,7.1978 0.3199,5.3923 5.6791,5.3269 8.6598,7.5398 0.03,17.4724 -3.0206,39.8211 7.3591,49.8215 12.6588,12.1964 29.2691,7.9445 36.4652,-5.6077 -14.6604,-10.3475 -16.4932,7.3259 -16.5135,-46.0567 7.4931,-0.003 17.289,1.9337 16.3362,-6.7897 -0.7908,-7.2369 -8.9263,-5.4338 -16.3337,-5.4338 -0,-6.7584 0.9215,-11.8816 -2.7042,-16.7232 -2.408,-3.2166 -6.3332,-6.0201 -11.5498,-5.7723 -12.4229,0.5897 -12.1327,10.7573 -13.5327,21.8243 z"
       style="fill:#502170;fill-rule:evenodd"
       id="path42" />
    <path
       d="m 1795.5528,772.3138 c 7.9903,-0.3869 17.3476,2.0186 16.3871,-7.0434 -0.7874,-7.4312 -8.5962,-5.1809 -16.3897,-5.6111 0,-11.6822 -1.2591,-21.8176 -13.2782,-22.2257 -12.2837,-0.4183 -14.0223,8.6581 -14.0266,20.3114 l -8.1676,3.876 c -1.0904,10.7658 -0.087,8.6793 8.1753,11.5235 -0.014,17.4953 -3.0012,39.9661 7.3497,50.2831 13.0992,13.0559 28.5589,8.8719 36.4618,-5.2573 -3.3405,-2.1603 -6.9594,-2.0356 -11.2189,-5.2616 -8.6572,-6.5589 -5.2955,-25.0809 -5.2929,-40.5949 z"
       style="fill:#502170;fill-rule:evenodd"
       id="path44" />
    <path
       d="m 1926.9569,775.612 c 3.1097,6.8168 0.6703,6.9093 6.2008,12.3881 16.8886,3.1997 23.7683,-14.2158 16.4635,-25.1802 -3.131,-4.699 -9.2351,-7.1868 -16.0282,-5.4745 -7.2411,1.826 -9.2291,6.4681 -13.2714,11.739 -3.5646,-7.4159 -2.207,-11.739 -10.3118,-14.0121 -8.5513,-2.3988 -15.279,2.638 -17.094,8.8261 -1.2838,4.374 -1.2023,46.1551 -0.7636,52.9126 1.2303,18.9538 23.6299,18.953 26.7465,3.9311 3.4924,-16.8326 -5.8208,-42.2223 8.0582,-45.1301 z"
       style="fill:#502170;fill-rule:evenodd"
       id="path46" />
    <path
       d="m 2183.1799,821.118 c 2.8077,13.6668 24.537,13.5624 26.5581,-1.4832 0.7068,-5.2565 0.6932,-43.7437 -0.1672,-48.5012 -2.7763,-15.3605 -25.1071,-14.5086 -26.7609,1.2506 -0.6084,5.7953 -0.6041,43.994 0.37,48.7338 z"
       style="fill:#502170;fill-rule:evenodd"
       id="path48" />
    <path
       d="m 2192.3887,726.5753 c -18.6331,6.9798 -6.9798,31.1706 9.2003,24.7924 14.5263,-5.7265 7.2428,-30.9508 -9.2003,-24.7924 z"
       style="fill:#502170;fill-rule:evenodd"
       id="path50" />
  </g>
</svg>
